<?xml version="1.0" encoding="UTF-8"?>
<!DOCTYPE svg PUBLIC "-//W3C//DTD SVG 1.1//EN" "http://www.w3.org/Graphics/SVG/1.1/DTD/svg11.dtd">
<svg xmlns="http://www.w3.org/2000/svg" version="1.1" width="1080px" height="1080px" style="shape-rendering:geometricPrecision; text-rendering:geometricPrecision; image-rendering:optimizeQuality; fill-rule:evenodd; clip-rule:evenodd" xmlns:xlink="http://www.w3.org/1999/xlink">
<g><path style="opacity:0.239" fill="#0b0b62" d="M 552.5,444.5 C 525.167,444.5 497.833,444.5 470.5,444.5C 441.093,444.175 411.76,444.509 382.5,445.5C 410.492,444.167 438.825,443.5 467.5,443.5C 496.002,443.5 524.335,443.833 552.5,444.5 Z"/></g>
<g><path style="opacity:1" fill="#2b29b2" d="M 470.5,444.5 C 470.5,444.833 470.5,445.167 470.5,445.5C 469.167,445.5 467.833,445.5 466.5,445.5C 459.167,445.5 451.833,445.5 444.5,445.5C 424.326,445.17 404.326,445.503 384.5,446.5C 383.501,508.664 383.168,570.998 383.5,633.5C 382.501,571.002 382.168,508.336 382.5,445.5C 411.76,444.509 441.093,444.175 470.5,444.5 Z"/></g>
<g><path style="opacity:1" fill="#5e5dcc" d="M 470.5,445.5 C 470.5,445.167 470.5,444.833 470.5,444.5C 497.833,444.5 525.167,444.5 552.5,444.5C 556.248,444.694 558.915,446.361 560.5,449.5C 558.692,448.093 556.692,446.926 554.5,446C 542.838,445.5 531.171,445.333 519.5,445.5C 514.167,445.5 508.833,445.5 503.5,445.5C 492.5,445.5 481.5,445.5 470.5,445.5 Z"/></g>
<g><path style="opacity:1" fill="#5755ae" d="M 663.5,447.5 C 650.28,445.62 636.947,444.953 623.5,445.5C 610.833,445.5 598.167,445.5 585.5,445.5C 586.609,444.71 587.942,444.21 589.5,444C 611.833,443.333 634.167,443.333 656.5,444C 659.174,444.67 661.507,445.837 663.5,447.5 Z"/></g>
<g><path style="opacity:1" fill="#1f1ffe" d="M 384.5,446.5 C 397.883,446.185 411.216,446.518 424.5,447.5C 424.983,453.144 425.983,458.644 427.5,464C 427.095,464.945 426.428,465.612 425.5,466C 425.833,466.333 426.167,466.667 426.5,467C 424.833,468.333 423.167,469.667 421.5,471C 417.975,471.179 414.641,471.679 411.5,472.5C 411.5,472.833 411.5,473.167 411.5,473.5C 410.501,526.664 410.168,579.997 410.5,633.5C 401.833,633.5 393.167,633.5 384.5,633.5C 384.5,571.167 384.5,508.833 384.5,446.5 Z"/></g>
<g><path style="opacity:1" fill="#2e2efc" d="M 384.5,446.5 C 404.326,445.503 424.326,445.17 444.5,445.5C 449.316,446.326 454.316,446.826 459.5,447C 458.693,452.083 458.193,457.25 458,462.5C 457.5,463 457,463.5 456.5,464C 457.551,465.385 458.884,466.385 460.5,467C 459.167,468 457.833,469 456.5,470C 453.305,470.181 450.305,470.681 447.5,471.5C 447.5,471.833 447.5,472.167 447.5,472.5C 435.5,472.5 423.5,472.5 411.5,472.5C 414.641,471.679 417.975,471.179 421.5,471C 423.167,469.667 424.833,468.333 426.5,467C 426.167,466.667 425.833,466.333 425.5,466C 426.428,465.612 427.095,464.945 427.5,464C 425.983,458.644 424.983,453.144 424.5,447.5C 411.216,446.518 397.883,446.185 384.5,446.5 Z"/></g>
<g><path style="opacity:1" fill="#3f3ffd" d="M 444.5,445.5 C 451.833,445.5 459.167,445.5 466.5,445.5C 471.651,446.327 476.984,446.827 482.5,447C 482.145,452.877 481.145,458.543 479.5,464C 480.5,464.5 481.5,465 482.5,465.5C 483.833,466.5 483.833,467.5 482.5,468.5C 479.36,470.022 476.027,470.855 472.5,471C 464.173,471.5 455.84,471.666 447.5,471.5C 450.305,470.681 453.305,470.181 456.5,470C 457.833,469 459.167,468 460.5,467C 458.884,466.385 457.551,465.385 456.5,464C 457,463.5 457.5,463 458,462.5C 458.193,457.25 458.693,452.083 459.5,447C 454.316,446.826 449.316,446.326 444.5,445.5 Z"/></g>
<g><path style="opacity:1" fill="#4b4bfc" d="M 466.5,445.5 C 467.833,445.5 469.167,445.5 470.5,445.5C 481.5,445.5 492.5,445.5 503.5,445.5C 503.918,446.222 504.584,446.722 505.5,447C 505.065,452.762 504.065,458.428 502.5,464C 503.272,465.221 504.272,466.221 505.5,467C 504.687,468.314 503.687,469.481 502.5,470.5C 497.349,471.167 492.349,471.834 487.5,472.5C 474.167,472.5 460.833,472.5 447.5,472.5C 447.5,472.167 447.5,471.833 447.5,471.5C 455.84,471.666 464.173,471.5 472.5,471C 476.027,470.855 479.36,470.022 482.5,468.5C 483.833,467.5 483.833,466.5 482.5,465.5C 481.5,465 480.5,464.5 479.5,464C 481.145,458.543 482.145,452.877 482.5,447C 476.984,446.827 471.651,446.327 466.5,445.5 Z"/></g>
<g><path style="opacity:1" fill="#5858fd" d="M 503.5,445.5 C 508.833,445.5 514.167,445.5 519.5,445.5C 521.948,446.473 524.615,446.806 527.5,446.5C 527.091,453.965 527.757,461.298 529.5,468.5C 520.827,470.57 512.161,471.903 503.5,472.5C 498.167,472.5 492.833,472.5 487.5,472.5C 492.349,471.834 497.349,471.167 502.5,470.5C 503.687,469.481 504.687,468.314 505.5,467C 504.272,466.221 503.272,465.221 502.5,464C 504.065,458.428 505.065,452.762 505.5,447C 504.584,446.722 503.918,446.222 503.5,445.5 Z"/></g>
<g><path style="opacity:1" fill="#6464fd" d="M 527.5,446.5 C 536.173,446.334 544.84,446.5 553.5,447C 552.146,448.294 550.812,448.46 549.5,447.5C 548.167,452.5 548.167,457.5 549.5,462.5C 550.646,463.145 551.646,463.978 552.5,465C 550.058,465.94 547.725,467.106 545.5,468.5C 548.071,469.905 548.071,471.238 545.5,472.5C 531.5,472.5 517.5,472.5 503.5,472.5C 512.161,471.903 520.827,470.57 529.5,468.5C 527.757,461.298 527.091,453.965 527.5,446.5 Z"/></g>
<g><path style="opacity:1" fill="#6565fd" d="M 586.5,471.5 C 580.603,470.538 577.603,467.038 577.5,461C 577.9,458.1 578.566,455.267 579.5,452.5C 580.835,450.799 582.168,449.132 583.5,447.5C 591.03,446.214 598.53,446.214 606,447.5C 606.167,450.167 606.333,452.833 606.5,455.5C 606.438,458.613 605.771,461.446 604.5,464C 606.332,464.748 607.999,465.748 609.5,467C 607.192,468.867 604.525,469.867 601.5,470C 598.183,470.498 594.85,470.665 591.5,470.5C 590.039,465.213 589.372,465.547 589.5,471.5C 588.5,471.5 587.5,471.5 586.5,471.5 Z"/></g>
<g><path style="opacity:1" fill="#7070fc" d="M 585.5,445.5 C 598.167,445.5 610.833,445.5 623.5,445.5C 628.651,446.327 633.984,446.827 639.5,447C 638.207,447.49 636.873,447.657 635.5,447.5C 635.5,454.167 635.5,460.833 635.5,467.5C 630.563,467.354 629.897,468.354 633.5,470.5C 630.694,471.168 628.028,471.834 625.5,472.5C 612.323,472.829 599.323,472.495 586.5,471.5C 587.5,471.5 588.5,471.5 589.5,471.5C 589.372,465.547 590.039,465.213 591.5,470.5C 594.85,470.665 598.183,470.498 601.5,470C 604.525,469.867 607.192,468.867 609.5,467C 607.999,465.748 606.332,464.748 604.5,464C 605.771,461.446 606.438,458.613 606.5,455.5C 606.333,452.833 606.167,450.167 606,447.5C 598.53,446.214 591.03,446.214 583.5,447.5C 583.5,447.167 583.5,446.833 583.5,446.5C 583.842,445.662 584.508,445.328 585.5,445.5 Z"/></g>
<g><path style="opacity:1" fill="#7d7cfc" d="M 623.5,445.5 C 636.947,444.953 650.28,445.62 663.5,447.5C 664.474,452.651 665.474,457.984 666.5,463.5C 663.028,463.126 660.028,464.126 657.5,466.5C 658.325,467.386 659.325,467.719 660.5,467.5C 660.5,468.5 660.5,469.5 660.5,470.5C 648.936,472.271 637.27,472.937 625.5,472.5C 628.028,471.834 630.694,471.168 633.5,470.5C 629.897,468.354 630.563,467.354 635.5,467.5C 635.5,460.833 635.5,454.167 635.5,447.5C 636.873,447.657 638.207,447.49 639.5,447C 633.984,446.827 628.651,446.327 623.5,445.5 Z"/></g>
<g><path style="opacity:1" fill="#6c6cfb" d="M 519.5,445.5 C 531.171,445.333 542.838,445.5 554.5,446C 556.692,446.926 558.692,448.093 560.5,449.5C 561.598,454.092 562.265,458.759 562.5,463.5C 561.732,462.737 561.232,461.737 561,460.5C 559.33,468.927 554.163,472.927 545.5,472.5C 548.071,471.238 548.071,469.905 545.5,468.5C 547.725,467.106 550.058,465.94 552.5,465C 551.646,463.978 550.646,463.145 549.5,462.5C 548.167,457.5 548.167,452.5 549.5,447.5C 550.812,448.46 552.146,448.294 553.5,447C 544.84,446.5 536.173,446.334 527.5,446.5C 524.615,446.806 521.948,446.473 519.5,445.5 Z"/></g>
<g><path style="opacity:0.518" fill="#46459a" d="M 560.5,449.5 C 561.966,450.347 562.8,451.68 563,453.5C 563.808,457.027 563.641,460.36 562.5,463.5C 562.265,458.759 561.598,454.092 560.5,449.5 Z"/></g>
<g><path style="opacity:1" fill="#7978df" d="M 663.5,447.5 C 668.056,451.831 669.556,457.164 668,463.5C 667.208,466.106 665.708,468.106 663.5,469.5C 662.391,469.557 661.391,469.89 660.5,470.5C 660.5,469.5 660.5,468.5 660.5,467.5C 659.325,467.719 658.325,467.386 657.5,466.5C 660.028,464.126 663.028,463.126 666.5,463.5C 665.474,457.984 664.474,452.651 663.5,447.5 Z"/></g>
<g><path style="opacity:0.855" fill="#4541b5" d="M 562.5,463.5 C 561.088,468.081 558.088,471.248 553.5,473C 506.835,473.5 460.168,473.667 413.5,473.5C 412.833,473.5 412.167,473.5 411.5,473.5C 411.5,473.167 411.5,472.833 411.5,472.5C 423.5,472.5 435.5,472.5 447.5,472.5C 460.833,472.5 474.167,472.5 487.5,472.5C 492.833,472.5 498.167,472.5 503.5,472.5C 517.5,472.5 531.5,472.5 545.5,472.5C 554.163,472.927 559.33,468.927 561,460.5C 561.232,461.737 561.732,462.737 562.5,463.5 Z"/></g>
<g><path style="opacity:0.834" fill="#5856b6" d="M 583.5,446.5 C 583.5,446.833 583.5,447.167 583.5,447.5C 582.168,449.132 580.835,450.799 579.5,452.5C 578.566,455.267 577.9,458.1 577.5,461C 577.603,467.038 580.603,470.538 586.5,471.5C 599.323,472.495 612.323,472.829 625.5,472.5C 637.27,472.937 648.936,472.271 660.5,470.5C 661.391,469.89 662.391,469.557 663.5,469.5C 662.251,471.136 660.584,472.303 658.5,473C 633.833,473.667 609.167,473.667 584.5,473C 578.541,470.758 575.541,466.424 575.5,460C 575.865,456.237 577.032,452.737 579,449.5C 580.129,447.859 581.629,446.859 583.5,446.5 Z"/></g>
<g><path style="opacity:1" fill="#2422cf" d="M 384.5,446.5 C 384.5,508.833 384.5,571.167 384.5,633.5C 393.167,633.5 401.833,633.5 410.5,633.5C 410.168,579.997 410.501,526.664 411.5,473.5C 411.5,527.167 411.5,580.833 411.5,634.5C 403.01,635.657 394.343,635.824 385.5,635C 384.584,634.722 383.918,634.222 383.5,633.5C 383.168,570.998 383.501,508.664 384.5,446.5 Z"/></g>
<g><path style="opacity:1" fill="#3d3db8" d="M 429.5,489.5 C 486.665,488.335 543.999,488.168 601.5,489C 602.416,489.278 603.082,489.778 603.5,490.5C 572.848,489.564 542.181,489.23 511.5,489.5C 484.167,489.5 456.833,489.5 429.5,489.5 Z"/></g>
<g><path style="opacity:1" fill="#7474c9" d="M 630.5,489.5 C 646.328,488.339 662.328,488.172 678.5,489C 681.572,489.907 683.905,491.74 685.5,494.5C 682.856,492.372 679.856,490.872 676.5,490C 672.179,489.501 667.846,489.334 663.5,489.5C 652.5,489.5 641.5,489.5 630.5,489.5 Z"/></g>
<g><path style="opacity:1" fill="#2c2cfa" d="M 494.5,490.5 C 500.167,490.5 505.833,490.5 511.5,490.5C 517.167,490.5 522.833,490.5 528.5,490.5C 528.082,491.222 527.416,491.722 526.5,492C 527.5,492.333 528.5,492.667 529.5,493C 525.5,493.333 521.5,493.667 517.5,494C 519.764,494.236 521.931,494.736 524,495.5C 524.221,502.37 524.721,509.203 525.5,516C 525.257,516.902 524.923,517.735 524.5,518.5C 520.223,519.597 515.89,519.597 511.5,518.5C 493.852,517.602 476.185,517.269 458.5,517.5C 458.167,517.5 457.833,517.5 457.5,517.5C 468.716,516.91 480.049,516.076 491.5,515C 489.833,514.667 488.167,514.333 486.5,514C 488.384,513.784 490.051,513.117 491.5,512C 490.224,509.276 489.558,506.276 489.5,503C 489.667,500.167 489.833,497.333 490,494.5C 490.907,492.391 492.407,491.058 494.5,490.5 Z"/></g>
<g><path style="opacity:1" fill="#3939fd" d="M 528.5,490.5 C 537.5,490.5 546.5,490.5 555.5,490.5C 556.718,491.161 558.051,491.828 559.5,492.5C 558.603,492.669 557.603,493.002 556.5,493.5C 557.818,509.799 557.818,526.133 556.5,542.5C 555.978,547.351 554.978,552.018 553.5,556.5C 553.556,557.737 554.056,558.737 555,559.5C 555.17,565.196 555.67,570.862 556.5,576.5C 557.413,594.922 557.746,613.255 557.5,631.5C 550.872,632.539 540.872,632.872 527.5,632.5C 525.981,631.59 524.315,630.757 522.5,630C 524.279,623.106 525.112,615.94 525,608.5C 525.833,607.667 526.667,606.833 527.5,606C 523.915,606.038 520.249,605.538 516.5,604.5C 518.838,602.96 521.505,602.294 524.5,602.5C 524.5,601.5 524.5,600.5 524.5,599.5C 525.873,599.657 527.207,599.49 528.5,599C 532.312,595.518 535.812,591.685 539,587.5C 539.483,586.552 539.649,585.552 539.5,584.5C 540.5,584.5 541.5,584.5 542.5,584.5C 544.126,579.704 545.126,574.704 545.5,569.5C 545.5,568.833 545.5,568.167 545.5,567.5C 546.65,562.684 546.816,557.684 546,552.5C 545.626,550.509 544.793,548.842 543.5,547.5C 543.899,543.011 542.232,539.677 538.5,537.5C 537.394,534.946 536.561,532.279 536,529.5C 535.586,529.957 535.086,530.291 534.5,530.5C 531.976,528.81 529.976,526.643 528.5,524C 526.866,523.506 525.199,523.34 523.5,523.5C 524.067,521.97 524.733,520.47 525.5,519C 525.272,518.601 524.938,518.435 524.5,518.5C 524.923,517.735 525.257,516.902 525.5,516C 524.721,509.203 524.221,502.37 524,495.5C 521.931,494.736 519.764,494.236 517.5,494C 521.5,493.667 525.5,493.333 529.5,493C 528.5,492.667 527.5,492.333 526.5,492C 527.416,491.722 528.082,491.222 528.5,490.5 Z"/></g>
<g><path style="opacity:1" fill="#4343fd" d="M 555.5,490.5 C 567.518,490.168 579.518,490.501 591.5,491.5C 589.922,492.298 588.256,492.798 586.5,493C 587.167,493.333 587.833,493.667 588.5,494C 587.854,497.081 587.521,500.248 587.5,503.5C 587.554,506.939 588.22,510.106 589.5,513C 588.5,513.333 587.5,513.667 586.5,514C 587.756,514.417 588.423,515.25 588.5,516.5C 579.766,515.865 571.433,516.532 563.5,518.5C 563.5,519.5 563.5,520.5 563.5,521.5C 563.833,523.833 565.167,525.167 567.5,525.5C 573.645,526.49 579.978,526.823 586.5,526.5C 587.458,532.744 587.791,539.077 587.5,545.5C 586.325,545.281 585.325,545.614 584.5,546.5C 588.24,547.904 588.907,549.904 586.5,552.5C 583.615,552.194 580.948,552.527 578.5,553.5C 574.538,552.865 573.205,554.198 574.5,557.5C 572.836,559.981 572.336,562.647 573,565.5C 578.072,566.471 583.238,566.805 588.5,566.5C 591.338,568.306 591.005,569.306 587.5,569.5C 587.5,570.833 587.5,572.167 587.5,573.5C 591.5,574.167 591.5,574.833 587.5,575.5C 587.5,580.5 587.5,585.5 587.5,590.5C 581.074,589.88 575.074,590.547 569.5,592.5C 567.952,592.821 567.285,593.821 567.5,595.5C 566.525,597.795 565.192,599.795 563.5,601.5C 562.414,601.62 561.747,602.287 561.5,603.5C 562.1,605.468 563.433,606.468 565.5,606.5C 565.369,607.376 565.702,608.043 566.5,608.5C 573.442,607.536 580.442,607.203 587.5,607.5C 587.5,612.833 587.5,618.167 587.5,623.5C 591.5,623.833 591.5,624.167 587.5,624.5C 587.5,626.5 587.5,628.5 587.5,630.5C 591.449,630.693 591.449,631.193 587.5,632C 579.656,632.171 571.989,632.671 564.5,633.5C 552.167,633.5 539.833,633.5 527.5,633.5C 527.5,633.167 527.5,632.833 527.5,632.5C 540.872,632.872 550.872,632.539 557.5,631.5C 557.746,613.255 557.413,594.922 556.5,576.5C 555.67,570.862 555.17,565.196 555,559.5C 554.056,558.737 553.556,557.737 553.5,556.5C 554.978,552.018 555.978,547.351 556.5,542.5C 557.818,526.133 557.818,509.799 556.5,493.5C 557.603,493.002 558.603,492.669 559.5,492.5C 558.051,491.828 556.718,491.161 555.5,490.5 Z"/></g>
<g><path style="opacity:1" fill="#4c4bfa" d="M 511.5,490.5 C 511.5,490.167 511.5,489.833 511.5,489.5C 542.181,489.23 572.848,489.564 603.5,490.5C 603.67,491.822 603.337,492.989 602.5,494C 607.082,497.383 608.582,501.883 607,507.5C 605.252,509.135 604.085,511.135 603.5,513.5C 602.914,513.291 602.414,512.957 602,512.5C 601.682,514.061 600.849,515.228 599.5,516C 595.848,516.499 592.182,516.665 588.5,516.5C 588.423,515.25 587.756,514.417 586.5,514C 587.5,513.667 588.5,513.333 589.5,513C 588.22,510.106 587.554,506.939 587.5,503.5C 587.521,500.248 587.854,497.081 588.5,494C 587.833,493.667 587.167,493.333 586.5,493C 588.256,492.798 589.922,492.298 591.5,491.5C 579.518,490.501 567.518,490.168 555.5,490.5C 546.5,490.5 537.5,490.5 528.5,490.5C 522.833,490.5 517.167,490.5 511.5,490.5 Z"/></g>
<g><path style="opacity:1" fill="#6564fb" d="M 641.5,516.5 C 637.131,516.533 632.798,516.2 628.5,515.5C 625.833,514.833 624.167,513.167 623.5,510.5C 622.017,505.036 622.351,499.703 624.5,494.5C 625.5,494.5 626.5,494.5 627.5,494.5C 627.263,493.209 627.596,492.209 628.5,491.5C 634.084,490.382 639.751,490.215 645.5,491C 643.122,491.974 643.456,492.641 646.5,493C 644.833,493.333 643.167,493.667 641.5,494C 642.5,494.333 643.5,494.667 644.5,495C 643.582,501.259 643.249,507.425 643.5,513.5C 644.025,514.192 644.692,514.692 645.5,515C 643.942,515.21 642.609,515.71 641.5,516.5 Z"/></g>
<g><path style="opacity:1" fill="#7373fd" d="M 630.5,489.5 C 641.5,489.5 652.5,489.5 663.5,489.5C 666.625,490.479 669.958,490.813 673.5,490.5C 673.461,492.359 674.294,493.692 676,494.5C 677.725,499.871 677.725,505.204 676,510.5C 674.324,510.295 672.824,511.128 671.5,513C 673.76,513.549 675.426,514.716 676.5,516.5C 664.833,516.5 653.167,516.5 641.5,516.5C 642.609,515.71 643.942,515.21 645.5,515C 644.692,514.692 644.025,514.192 643.5,513.5C 643.249,507.425 643.582,501.259 644.5,495C 643.5,494.667 642.5,494.333 641.5,494C 643.167,493.667 644.833,493.333 646.5,493C 643.456,492.641 643.122,491.974 645.5,491C 639.751,490.215 634.084,490.382 628.5,491.5C 628.5,491.167 628.5,490.833 628.5,490.5C 628.842,489.662 629.508,489.328 630.5,489.5 Z"/></g>
<g><path style="opacity:1" fill="#4f4eb9" d="M 628.5,490.5 C 628.5,490.833 628.5,491.167 628.5,491.5C 627.596,492.209 627.263,493.209 627.5,494.5C 626.5,494.5 625.5,494.5 624.5,494.5C 622.351,499.703 622.017,505.036 623.5,510.5C 619.703,504.912 619.87,499.245 624,493.5C 625.129,491.859 626.629,490.859 628.5,490.5 Z"/></g>
<g><path style="opacity:1" fill="#201ffd" d="M 494.5,490.5 C 492.407,491.058 490.907,492.391 490,494.5C 489.833,497.333 489.667,500.167 489.5,503C 489.558,506.276 490.224,509.276 491.5,512C 490.051,513.117 488.384,513.784 486.5,514C 488.167,514.333 489.833,514.667 491.5,515C 480.049,516.076 468.716,516.91 457.5,517.5C 457.5,547.167 457.5,576.833 457.5,606.5C 457.369,607.376 457.702,608.043 458.5,608.5C 468.809,607.271 479.143,607.271 489.5,608.5C 489.334,613.844 489.501,619.177 490,624.5C 490.692,625.025 491.192,625.692 491.5,626.5C 490.313,627.519 489.313,628.686 488.5,630C 490.623,631.194 492.957,631.86 495.5,632C 473.836,632.5 452.169,632.667 430.5,632.5C 430.5,585.167 430.5,537.833 430.5,490.5C 451.833,490.5 473.167,490.5 494.5,490.5 Z"/></g>
<g><path style="opacity:0.867" fill="#151583" d="M 429.5,489.5 C 429.168,537.336 429.501,585.003 430.5,632.5C 430.5,633.167 430.833,633.5 431.5,633.5C 486.998,634.499 542.664,634.832 598.5,634.5C 542.668,635.665 486.668,635.832 430.5,635C 430,634.5 429.5,634 429,633.5C 428.168,585.332 428.335,537.332 429.5,489.5 Z"/></g>
<g><path style="opacity:1" fill="#2523e1" d="M 429.5,489.5 C 456.833,489.5 484.167,489.5 511.5,489.5C 511.5,489.833 511.5,490.167 511.5,490.5C 505.833,490.5 500.167,490.5 494.5,490.5C 473.167,490.5 451.833,490.5 430.5,490.5C 430.5,537.833 430.5,585.167 430.5,632.5C 429.501,585.003 429.168,537.336 429.5,489.5 Z"/></g>
<g><path style="opacity:1" fill="#7f7ef8" d="M 663.5,489.5 C 667.846,489.334 672.179,489.501 676.5,490C 679.856,490.872 682.856,492.372 685.5,494.5C 687.058,498.608 687.724,502.941 687.5,507.5C 686.99,510.674 685.323,513.008 682.5,514.5C 680.297,514.604 678.297,515.27 676.5,516.5C 675.426,514.716 673.76,513.549 671.5,513C 672.824,511.128 674.324,510.295 676,510.5C 677.725,505.204 677.725,499.871 676,494.5C 674.294,493.692 673.461,492.359 673.5,490.5C 669.958,490.813 666.625,490.479 663.5,489.5 Z"/></g>
<g><path style="opacity:0.82" fill="#514f87" d="M 685.5,494.5 C 686.966,495.347 687.8,496.68 688,498.5C 688.805,501.696 688.638,504.696 687.5,507.5C 687.724,502.941 687.058,498.608 685.5,494.5 Z"/></g>
<g><path style="opacity:1" fill="#4847ca" d="M 603.5,490.5 C 607.684,493.52 609.684,497.687 609.5,503C 609.614,508.331 607.614,512.665 603.5,516C 590.186,517.148 576.853,517.981 563.5,518.5C 571.433,516.532 579.766,515.865 588.5,516.5C 592.182,516.665 595.848,516.499 599.5,516C 600.849,515.228 601.682,514.061 602,512.5C 602.414,512.957 602.914,513.291 603.5,513.5C 604.085,511.135 605.252,509.135 607,507.5C 608.582,501.883 607.082,497.383 602.5,494C 603.337,492.989 603.67,491.822 603.5,490.5 Z"/></g>
<g><path style="opacity:1" fill="#7170d5" d="M 682.5,514.5 C 681.653,515.966 680.32,516.8 678.5,517C 662.5,517.667 646.5,517.667 630.5,517C 629.584,516.722 628.918,516.222 628.5,515.5C 632.798,516.2 637.131,516.533 641.5,516.5C 653.167,516.5 664.833,516.5 676.5,516.5C 678.297,515.27 680.297,514.604 682.5,514.5 Z"/></g>
<g><path style="opacity:1" fill="#2b2acb" d="M 511.5,518.5 C 515.89,519.597 520.223,519.597 524.5,518.5C 524.938,518.435 525.272,518.601 525.5,519C 524.733,520.47 524.067,521.97 523.5,523.5C 519.458,521.823 515.458,520.156 511.5,518.5 Z"/></g>
<g><path style="opacity:0.227" fill="#14144d" d="M 563.5,521.5 C 564.627,522.122 565.627,522.955 566.5,524C 606.335,524.167 646.002,524.667 685.5,525.5C 668.167,525.5 650.833,525.5 633.5,525.5C 611.5,525.5 589.5,525.5 567.5,525.5C 565.167,525.167 563.833,523.833 563.5,521.5 Z"/></g>
<g><path style="opacity:1" fill="#6665cf" d="M 633.5,525.5 C 650.833,525.5 668.167,525.5 685.5,525.5C 690.444,525.602 693.944,527.935 696,532.5C 697.127,538.755 696.46,544.755 694,550.5C 692.729,551.883 691.229,552.883 689.5,553.5C 689.5,552.5 689.5,551.5 689.5,550.5C 690.5,550.5 691.5,550.5 692.5,550.5C 694.079,547.766 694.745,544.1 694.5,539.5C 695.608,533.29 693.274,529.29 687.5,527.5C 683.555,526.509 679.555,526.176 675.5,526.5C 668.167,526.5 660.833,526.5 653.5,526.5C 646.646,526.824 639.979,526.491 633.5,525.5 Z"/></g>
<g><path style="opacity:1" fill="#4d4dfe" d="M 586.5,526.5 C 593.833,526.5 601.167,526.5 608.5,526.5C 608.817,533.205 609.817,539.705 611.5,546C 609.702,547.505 607.868,547.672 606,546.5C 605.075,547.047 604.242,547.713 603.5,548.5C 606.532,548.833 609.532,550 612.5,552C 603.84,552.5 595.173,552.666 586.5,552.5C 588.907,549.904 588.24,547.904 584.5,546.5C 585.325,545.614 586.325,545.281 587.5,545.5C 587.791,539.077 587.458,532.744 586.5,526.5 Z"/></g>
<g><path style="opacity:1" fill="#5454fc" d="M 608.5,526.5 C 614.167,526.5 619.833,526.5 625.5,526.5C 625.189,533.09 625.522,539.59 626.5,546C 624.941,546.98 623.274,547.813 621.5,548.5C 623.911,549.361 625.911,550.694 627.5,552.5C 611.195,553.44 594.862,553.773 578.5,553.5C 580.948,552.527 583.615,552.194 586.5,552.5C 595.173,552.666 603.84,552.5 612.5,552C 609.532,550 606.532,548.833 603.5,548.5C 604.242,547.713 605.075,547.047 606,546.5C 607.868,547.672 609.702,547.505 611.5,546C 609.817,539.705 608.817,533.205 608.5,526.5 Z"/></g>
<g><path style="opacity:1" fill="#5c5cfc" d="M 567.5,525.5 C 589.5,525.5 611.5,525.5 633.5,525.5C 639.979,526.491 646.646,526.824 653.5,526.5C 654.287,528.104 655.62,528.771 657.5,528.5C 657.83,534.868 657.496,541.202 656.5,547.5C 655.096,546.001 654.43,546.334 654.5,548.5C 655.662,550.538 657.328,551.872 659.5,552.5C 648.833,552.5 638.167,552.5 627.5,552.5C 625.911,550.694 623.911,549.361 621.5,548.5C 623.274,547.813 624.941,546.98 626.5,546C 625.522,539.59 625.189,533.09 625.5,526.5C 619.833,526.5 614.167,526.5 608.5,526.5C 601.167,526.5 593.833,526.5 586.5,526.5C 579.978,526.823 573.645,526.49 567.5,525.5 Z"/></g>
<g><path style="opacity:1" fill="#6666fe" d="M 653.5,526.5 C 660.833,526.5 668.167,526.5 675.5,526.5C 677.405,533.219 678.071,540.219 677.5,547.5C 676.022,547.238 674.689,547.571 673.5,548.5C 675.149,549.148 676.482,550.148 677.5,551.5C 671.537,552.496 665.537,552.829 659.5,552.5C 657.328,551.872 655.662,550.538 654.5,548.5C 654.43,546.334 655.096,546.001 656.5,547.5C 657.496,541.202 657.83,534.868 657.5,528.5C 655.62,528.771 654.287,528.104 653.5,526.5 Z"/></g>
<g><path style="opacity:1" fill="#6b6bf3" d="M 675.5,526.5 C 679.555,526.176 683.555,526.509 687.5,527.5C 693.274,529.29 695.608,533.29 694.5,539.5C 694.745,544.1 694.079,547.766 692.5,550.5C 691.5,550.5 690.5,550.5 689.5,550.5C 689.5,551.5 689.5,552.5 689.5,553.5C 652.573,554.493 615.573,554.827 578.5,554.5C 578.5,554.167 578.5,553.833 578.5,553.5C 594.862,553.773 611.195,553.44 627.5,552.5C 638.167,552.5 648.833,552.5 659.5,552.5C 665.537,552.829 671.537,552.496 677.5,551.5C 676.482,550.148 675.149,549.148 673.5,548.5C 674.689,547.571 676.022,547.238 677.5,547.5C 678.071,540.219 677.405,533.219 675.5,526.5 Z"/></g>
<g><path style="opacity:1" fill="#2e2cbb" d="M 523.5,523.5 C 525.199,523.34 526.866,523.506 528.5,524C 529.976,526.643 531.976,528.81 534.5,530.5C 535.086,530.291 535.586,529.957 536,529.5C 536.561,532.279 537.394,534.946 538.5,537.5C 534.129,532.127 529.129,527.461 523.5,523.5 Z"/></g>
<g><path style="opacity:1" fill="#2c27a8" d="M 538.5,537.5 C 542.232,539.677 543.899,543.011 543.5,547.5C 541.853,544.205 540.186,540.872 538.5,537.5 Z"/></g>
<g><path style="opacity:0.557" fill="#2927a4" d="M 543.5,547.5 C 544.793,548.842 545.626,550.509 546,552.5C 546.816,557.684 546.65,562.684 545.5,567.5C 545.799,560.717 545.133,554.051 543.5,547.5 Z"/></g>
<g><path style="opacity:0.58" fill="#2c2a86" d="M 575.5,562.5 C 606.57,563.294 637.903,563.794 669.5,564C 673.008,565.012 675.342,567.178 676.5,570.5C 673.924,567.377 670.59,565.543 666.5,565C 636.168,564.5 605.835,564.333 575.5,564.5C 575.5,563.833 575.5,563.167 575.5,562.5 Z"/></g>
<g><path style="opacity:1" fill="#4d4dfd" d="M 588.5,566.5 C 594.537,566.171 600.537,566.504 606.5,567.5C 607.242,568.287 608.075,568.953 609,569.5C 609.5,576.492 609.666,583.492 609.5,590.5C 607.265,590.205 605.265,590.539 603.5,591.5C 593.319,591.173 583.319,591.506 573.5,592.5C 572.167,592.5 570.833,592.5 569.5,592.5C 575.074,590.547 581.074,589.88 587.5,590.5C 587.5,585.5 587.5,580.5 587.5,575.5C 591.5,574.833 591.5,574.167 587.5,573.5C 587.5,572.167 587.5,570.833 587.5,569.5C 591.005,569.306 591.338,568.306 588.5,566.5 Z"/></g>
<g><path style="opacity:1" fill="#5252fa" d="M 578.5,553.5 C 578.5,553.833 578.5,554.167 578.5,554.5C 577.524,555.815 576.524,557.148 575.5,558.5C 576.807,559.865 576.807,561.198 575.5,562.5C 575.5,563.167 575.5,563.833 575.5,564.5C 585.987,565.494 596.654,565.828 607.5,565.5C 613.31,566.49 619.31,566.823 625.5,566.5C 625.227,568.451 625.893,569.951 627.5,571C 624.972,572.017 624.972,573.184 627.5,574.5C 626.975,575.192 626.308,575.692 625.5,576C 627.407,580.518 628.074,585.352 627.5,590.5C 621.5,590.5 615.5,590.5 609.5,590.5C 609.666,583.492 609.5,576.492 609,569.5C 608.075,568.953 607.242,568.287 606.5,567.5C 600.537,566.504 594.537,566.171 588.5,566.5C 583.238,566.805 578.072,566.471 573,565.5C 572.336,562.647 572.836,559.981 574.5,557.5C 573.205,554.198 574.538,552.865 578.5,553.5 Z"/></g>
<g><path style="opacity:1" fill="#5c5cfd" d="M 607.5,565.5 C 624.17,565.333 640.837,565.5 657.5,566C 658.361,568.321 657.361,569.487 654.5,569.5C 654.5,571.833 654.5,574.167 654.5,576.5C 655.5,576.5 656.5,576.5 657.5,576.5C 657.5,581.167 657.5,585.833 657.5,590.5C 639.523,591.431 621.523,591.765 603.5,591.5C 605.265,590.539 607.265,590.205 609.5,590.5C 615.5,590.5 621.5,590.5 627.5,590.5C 628.074,585.352 627.407,580.518 625.5,576C 626.308,575.692 626.975,575.192 627.5,574.5C 624.972,573.184 624.972,572.017 627.5,571C 625.893,569.951 625.227,568.451 625.5,566.5C 619.31,566.823 613.31,566.49 607.5,565.5 Z"/></g>
<g><path style="opacity:1" fill="#6463f6" d="M 575.5,564.5 C 605.835,564.333 636.168,564.5 666.5,565C 670.59,565.543 673.924,567.377 676.5,570.5C 676.666,575.179 676.499,579.845 676,584.5C 674.55,586.757 673.383,589.09 672.5,591.5C 671.791,592.404 670.791,592.737 669.5,592.5C 637.5,592.5 605.5,592.5 573.5,592.5C 583.319,591.506 593.319,591.173 603.5,591.5C 621.523,591.765 639.523,591.431 657.5,590.5C 657.5,585.833 657.5,581.167 657.5,576.5C 656.5,576.5 655.5,576.5 654.5,576.5C 654.5,574.167 654.5,571.833 654.5,569.5C 657.361,569.487 658.361,568.321 657.5,566C 640.837,565.5 624.17,565.333 607.5,565.5C 596.654,565.828 585.987,565.494 575.5,564.5 Z"/></g>
<g><path style="opacity:0.239" fill="#0f053d" d="M 411.5,473.5 C 412.167,473.5 412.833,473.5 413.5,473.5C 412.716,520.461 412.716,567.461 413.5,614.5C 413.333,620.167 413.167,625.833 413,631.5C 412.768,632.737 412.268,633.737 411.5,634.5C 411.5,580.833 411.5,527.167 411.5,473.5 Z"/></g>
<g><path style="opacity:1" fill="#3331bd" d="M 545.5,569.5 C 545.126,574.704 544.126,579.704 542.5,584.5C 541.5,584.5 540.5,584.5 539.5,584.5C 541.824,579.535 543.824,574.535 545.5,569.5 Z"/></g>
<g><path style="opacity:1" fill="#4b49a0" d="M 676.5,570.5 C 678.963,575.626 679.129,580.96 677,586.5C 675.951,588.618 674.451,590.284 672.5,591.5C 673.383,589.09 674.55,586.757 676,584.5C 676.499,579.845 676.666,575.179 676.5,570.5 Z"/></g>
<g><path style="opacity:0.543" fill="#2a2989" d="M 569.5,592.5 C 570.833,592.5 572.167,592.5 573.5,592.5C 605.5,592.5 637.5,592.5 669.5,592.5C 636.336,593.332 603.003,593.832 569.5,594C 568.956,594.717 568.289,595.217 567.5,595.5C 567.285,593.821 567.952,592.821 569.5,592.5 Z"/></g>
<g><path style="opacity:1" fill="#2928a0" d="M 539.5,584.5 C 539.649,585.552 539.483,586.552 539,587.5C 535.812,591.685 532.312,595.518 528.5,599C 527.207,599.49 525.873,599.657 524.5,599.5C 526.647,597.53 528.98,595.697 531.5,594C 534.031,590.642 536.698,587.476 539.5,584.5 Z"/></g>
<g><path style="opacity:0.005" fill="#000000" d="M 458.5,600.5 C 459.434,601.568 459.768,602.901 459.5,604.5C 464.363,604.181 469.03,604.514 473.5,605.5C 468.5,605.5 463.5,605.5 458.5,605.5C 458.5,603.833 458.5,602.167 458.5,600.5 Z"/></g>
<g><path style="opacity:1" fill="#2b2777" d="M 563.5,601.5 C 563.312,603.103 563.812,604.437 565,605.5C 576.424,604.346 587.924,604.18 599.5,605C 600.571,605.852 601.571,606.685 602.5,607.5C 590.197,606.582 577.864,606.248 565.5,606.5C 563.433,606.468 562.1,605.468 561.5,603.5C 561.747,602.287 562.414,601.62 563.5,601.5 Z"/></g>
<g><path style="opacity:1" fill="#2826a6" d="M 524.5,599.5 C 524.5,600.5 524.5,601.5 524.5,602.5C 521.505,602.294 518.838,602.96 516.5,604.5C 514.565,605.15 512.565,605.483 510.5,605.5C 510.5,605.167 510.5,604.833 510.5,604.5C 514.974,603.335 519.641,601.668 524.5,599.5 Z"/></g>
<g><path style="opacity:0.553" fill="#16114c" d="M 510.5,604.5 C 510.5,604.833 510.5,605.167 510.5,605.5C 509.5,605.5 508.5,605.5 507.5,605.5C 508.172,604.733 509.005,604.066 510,603.5C 510.399,603.728 510.565,604.062 510.5,604.5 Z"/></g>
<g><path style="opacity:0.84" fill="#101188" d="M 457.5,517.5 C 457.833,517.5 458.167,517.5 458.5,517.5C 458.5,545.167 458.5,572.833 458.5,600.5C 458.5,602.167 458.5,603.833 458.5,605.5C 463.5,605.5 468.5,605.5 473.5,605.5C 484.167,605.5 494.833,605.5 505.5,605.5C 489.675,606.496 473.675,606.83 457.5,606.5C 457.5,576.833 457.5,547.167 457.5,517.5 Z"/></g>
<g><path style="opacity:0.853" fill="#5150ad" d="M 683.5,612.5 C 680.829,610.163 677.829,608.329 674.5,607C 667.508,606.5 660.508,606.334 653.5,606.5C 645.648,606.175 637.982,606.508 630.5,607.5C 629.167,607.5 627.833,607.5 626.5,607.5C 626.918,606.778 627.584,606.278 628.5,606C 644.5,605.333 660.5,605.333 676.5,606C 680.008,607.012 682.342,609.178 683.5,612.5 Z"/></g>
<g><path style="opacity:1" fill="#2a2afc" d="M 516.5,604.5 C 520.249,605.538 523.915,606.038 527.5,606C 526.667,606.833 525.833,607.667 525,608.5C 525.112,615.94 524.279,623.106 522.5,630C 524.315,630.757 525.981,631.59 527.5,632.5C 527.5,632.833 527.5,633.167 527.5,633.5C 495.5,633.5 463.5,633.5 431.5,633.5C 430.833,633.5 430.5,633.167 430.5,632.5C 452.169,632.667 473.836,632.5 495.5,632C 492.957,631.86 490.623,631.194 488.5,630C 489.313,628.686 490.313,627.519 491.5,626.5C 491.192,625.692 490.692,625.025 490,624.5C 489.501,619.177 489.334,613.844 489.5,608.5C 479.143,607.271 468.809,607.271 458.5,608.5C 457.702,608.043 457.369,607.376 457.5,606.5C 473.675,606.83 489.675,606.496 505.5,605.5C 506.167,605.5 506.833,605.5 507.5,605.5C 508.5,605.5 509.5,605.5 510.5,605.5C 512.565,605.483 514.565,605.15 516.5,604.5 Z"/></g>
<g><path style="opacity:1" fill="#4c4cfa" d="M 565.5,606.5 C 577.864,606.248 590.197,606.582 602.5,607.5C 602.833,607.5 603.167,607.5 603.5,607.5C 604.08,609.749 605.413,611.415 607.5,612.5C 607.666,617.179 607.499,621.845 607,626.5C 605.562,627.9 604.729,629.567 604.5,631.5C 602.518,631.995 600.518,632.495 598.5,633C 587.172,633.5 575.838,633.667 564.5,633.5C 571.989,632.671 579.656,632.171 587.5,632C 591.449,631.193 591.449,630.693 587.5,630.5C 587.5,628.5 587.5,626.5 587.5,624.5C 591.5,624.167 591.5,623.833 587.5,623.5C 587.5,618.167 587.5,612.833 587.5,607.5C 580.442,607.203 573.442,607.536 566.5,608.5C 565.702,608.043 565.369,607.376 565.5,606.5 Z"/></g>
<g><path style="opacity:1" fill="#5e5dfb" d="M 626.5,607.5 C 627.833,607.5 629.167,607.5 630.5,607.5C 635.203,607.437 639.87,607.771 644.5,608.5C 643.899,615.289 644.566,621.789 646.5,628C 644.137,628.589 643.137,630.089 643.5,632.5C 641.901,632.232 640.568,632.566 639.5,633.5C 635.5,633.5 631.5,633.5 627.5,633.5C 625.847,633.34 624.514,632.674 623.5,631.5C 621.612,627.715 620.279,623.715 619.5,619.5C 620.33,617.172 621.163,614.838 622,612.5C 623.707,610.963 625.207,609.296 626.5,607.5 Z"/></g>
<g><path style="opacity:1" fill="#6b6bfd" d="M 630.5,607.5 C 637.982,606.508 645.648,606.175 653.5,606.5C 656.962,607.482 660.629,607.815 664.5,607.5C 664.334,612.511 664.501,617.511 665,622.5C 665.304,624.441 666.137,626.107 667.5,627.5C 665.73,628.82 665.397,630.32 666.5,632C 658.841,632.5 651.174,632.666 643.5,632.5C 643.137,630.089 644.137,628.589 646.5,628C 644.566,621.789 643.899,615.289 644.5,608.5C 639.87,607.771 635.203,607.437 630.5,607.5 Z"/></g>
<g><path style="opacity:0.984" fill="#2d2e84" d="M 603.5,607.5 C 605.587,608.585 606.92,610.251 607.5,612.5C 605.413,611.415 604.08,609.749 603.5,607.5 Z"/></g>
<g><path style="opacity:1" fill="#7776fa" d="M 653.5,606.5 C 660.508,606.334 667.508,606.5 674.5,607C 677.829,608.329 680.829,610.163 683.5,612.5C 684.167,612.5 684.5,612.833 684.5,613.5C 684.697,618.974 684.031,624.308 682.5,629.5C 682.167,630.5 681.5,631.167 680.5,631.5C 666.932,633.309 653.265,633.976 639.5,633.5C 640.568,632.566 641.901,632.232 643.5,632.5C 651.174,632.666 658.841,632.5 666.5,632C 665.397,630.32 665.73,628.82 667.5,627.5C 666.137,626.107 665.304,624.441 665,622.5C 664.501,617.511 664.334,612.511 664.5,607.5C 660.629,607.815 656.962,607.482 653.5,606.5 Z"/></g>
<g><path style="opacity:1" fill="#3c3a9a" d="M 626.5,607.5 C 625.207,609.296 623.707,610.963 622,612.5C 621.163,614.838 620.33,617.172 619.5,619.5C 620.279,623.715 621.612,627.715 623.5,631.5C 618.049,625.501 617.216,618.834 621,611.5C 622.451,609.536 624.284,608.203 626.5,607.5 Z"/></g>
<g><path style="opacity:1" fill="#5c58a7" d="M 684.5,613.5 C 687.353,619.244 686.686,624.577 682.5,629.5C 684.031,624.308 684.697,618.974 684.5,613.5 Z"/></g>
<g><path style="opacity:1" fill="#4745ba" d="M 607.5,612.5 C 609.439,616.531 609.939,620.864 609,625.5C 608.208,628.106 606.708,630.106 604.5,631.5C 604.729,629.567 605.562,627.9 607,626.5C 607.499,621.845 607.666,617.179 607.5,612.5 Z"/></g>
<g><path style="opacity:1" fill="#3c3bc9" d="M 604.5,631.5 C 603.089,633.539 601.089,634.539 598.5,634.5C 542.664,634.832 486.998,634.499 431.5,633.5C 463.5,633.5 495.5,633.5 527.5,633.5C 539.833,633.5 552.167,633.5 564.5,633.5C 575.838,633.667 587.172,633.5 598.5,633C 600.518,632.495 602.518,631.995 604.5,631.5 Z"/></g>
<g><path style="opacity:1" fill="#5250ac" d="M 680.5,631.5 C 678.779,633.694 676.445,634.861 673.5,635C 659.5,635.667 645.5,635.667 631.5,635C 629.942,634.79 628.609,634.29 627.5,633.5C 631.5,633.5 635.5,633.5 639.5,633.5C 653.265,633.976 666.932,633.309 680.5,631.5 Z"/></g>
</svg>
