<svg width="282" height="282" viewBox="0 0 282 282" fill="none" xmlns="http://www.w3.org/2000/svg">
<path d="M41.4915 103.849C41.5539 103.848 41.6162 103.848 41.6805 103.848C41.7837 103.848 41.7837 103.848 41.8889 103.848C41.9621 103.848 42.0352 103.848 42.1106 103.848C42.3583 103.848 42.6059 103.848 42.8536 103.848C43.032 103.848 43.2103 103.847 43.3887 103.847C43.8291 103.847 44.2695 103.847 44.7099 103.847C45.2372 103.846 45.7645 103.846 46.2919 103.846C47.5667 103.845 48.8415 103.844 50.1162 103.844C50.7192 103.844 51.3222 103.843 51.9252 103.843C53.989 103.842 56.0528 103.842 58.1166 103.841C58.2462 103.841 58.3758 103.841 58.5054 103.841C58.6354 103.841 58.7653 103.841 58.8952 103.841C59.1559 103.841 59.4165 103.841 59.6772 103.841C59.7741 103.841 59.7741 103.841 59.873 103.841C61.968 103.841 64.0631 103.84 66.1581 103.838C68.3727 103.837 70.5872 103.836 72.8017 103.836C73.0449 103.836 73.288 103.836 73.5311 103.836C73.591 103.836 73.6509 103.836 73.7125 103.836C74.6759 103.836 75.6393 103.835 76.6027 103.834C77.5713 103.833 78.5398 103.833 79.5083 103.833C80.0836 103.834 80.6589 103.833 81.2342 103.832C81.6188 103.832 82.0034 103.832 82.3879 103.833C82.6069 103.833 82.8258 103.833 83.0448 103.832C83.2812 103.831 83.5175 103.832 83.7539 103.833C83.8548 103.832 83.8548 103.832 83.9577 103.831C84.9626 103.838 85.8517 104.124 86.5869 104.824C87.3759 105.674 87.5594 106.549 87.5701 107.68C87.5719 107.799 87.5719 107.799 87.5738 107.921C87.5667 108.956 87.2144 109.818 86.5094 110.574C85.7695 111.265 84.8901 111.47 83.9027 111.462C83.8179 111.462 83.7331 111.462 83.6457 111.463C83.4632 111.464 83.2807 111.464 83.0981 111.463C82.8092 111.462 82.5203 111.463 82.2314 111.464C81.6708 111.466 81.1103 111.466 80.5497 111.466C79.8345 111.466 79.1194 111.467 78.4042 111.469C78.1172 111.47 77.8303 111.47 77.5433 111.469C77.4079 111.469 77.2725 111.469 77.1371 111.47C76.9724 111.47 76.8077 111.47 76.643 111.469C76.1211 111.468 76.1211 111.468 75.6569 111.69C75.4961 111.932 75.4813 112.128 75.5264 112.408C75.646 112.623 75.646 112.623 75.7875 112.8C75.809 112.865 75.8306 112.929 75.8528 112.996C75.9725 113.069 75.9725 113.069 76.1139 113.126C76.157 113.149 76.2 113.171 76.2444 113.194C76.2875 113.216 76.3306 113.238 76.375 113.261C76.4181 113.283 76.4612 113.306 76.5055 113.329C76.8029 113.463 77.0884 113.462 77.4104 113.461C77.4888 113.461 77.4888 113.461 77.5689 113.461C77.7453 113.462 77.9216 113.462 78.098 113.461C78.2253 113.461 78.3526 113.462 78.4799 113.462C78.7572 113.462 79.0346 113.462 79.3119 113.462C79.7631 113.462 80.2144 113.462 80.6656 113.463C81.3208 113.463 81.976 113.464 82.6311 113.464C83.623 113.464 84.6148 113.465 85.6067 113.466C85.8268 113.467 86.047 113.467 86.2671 113.467C86.311 113.467 86.3549 113.467 86.4001 113.467C86.4891 113.467 86.578 113.467 86.6669 113.468C86.7562 113.468 86.8455 113.468 86.9347 113.468C87.9877 113.469 89.0406 113.47 90.0936 113.471C90.1627 113.471 90.1627 113.471 90.2332 113.471C91.7267 113.473 93.2202 113.474 94.7137 113.474C96.2494 113.475 97.7851 113.476 99.3208 113.478C100.31 113.48 101.299 113.481 102.288 113.48C102.937 113.48 103.585 113.481 104.233 113.482C104.607 113.483 104.981 113.484 105.355 113.483C105.697 113.482 106.04 113.483 106.383 113.484C106.506 113.484 106.63 113.484 106.754 113.484C107.806 113.479 108.716 113.63 109.504 114.395C110.072 115.04 110.328 115.783 110.333 116.633C110.333 116.682 110.333 116.73 110.334 116.78C110.334 116.882 110.335 116.985 110.335 117.087C110.336 117.241 110.338 117.395 110.34 117.549C110.347 118.597 110.17 119.435 109.438 120.216C108.798 120.831 108.113 121.098 107.231 121.099C107.184 121.099 107.136 121.099 107.087 121.099C106.927 121.099 106.767 121.099 106.607 121.099C106.491 121.099 106.376 121.099 106.26 121.099C106.008 121.1 105.756 121.1 105.505 121.1C105.095 121.1 104.685 121.1 104.276 121.1C103.681 121.101 103.086 121.101 102.491 121.101C101.552 121.102 100.612 121.103 99.6718 121.104C99.3503 121.104 99.0288 121.105 98.7073 121.105C98.627 121.105 98.5467 121.105 98.4639 121.106C97.5492 121.107 96.6345 121.108 95.7198 121.109C95.5944 121.109 95.5944 121.109 95.4664 121.109C94.1109 121.11 92.7555 121.111 91.4 121.112C90.0088 121.112 88.6176 121.114 87.2263 121.116C86.368 121.118 85.5096 121.118 84.6513 121.118C84.0631 121.118 83.475 121.118 82.8869 121.12C82.5475 121.121 82.2081 121.121 81.8686 121.12C81.5579 121.12 81.2472 121.12 80.9364 121.122C80.824 121.122 80.7116 121.122 80.5992 121.121C79.7289 121.102 79.7289 121.102 78.9965 121.533C78.9729 121.57 78.9493 121.607 78.9249 121.645C78.8877 121.701 78.8877 121.701 78.8497 121.757C78.704 122.043 78.7089 122.338 78.7046 122.653C78.7027 122.699 78.7008 122.745 78.6988 122.792C78.6959 123.031 78.7172 123.167 78.8446 123.371C79.0751 123.59 79.2733 123.579 79.5782 123.579C79.6616 123.579 79.745 123.58 79.8309 123.58C79.924 123.58 80.0171 123.58 80.1101 123.579C80.2086 123.58 80.3071 123.58 80.4056 123.58C80.6201 123.58 80.8347 123.58 81.0493 123.58C81.3984 123.58 81.7475 123.58 82.0966 123.581C82.6035 123.581 83.1105 123.582 83.6174 123.582C84.4189 123.582 85.2203 123.583 86.0218 123.585C86.2959 123.585 86.57 123.585 86.8442 123.586C86.9127 123.586 86.9812 123.586 87.0518 123.586C87.8321 123.587 88.6124 123.588 89.3928 123.589C89.4998 123.589 89.4998 123.589 89.609 123.59C90.7645 123.591 91.9199 123.592 93.0754 123.592C94.2616 123.593 95.4478 123.594 96.6341 123.597C97.3657 123.598 98.0974 123.599 98.829 123.598C99.3307 123.598 99.8325 123.599 100.334 123.6C100.624 123.601 100.913 123.602 101.202 123.601C101.467 123.6 101.733 123.601 101.998 123.602C102.093 123.603 102.189 123.602 102.285 123.602C103.254 123.596 103.88 123.824 104.583 124.484C105.332 125.258 105.513 126.193 105.513 127.226C105.513 127.368 105.516 127.51 105.518 127.652C105.526 128.693 105.252 129.574 104.533 130.338C103.941 130.923 103.277 131.216 102.442 131.217C102.398 131.217 102.355 131.217 102.311 131.217C102.166 131.217 102.021 131.217 101.876 131.217C101.771 131.217 101.666 131.217 101.561 131.217C101.333 131.218 101.105 131.218 100.877 131.218C100.506 131.218 100.135 131.218 99.7633 131.218C99.2243 131.219 98.6854 131.219 98.1464 131.219C97.2946 131.22 96.4427 131.221 95.5908 131.222C95.2994 131.222 95.008 131.223 94.7165 131.223C94.6073 131.223 94.6073 131.223 94.4958 131.224C93.6667 131.225 92.8376 131.226 92.0084 131.227C91.9326 131.227 91.8568 131.227 91.7788 131.227C90.5504 131.229 89.322 131.229 88.0936 131.23C86.8326 131.23 85.5716 131.232 84.3106 131.234C83.5327 131.236 82.7548 131.236 81.9769 131.236C81.4438 131.236 80.9108 131.236 80.3777 131.238C80.0701 131.239 79.7625 131.239 79.4549 131.238C79.1732 131.238 78.8915 131.238 78.6098 131.24C78.508 131.24 78.4062 131.24 78.3045 131.239C77.5295 131.229 77.5295 131.229 76.8319 131.535C76.677 131.697 76.5574 131.866 76.4403 132.057C76.4095 132.107 76.3788 132.157 76.3471 132.208C76.2534 132.364 76.1628 132.522 76.0731 132.681C76.0428 132.734 76.0125 132.787 75.9813 132.842C75.9221 132.945 75.8633 133.049 75.8048 133.153C75.7518 133.245 75.6977 133.338 75.6422 133.429C75.5136 133.642 75.4611 133.744 75.4611 133.999C75.5351 134.239 75.5752 134.284 75.7875 134.407C75.9567 134.436 75.9567 134.436 76.1437 134.432C76.216 134.433 76.2884 134.433 76.363 134.434C76.4421 134.434 76.5212 134.433 76.6027 134.433C76.6863 134.434 76.7698 134.434 76.8559 134.434C77.0376 134.435 77.2193 134.436 77.401 134.436C77.6889 134.436 77.9767 134.437 78.2646 134.438C78.8244 134.441 79.3842 134.442 79.9441 134.443C80.655 134.445 81.3659 134.447 82.0768 134.45C82.3623 134.452 82.6478 134.452 82.9333 134.452C83.0687 134.453 83.2041 134.453 83.3394 134.453C83.5036 134.454 83.6678 134.454 83.832 134.454C84.9203 134.461 85.8147 134.719 86.6116 135.492C87.3721 136.32 87.5496 137.164 87.5579 138.258C87.5598 138.34 87.5617 138.422 87.5636 138.506C87.5707 139.553 87.2414 140.411 86.5264 141.172C85.8359 141.821 85.0162 142.086 84.0817 142.077C84.007 142.078 83.9323 142.078 83.8553 142.078C83.6057 142.079 83.3562 142.079 83.1067 142.078C82.9256 142.078 82.7445 142.078 82.5635 142.079C82.1702 142.08 81.777 142.08 81.3838 142.079C80.7991 142.078 80.2144 142.079 79.6297 142.079C78.5855 142.081 77.5412 142.081 76.4969 142.08C75.5833 142.079 74.6697 142.079 73.7561 142.079C73.6955 142.079 73.6349 142.079 73.5724 142.079C73.3264 142.08 73.0803 142.08 72.8343 142.08C70.5268 142.081 68.2194 142.08 65.912 142.078C63.8614 142.077 61.8108 142.077 59.7602 142.078C57.4564 142.08 55.1525 142.08 52.8487 142.08C52.6032 142.08 52.3578 142.079 52.1123 142.079C52.0518 142.079 51.9914 142.079 51.9291 142.079C51.0158 142.079 50.1024 142.079 49.189 142.08C48.1509 142.081 47.1129 142.081 46.0748 142.079C45.4936 142.078 44.9124 142.078 44.3312 142.079C43.9433 142.08 43.5554 142.08 43.1675 142.078C42.9462 142.078 42.7251 142.078 42.5038 142.079C42.2658 142.079 42.0278 142.079 41.7898 142.077C41.7208 142.078 41.6517 142.079 41.5806 142.079C41.2018 142.075 40.9598 142.051 40.668 141.783C40.4217 141.496 40.4447 141.201 40.4474 140.841C40.4471 140.778 40.4468 140.716 40.4465 140.651C40.4457 140.44 40.4463 140.229 40.4469 140.018C40.4466 139.865 40.4463 139.713 40.4458 139.56C40.445 139.185 40.4451 138.809 40.4455 138.433C40.446 137.983 40.4454 137.533 40.4447 137.083C40.4434 136.202 40.4432 135.32 40.4436 134.439C40.4439 133.667 40.4438 132.895 40.4435 132.124C40.4434 132.02 40.4434 131.917 40.4433 131.814C40.4432 131.658 40.4432 131.502 40.4431 131.346C40.4424 129.897 40.4421 128.448 40.4426 126.998C40.4426 126.944 40.4426 126.889 40.4427 126.833C40.4428 126.389 40.443 125.945 40.4432 125.501C40.4438 123.77 40.4433 122.038 40.4418 120.307C40.4401 118.362 40.4392 116.418 40.4397 114.473C40.4397 114.266 40.4398 114.059 40.4398 113.852C40.4398 113.801 40.4398 113.75 40.4398 113.697C40.44 112.926 40.4395 112.155 40.4386 111.384C40.4376 110.507 40.4376 109.63 40.4387 108.754C40.4393 108.306 40.4395 107.858 40.4384 107.411C40.4375 107.001 40.4378 106.592 40.4391 106.183C40.4394 106.034 40.4392 105.886 40.4385 105.737C40.4376 105.536 40.4384 105.335 40.4395 105.134C40.4389 105.076 40.4383 105.018 40.4376 104.958C40.4418 104.602 40.4977 104.401 40.7333 104.118C40.9738 103.907 41.1752 103.849 41.4915 103.849ZM48.0444 111.429C48.0444 119.033 48.0444 126.638 48.0444 134.472C51.1303 134.48 51.1303 134.48 54.2785 134.489C54.9253 134.491 55.5722 134.493 56.2387 134.496C56.8243 134.497 56.8243 134.497 57.4098 134.497C57.6684 134.497 57.9269 134.498 58.1854 134.5C61.7227 134.519 64.8651 133.87 67.4972 131.339C67.5313 131.307 67.5655 131.275 67.6006 131.242C69.6779 129.282 70.9609 126.518 71.0957 123.657C71.1876 120.387 70.0914 117.385 67.8543 114.994C66.9331 114.028 65.8723 113.283 64.6903 112.669C64.6515 112.649 64.6127 112.629 64.5727 112.608C62.7537 111.662 60.7599 111.417 58.738 111.422C58.619 111.422 58.4999 111.422 58.3809 111.422C58.0645 111.422 57.748 111.422 57.4316 111.423C57.1338 111.423 56.8359 111.423 56.5381 111.423C55.6693 111.423 54.8005 111.424 53.9317 111.425C51.0175 111.427 51.0175 111.427 48.0444 111.429Z" fill="#3C3CFF"/>
<path d="M28.4611 92.3027C32.6527 92.3005 36.8443 92.2984 41.0358 92.2972C41.1289 92.2972 41.1289 92.2972 41.2238 92.2972C42.5718 92.2968 43.9197 92.2964 45.2677 92.2961C45.9287 92.2959 46.5898 92.2957 47.2508 92.2956C47.3166 92.2956 47.3824 92.2955 47.4501 92.2955C49.5827 92.295 51.7152 92.294 53.8478 92.2928C56.0391 92.2916 58.2303 92.2908 60.4216 92.2905C60.7311 92.2904 61.0405 92.2904 61.3499 92.2904C61.4413 92.2903 61.4413 92.2903 61.5345 92.2903C62.5152 92.2902 63.496 92.2896 64.4767 92.2888C65.4624 92.288 66.4482 92.2877 67.4339 92.2879C68.0197 92.288 68.6055 92.2878 69.1913 92.287C69.5826 92.2865 69.9739 92.2865 70.3652 92.2868C70.5882 92.287 70.8111 92.287 71.0341 92.2864C71.2745 92.2859 71.5148 92.2862 71.7552 92.2867C71.8241 92.2863 71.8931 92.286 71.9642 92.2856C72.9766 92.2902 73.8714 92.5691 74.6125 93.2819C75.4383 94.1755 75.6438 95.2218 75.6 96.406C75.5371 97.4627 75.1464 98.3714 74.3514 99.0916C73.6368 99.6357 72.9304 99.8856 72.0421 99.883C71.9799 99.8831 71.9176 99.8832 71.8535 99.8832C71.6439 99.8834 71.4343 99.8831 71.2247 99.8828C71.0737 99.8828 70.9227 99.8829 70.7718 99.883C70.399 99.8831 70.0263 99.8829 69.6535 99.8826C69.201 99.8823 68.7485 99.8823 68.296 99.8824C67.4648 99.8825 66.6336 99.8823 65.8025 99.8819C64.6787 99.8813 63.5548 99.8812 62.431 99.8811C59.7284 99.8808 57.0259 99.8799 54.3234 99.879C48.2877 99.8777 42.252 99.8764 36.0333 99.875C36.0333 113.791 36.0333 127.707 36.0333 142.044C29.1139 142.044 29.1139 142.044 28.7222 141.783C28.5012 141.478 28.453 141.221 28.453 140.85C28.4529 140.779 28.4527 140.709 28.4526 140.636C28.4527 140.558 28.4529 140.48 28.4531 140.4C28.453 140.317 28.4529 140.234 28.4529 140.149C28.4527 139.918 28.4529 139.687 28.4531 139.456C28.4534 139.205 28.4532 138.954 28.4531 138.703C28.453 138.262 28.4531 137.822 28.4533 137.382C28.4537 136.727 28.4538 136.072 28.4537 135.417C28.4536 134.316 28.4538 133.215 28.4542 132.113C28.4546 131.023 28.4549 129.932 28.4549 128.841C28.4549 128.773 28.4549 128.706 28.4549 128.636C28.455 128.292 28.455 127.947 28.455 127.603C28.4551 125.164 28.4556 122.726 28.4562 120.287C28.4568 117.917 28.4573 115.547 28.4575 113.178C28.4576 113.105 28.4576 113.032 28.4576 112.957C28.4577 112.223 28.4577 111.49 28.4578 110.757C28.458 109.263 28.4582 107.769 28.4584 106.276C28.4584 106.207 28.4584 106.138 28.4584 106.068C28.459 101.479 28.46 96.891 28.4611 92.3027Z" fill="#3030FF"/>
<path d="M157.646 94.0653C161.006 94.0653 164.367 94.0653 167.829 94.0653C168.069 94.7047 168.306 95.3426 168.53 95.9874C168.572 96.1105 168.615 96.2335 168.658 96.3566C168.703 96.4859 168.748 96.6152 168.793 96.7446C168.888 97.0167 168.983 97.2887 169.078 97.5607C169.094 97.6066 169.11 97.6526 169.126 97.7C169.159 97.7933 169.191 97.8865 169.224 97.9798C169.289 98.1671 169.354 98.3544 169.42 98.5416C169.483 98.7246 169.547 98.9076 169.611 99.0906C169.641 99.1768 169.671 99.2629 169.701 99.349C170.361 101.241 171.031 103.128 171.736 105.004C171.995 105.695 172.251 106.386 172.507 107.078C172.59 107.304 172.674 107.531 172.758 107.758C173.151 108.82 173.544 109.882 173.937 110.945C174.212 111.691 174.489 112.438 174.765 113.184C175.015 113.856 175.263 114.528 175.512 115.201C175.605 115.453 175.699 115.705 175.792 115.957C176.691 118.379 177.532 120.82 178.377 123.261C178.401 123.328 178.424 123.395 178.448 123.464C178.471 123.53 178.494 123.596 178.517 123.664C178.54 123.729 178.562 123.794 178.585 123.861C178.631 123.991 178.676 124.122 178.721 124.252C179.075 125.275 179.436 126.296 179.798 127.316C180.193 128.427 180.579 129.539 180.962 130.653C180.99 130.735 181.018 130.816 181.047 130.899C181.075 130.98 181.102 131.061 181.131 131.144C181.526 132.292 181.925 133.44 182.328 134.586C182.487 135.041 182.647 135.496 182.806 135.951C182.85 136.078 182.895 136.205 182.939 136.332C182.954 136.375 182.969 136.417 182.984 136.46C182.999 136.503 183.014 136.546 183.029 136.589C183.119 136.848 183.21 137.106 183.3 137.364C183.582 138.17 183.864 138.976 184.149 139.781C184.168 139.835 184.187 139.888 184.207 139.944C184.292 140.183 184.377 140.421 184.462 140.66C184.504 140.779 184.504 140.779 184.548 140.901C184.572 140.968 184.596 141.035 184.621 141.105C184.671 141.261 184.671 141.261 184.671 141.392C181.849 141.392 179.027 141.392 176.119 141.392C175.732 140.228 175.344 139.065 174.944 137.867C174.646 137.017 174.347 136.168 174.044 135.32C173.783 134.591 173.528 133.861 173.273 133.13C172.696 131.481 172.11 129.835 171.519 128.192C171.266 127.488 171.013 126.784 170.761 126.08C170.552 125.497 170.343 124.913 170.133 124.329C170.076 124.168 170.018 124.007 169.96 123.846C169.22 121.782 168.478 119.719 167.727 117.659C167.193 116.192 166.663 114.725 166.132 113.257C162.901 113.235 159.669 113.214 156.34 113.192C156.297 113.321 156.254 113.45 156.21 113.583C156.148 113.719 156.083 113.854 156.017 113.989C155.978 114.068 155.939 114.148 155.9 114.228C155.879 114.269 155.859 114.311 155.837 114.354C155.461 115.12 155.096 115.89 154.745 116.668C154.715 116.733 154.715 116.733 154.685 116.801C154.604 116.98 154.523 117.16 154.442 117.34C154.193 117.892 153.941 118.442 153.688 118.993C153.623 119.135 153.559 119.277 153.494 119.419C153.437 119.542 153.381 119.666 153.324 119.789C153.176 120.114 153.028 120.439 152.881 120.764C149.8 120.764 146.72 120.764 143.546 120.764C143.807 120.241 144.072 119.738 144.37 119.238C145.151 117.911 145.864 116.548 146.583 115.187C146.843 114.695 147.104 114.205 147.365 113.714C147.649 113.179 147.933 112.645 148.216 112.11C148.24 112.063 148.265 112.016 148.291 111.968C148.341 111.874 148.39 111.779 148.44 111.685C148.465 111.638 148.49 111.591 148.515 111.543C148.54 111.497 148.564 111.451 148.589 111.403C148.967 110.689 149.348 109.977 149.73 109.266C150.015 108.733 150.295 108.198 150.573 107.662C150.823 107.182 151.081 106.708 151.342 106.234C151.627 105.714 151.9 105.188 152.172 104.661C152.401 104.218 152.636 103.779 152.876 103.343C153.21 102.737 153.529 102.124 153.846 101.509C154.086 101.044 154.333 100.582 154.586 100.124C154.895 99.5633 155.185 98.9948 155.469 98.421C155.66 98.0359 155.856 97.6547 156.059 97.2762C156.515 96.4222 156.928 95.5449 157.348 94.6727C157.446 94.4695 157.545 94.2671 157.646 94.0653ZM162.215 100.136C162.092 100.399 161.969 100.661 161.846 100.924C161.801 101.019 161.756 101.115 161.711 101.21C161.483 101.695 161.256 102.18 161.033 102.667C160.519 103.787 159.98 104.893 159.436 105.999C159.406 106.061 159.375 106.123 159.344 106.187C159.286 106.304 159.229 106.421 159.171 106.537C159.132 106.617 159.132 106.617 159.092 106.698C159.069 106.743 159.047 106.789 159.024 106.836C158.929 107.038 158.843 107.243 158.756 107.447C160.716 107.447 162.676 107.447 164.696 107.447C164.582 107.031 164.471 106.626 164.336 106.218C164.321 106.172 164.306 106.126 164.29 106.079C164.241 105.93 164.192 105.78 164.142 105.631C164.107 105.525 164.072 105.419 164.037 105.312C163.945 105.033 163.853 104.754 163.76 104.475C163.596 103.979 163.433 103.483 163.269 102.987C163.252 102.934 163.234 102.881 163.216 102.827C162.921 101.932 162.63 101.035 162.346 100.136C162.303 100.136 162.26 100.136 162.215 100.136Z" fill="black"/>
<path d="M140.16 96.501C140.266 96.6029 140.372 96.7049 140.478 96.8069C140.545 96.8594 140.612 96.912 140.682 96.9661C140.978 97.2304 141.214 97.5378 141.457 97.8514C141.535 97.9512 141.535 97.9512 141.615 98.0531C143.04 99.9294 143.682 102.264 143.938 104.575C143.946 104.653 143.955 104.73 143.964 104.81C144.319 108.826 143.335 113.299 140.739 116.456C138.309 119.32 135.139 120.342 131.503 120.66C130.422 120.746 129.343 120.773 128.259 120.771C128.126 120.771 127.994 120.771 127.861 120.771C127.505 120.771 127.15 120.771 126.794 120.771C126.421 120.77 126.047 120.77 125.674 120.77C124.969 120.77 124.264 120.769 123.558 120.769C122.755 120.768 121.951 120.767 121.148 120.767C119.497 120.766 117.846 120.765 116.194 120.764C116.215 120.488 116.235 120.212 116.255 119.936C116.263 119.821 116.263 119.821 116.272 119.703C116.31 119.183 116.353 118.664 116.4 118.145C116.407 118.065 116.414 117.984 116.422 117.901C116.43 117.805 116.43 117.805 116.439 117.707C117.016 111.245 117.263 104.726 117.435 94.0653C117.501 94.0656 117.568 94.0659 117.637 94.0662C118.5 94.0698 119.362 94.0721 120.225 94.0734C120.33 94.0736 120.33 94.0736 120.437 94.0738C122.398 94.0765 124.357 94.0591 126.317 94C126.42 93.9969 126.522 93.9939 126.625 93.9908C126.676 93.9893 126.726 93.9878 126.778 93.9862C127.025 93.9789 127.273 93.9716 127.52 93.9643C127.567 93.9629 127.614 93.9615 127.662 93.9601C137.066 93.684 137.066 93.684 140.16 96.501ZM126.065 99.7735C126.014 99.776 125.962 99.7786 125.909 99.7812C125.704 99.7929 125.529 99.8096 125.333 99.875C125.277 101.12 125.221 102.366 125.165 103.611C125.139 104.19 125.113 104.769 125.086 105.348C125.056 106.02 125.026 106.693 124.995 107.365C124.993 107.421 124.991 107.476 124.988 107.533C124.879 109.963 124.778 112.393 124.681 114.824C127.101 115.242 130.38 115.136 132.449 113.714C134.323 112.299 135.102 110.166 135.423 107.909C135.472 107.443 135.467 106.973 135.468 106.505C135.468 106.455 135.468 106.406 135.468 106.355C135.467 105.614 135.439 104.904 135.256 104.183C135.245 104.14 135.234 104.096 135.223 104.052C134.975 103.089 134.562 102.178 133.885 101.442C133.839 101.391 133.794 101.34 133.747 101.288C132.684 100.161 131.112 99.7938 129.607 99.7384C129.436 99.7359 129.266 99.7354 129.095 99.7358C129.032 99.7357 128.97 99.7356 128.905 99.7356C128.773 99.7355 128.64 99.7357 128.508 99.7359C128.31 99.7363 128.112 99.7359 127.914 99.7355C127.297 99.7353 126.682 99.7425 126.065 99.7735Z" fill="black"/>
<path d="M214.111 94.0653C217.17 94.0653 220.229 94.0653 223.381 94.0653C223.673 94.651 223.673 94.651 223.78 94.9027C223.804 94.9594 223.829 95.016 223.854 95.0743C223.892 95.1646 223.892 95.1646 223.931 95.2566C224.423 96.3972 224.941 97.5264 225.502 98.6348C226.145 99.9073 226.73 101.207 227.288 102.518C227.322 102.597 227.355 102.675 227.39 102.756C227.419 102.825 227.449 102.894 227.479 102.966C227.557 103.148 227.557 103.148 227.689 103.335C228.137 102.571 228.583 101.807 229.015 101.034C229.379 100.385 229.762 99.7483 230.15 99.1135C230.197 99.0361 230.245 98.9587 230.292 98.8813C230.315 98.8435 230.338 98.8057 230.362 98.7667C230.573 98.4201 230.78 98.0709 230.985 97.7209C231.354 97.0932 231.731 96.4706 232.111 95.8494C232.176 95.7421 232.176 95.7421 232.243 95.6328C232.287 95.5647 232.331 95.4966 232.376 95.4264C232.483 95.252 232.553 95.0858 232.616 94.8914C232.739 94.557 232.879 94.279 233.172 94.0653C233.78 93.8699 234.466 93.9327 235.097 93.9528C235.353 93.9598 235.609 93.9604 235.866 93.9617C236.35 93.9652 236.834 93.9742 237.319 93.9854C237.87 93.9978 238.422 94.0039 238.974 94.0095C240.108 94.0211 241.242 94.0406 242.376 94.0653C242.279 94.3183 242.165 94.5264 242.012 94.7507C241.966 94.8197 241.919 94.8886 241.871 94.9596C241.822 95.0307 241.774 95.1018 241.724 95.175C241.631 95.3124 241.538 95.4497 241.445 95.5871C241.346 95.7327 241.247 95.8782 241.148 96.0237C241.094 96.1034 241.04 96.1831 240.986 96.2628C240.874 96.4277 240.762 96.5926 240.65 96.7575C240.413 97.1061 240.177 97.4548 239.94 97.8035C239.811 97.9936 239.682 98.1836 239.553 98.3737C239.501 98.4498 239.45 98.526 239.398 98.6021C238.468 99.973 237.538 101.344 236.607 102.715C236.582 102.752 236.556 102.79 236.53 102.829C236.478 102.905 236.427 102.981 236.375 103.057C236.245 103.248 236.116 103.44 235.986 103.631C235.736 103.999 235.486 104.368 235.235 104.736C234.949 105.157 234.664 105.577 234.379 105.998C234.272 106.156 234.165 106.314 234.058 106.473C232.359 108.561 232.359 108.561 231.305 110.921C231.301 110.972 231.296 111.024 231.291 111.077C231.273 111.316 231.26 111.556 231.25 111.795C231.247 111.848 231.245 111.901 231.243 111.956C231.235 112.131 231.228 112.306 231.22 112.481C231.215 112.606 231.209 112.731 231.204 112.857C231.192 113.121 231.181 113.385 231.17 113.65C231.159 113.913 231.147 114.176 231.136 114.439C231.044 116.547 230.966 118.655 230.887 120.764C228.044 120.764 225.2 120.764 222.271 120.764C222.401 119.197 222.401 119.197 222.443 118.698C222.704 115.614 222.704 115.614 222.897 112.525C222.911 112.252 222.926 111.98 222.946 111.707C223.042 110.427 222.868 109.574 222.139 108.493C221.923 108.163 221.738 107.817 221.549 107.472C221.473 107.335 221.396 107.199 221.32 107.063C221.283 106.997 221.245 106.93 221.207 106.862C221.029 106.545 220.85 106.229 220.672 105.913C220.262 105.189 219.855 104.463 219.449 103.737C219.258 103.396 219.067 103.055 218.876 102.715C218.647 102.305 218.418 101.896 218.189 101.486C217.821 100.829 217.452 100.172 217.081 99.516C216.788 98.9972 216.495 98.4777 216.204 97.9575C216.166 97.89 216.128 97.8224 216.089 97.7528C215.895 97.4057 215.701 97.0585 215.507 96.7111C215.43 96.5717 215.352 96.4323 215.274 96.2929C215.236 96.2257 215.199 96.1584 215.16 96.0891C214.98 95.7677 214.799 95.4477 214.612 95.1302C214.578 95.0728 214.545 95.0154 214.51 94.9562C214.447 94.8493 214.384 94.7427 214.32 94.6363C214.292 94.5894 214.265 94.5425 214.236 94.4942C214.212 94.4537 214.187 94.4131 214.162 94.3713C214.111 94.2612 214.111 94.2612 214.111 94.0653Z" fill="black"/>
<path d="M194.593 94.0653C197.458 94.0653 200.323 94.0653 203.275 94.0653C203.275 95.1889 203.275 95.1889 203.241 95.6464C203.238 95.6997 203.234 95.7529 203.23 95.8078C203.222 95.9231 203.214 96.0384 203.206 96.1536C203.193 96.344 203.18 96.5344 203.167 96.7248C203.148 97.0061 203.129 97.2874 203.109 97.5687C202.895 100.715 202.716 103.863 202.55 107.013C202.535 107.285 202.521 107.558 202.506 107.831C202.473 108.456 202.441 109.081 202.408 109.706C202.401 109.848 202.393 109.991 202.386 110.134C202.331 111.171 202.285 112.209 202.253 113.247C202.236 113.796 202.21 114.342 202.165 114.889C203.153 114.89 204.141 114.892 205.128 114.892C205.587 114.893 206.046 114.893 206.505 114.894C208.379 114.897 210.252 114.898 212.125 114.847C212.233 114.844 212.341 114.841 212.449 114.838C212.526 114.836 212.526 114.836 212.604 114.834C213.171 114.819 213.739 114.821 214.307 114.824C214.26 115.957 214.183 117.088 214.101 118.219C214.082 118.48 214.063 118.741 214.045 119.002C214.031 119.205 214.016 119.407 214.001 119.61C213.994 119.706 213.987 119.803 213.981 119.899C213.971 120.033 213.961 120.166 213.952 120.3C213.946 120.375 213.941 120.451 213.935 120.529C213.915 120.699 213.915 120.699 213.85 120.764C213.739 120.77 213.628 120.772 213.517 120.772C213.408 120.772 213.408 120.772 213.297 120.772C213.216 120.772 213.135 120.772 213.052 120.772C212.966 120.772 212.881 120.772 212.794 120.772C212.556 120.772 212.319 120.772 212.082 120.771C211.826 120.771 211.571 120.771 211.316 120.771C210.873 120.771 210.43 120.771 209.987 120.771C209.346 120.77 208.706 120.77 208.065 120.77C207.026 120.77 205.987 120.769 204.948 120.769C203.939 120.768 202.929 120.768 201.92 120.768C201.857 120.767 201.795 120.767 201.731 120.767C201.419 120.767 201.107 120.767 200.795 120.767C198.206 120.767 195.616 120.765 193.026 120.764C193.047 120.525 193.068 120.285 193.088 120.046C193.094 119.979 193.1 119.912 193.106 119.843C193.152 119.312 193.203 118.782 193.256 118.252C193.786 112.892 194.138 107.519 194.509 96.1791C194.51 96.1134 194.511 96.0476 194.512 95.9799C194.513 95.8623 194.514 95.7448 194.515 95.6272C194.522 95.1037 194.56 94.5905 194.593 94.0653Z" fill="black"/>
<path d="M180.754 94.0653C183.662 94.0653 186.57 94.0653 189.567 94.0653C189.567 94.9461 189.567 94.9461 189.535 95.3661C189.531 95.4123 189.528 95.4585 189.524 95.506C189.517 95.6054 189.51 95.7048 189.502 95.8041C189.49 95.9653 189.478 96.1264 189.466 96.2876C189.449 96.5209 189.431 96.7542 189.414 96.9876C189.001 102.565 188.768 108.153 188.565 117.666C188.564 117.715 188.563 117.764 188.563 117.814C188.547 118.797 188.535 119.781 188.522 120.764C185.593 120.764 182.663 120.764 179.644 120.764C179.719 119.267 179.719 119.267 179.754 118.767C179.758 118.709 179.762 118.65 179.766 118.59C179.774 118.465 179.783 118.34 179.791 118.216C179.815 117.869 179.838 117.522 179.861 117.175C179.869 117.066 179.869 117.066 179.876 116.954C180.115 113.395 180.329 109.835 180.493 106.272C180.496 106.214 180.498 106.156 180.501 106.096C180.61 103.716 180.687 101.335 180.715 98.952C180.716 98.8809 180.717 98.8099 180.718 98.7367C180.736 97.1796 180.744 95.6225 180.754 94.0653Z" fill="black"/>
<path d="M123.366 125.057C123.529 125.056 123.693 125.055 123.856 125.054C126.02 125.035 128.224 125.15 129.968 126.574C130.013 126.608 130.058 126.643 130.105 126.678C131.463 127.772 132.114 129.698 132.306 131.376C132.335 131.76 132.334 132.145 132.334 132.53C132.334 132.577 132.334 132.623 132.335 132.671C132.333 133.438 132.287 134.178 132.122 134.929C132.111 134.98 132.101 135.031 132.089 135.084C131.647 137.095 130.637 138.963 128.885 140.112C126.824 141.417 124.439 141.403 122.078 141.398C121.843 141.398 121.608 141.398 121.373 141.398C120.929 141.398 120.486 141.397 120.042 141.396C119.537 141.396 119.031 141.395 118.526 141.395C117.488 141.394 116.449 141.393 115.411 141.392C115.432 141.11 115.453 140.829 115.473 140.547C115.479 140.468 115.485 140.389 115.491 140.308C115.522 139.884 115.555 139.461 115.59 139.038C115.976 134.417 116.071 129.771 116.194 125.137C116.315 125.138 116.315 125.138 116.438 125.138C118.363 125.148 118.363 125.148 120.288 125.109C121.313 125.075 122.339 125.061 123.366 125.057ZM121.025 128.662C120.951 129.03 120.938 129.396 120.922 129.769C120.919 129.84 120.916 129.912 120.913 129.985C120.902 130.221 120.892 130.457 120.882 130.693C120.875 130.858 120.868 131.023 120.86 131.188C120.845 131.534 120.83 131.88 120.815 132.226C120.798 132.624 120.781 133.021 120.763 133.418C120.746 133.802 120.73 134.187 120.713 134.572C120.706 134.734 120.699 134.896 120.692 135.059C120.652 135.952 120.622 136.842 120.633 137.736C120.958 137.899 121.444 137.817 121.808 137.818C121.859 137.818 121.909 137.818 121.962 137.818C123.269 137.817 124.462 137.718 125.529 136.887C125.584 136.846 125.639 136.805 125.695 136.763C126.684 135.922 127.047 134.446 127.148 133.204C127.223 131.92 127.002 130.656 126.194 129.621C125.541 128.905 124.571 128.667 123.636 128.597C123.372 128.588 123.109 128.588 122.845 128.589C122.737 128.589 122.737 128.589 122.628 128.589C122.091 128.592 121.56 128.614 121.025 128.662Z" fill="black"/>
<path d="M232.902 125.057C233.065 125.056 233.229 125.055 233.392 125.054C235.466 125.036 237.877 125.092 239.504 126.574C239.556 126.615 239.607 126.657 239.661 126.7C241.022 127.837 241.673 129.683 241.854 131.404C241.878 131.781 241.88 132.157 241.879 132.534C241.879 132.586 241.878 132.637 241.878 132.69C241.869 135.009 241.248 137.27 239.7 139.042C239.661 139.086 239.623 139.131 239.583 139.176C237.974 140.893 235.739 141.274 233.499 141.392C232.87 141.411 232.242 141.408 231.613 141.405C231.377 141.404 231.142 141.404 230.907 141.404C230.463 141.403 230.02 141.402 229.577 141.401C229.071 141.4 228.566 141.399 228.06 141.398C227.022 141.397 225.985 141.395 224.947 141.392C224.951 141.347 224.955 141.302 224.959 141.256C225.14 139.102 225.315 136.949 225.409 134.789C225.419 134.563 225.43 134.337 225.44 134.111C225.578 131.121 225.672 128.13 225.731 125.137C225.851 125.138 225.851 125.138 225.974 125.139C227.899 125.148 227.899 125.148 229.824 125.109C230.849 125.075 231.875 125.061 232.902 125.057ZM230.561 128.662C230.513 129.152 230.48 129.64 230.458 130.131C230.455 130.202 230.452 130.273 230.449 130.346C230.438 130.58 230.428 130.813 230.418 131.046C230.411 131.21 230.404 131.374 230.396 131.537C230.381 131.879 230.366 132.222 230.351 132.564C230.336 132.914 230.321 133.264 230.305 133.613C230.286 134.038 230.268 134.462 230.249 134.887C230.242 135.048 230.235 135.209 230.228 135.369C230.174 136.552 230.174 136.552 230.169 137.736C230.494 137.898 230.978 137.817 231.34 137.818C231.416 137.818 231.416 137.818 231.493 137.818C232.956 137.816 234.271 137.685 235.391 136.635C236.421 135.531 236.738 133.907 236.714 132.442C236.64 131.295 236.323 130.17 235.463 129.356C234.576 128.667 233.46 128.584 232.381 128.589C232.273 128.589 232.273 128.589 232.164 128.589C231.627 128.592 231.096 128.614 230.561 128.662Z" fill="black"/>
<path d="M84.2889 92.2774C84.4547 92.2771 84.6206 92.2768 84.7865 92.2763C85.1884 92.2755 85.5902 92.2757 85.9921 92.2762C86.319 92.2767 86.6459 92.2767 86.9728 92.2765C87.0196 92.2765 87.0663 92.2765 87.1144 92.2764C87.2093 92.2764 87.3043 92.2763 87.3992 92.2762C88.2872 92.2757 89.1752 92.2763 90.0632 92.2774C90.8234 92.2782 91.5836 92.2781 92.3438 92.2772C93.2289 92.2761 94.1139 92.2757 94.999 92.2763C95.0935 92.2764 95.1881 92.2765 95.2826 92.2765C95.3524 92.2766 95.3524 92.2766 95.4236 92.2766C95.7497 92.2768 96.0759 92.2765 96.402 92.276C96.8418 92.2754 97.2816 92.2759 97.7213 92.277C97.8822 92.2772 98.0431 92.2772 98.204 92.2767C99.6549 92.2732 100.906 92.3676 102.003 93.4344C102.842 94.3647 103.054 95.3806 103.017 96.5882C102.999 96.9004 102.931 97.1717 102.812 97.4597C102.786 97.5237 102.76 97.5877 102.733 97.6537C102.509 98.1453 102.216 98.5177 101.833 98.8958C101.798 98.9326 101.763 98.9693 101.726 99.0072C101.033 99.6703 100.117 99.8951 99.1893 99.8924C99.1148 99.8927 99.0403 99.893 98.9636 99.8933C98.7146 99.8941 98.4656 99.894 98.2166 99.8939C98.0378 99.8942 97.859 99.8947 97.6803 99.8952C97.2454 99.8963 96.8105 99.8967 96.3756 99.8968C96.0219 99.8968 95.6681 99.8971 95.3144 99.8975C94.3104 99.8986 93.3063 99.8993 92.3022 99.8992C92.2482 99.8991 92.1941 99.8991 92.1384 99.8991C92.0842 99.8991 92.0301 99.8991 91.9743 99.8991C91.0973 99.8991 90.2203 99.9003 89.3433 99.9022C88.4417 99.904 87.5401 99.9049 86.6384 99.9048C86.1327 99.9048 85.6269 99.9051 85.1212 99.9065C84.6905 99.9077 84.2598 99.908 83.8292 99.9071C83.6097 99.9067 83.3903 99.9068 83.1709 99.9078C81.8857 99.9133 80.8434 99.8643 79.851 98.9447C79.0932 98.127 78.8632 97.2247 78.9004 96.137C78.9677 94.917 79.5721 94.0155 80.4385 93.2107C81.5595 92.269 82.9034 92.2736 84.2889 92.2774Z" fill="#7171FF"/>
<path d="M209.999 125.137C214.393 125.137 218.788 125.137 223.315 125.137C223.271 126.335 223.205 127.532 223.119 128.728C220.47 128.728 217.82 128.728 215.09 128.728C215.09 129.115 215.09 129.503 215.09 129.903C215.083 130.129 215.075 130.354 215.062 130.58C215.059 130.632 215.057 130.683 215.054 130.737C215.041 130.967 215.021 131.182 214.96 131.404C215.053 131.403 215.053 131.403 215.147 131.402C215.739 131.394 216.33 131.386 216.921 131.379C217.225 131.375 217.529 131.371 217.833 131.367C219.138 131.349 220.443 131.333 221.749 131.339C221.768 132.11 221.707 132.875 221.651 133.644C221.633 133.885 221.616 134.126 221.598 134.367C221.59 134.486 221.581 134.606 221.572 134.726C221.567 134.803 221.567 134.803 221.561 134.882C221.558 134.919 221.556 134.956 221.553 134.994C221.451 134.995 221.451 134.995 221.348 134.996C220.704 135.003 220.061 135.01 219.418 135.017C219.087 135.02 218.757 135.024 218.426 135.027C218.106 135.03 217.786 135.033 217.466 135.037C217.345 135.038 217.224 135.04 217.103 135.041C216.931 135.042 216.759 135.044 216.588 135.046C216.539 135.047 216.491 135.047 216.441 135.047C215.88 135.055 215.326 135.094 214.764 135.125C214.721 136.008 214.678 136.891 214.633 137.801C218.682 137.819 218.682 137.819 222.728 137.671C222.696 138.512 222.655 139.352 222.606 140.192C222.6 140.29 222.594 140.388 222.589 140.486C222.581 140.625 222.573 140.763 222.565 140.902C222.56 140.982 222.555 141.062 222.55 141.145C222.532 141.326 222.532 141.326 222.467 141.392C222.296 141.398 222.127 141.4 221.956 141.399C221.902 141.4 221.847 141.4 221.792 141.4C221.609 141.4 221.426 141.399 221.243 141.399C221.112 141.399 220.982 141.399 220.851 141.399C220.496 141.399 220.14 141.399 219.784 141.398C219.413 141.398 219.042 141.398 218.671 141.398C217.967 141.398 217.264 141.397 216.56 141.396C215.759 141.396 214.959 141.395 214.158 141.395C212.51 141.394 210.863 141.393 209.215 141.392C209.21 140.637 209.21 140.637 209.242 140.297C209.248 140.232 209.254 140.167 209.26 140.1C209.267 140.031 209.273 139.963 209.28 139.892C209.294 139.739 209.308 139.587 209.321 139.434C209.329 139.354 209.336 139.274 209.344 139.192C209.582 136.58 209.725 133.966 209.837 131.345C209.843 131.202 209.85 131.058 209.856 130.915C209.94 128.989 209.964 127.066 209.999 125.137Z" fill="black"/>
<path d="M135.517 125.137C139.911 125.137 144.306 125.137 148.833 125.137C148.703 127.749 148.703 127.749 148.638 128.728C145.988 128.728 143.338 128.728 140.608 128.728C140.608 129.008 140.608 129.288 140.608 129.576C140.601 129.737 140.592 129.898 140.58 130.059C140.574 130.139 140.568 130.218 140.562 130.301C140.556 130.381 140.55 130.461 140.543 130.543C140.537 130.627 140.531 130.71 140.524 130.796C140.509 130.999 140.494 131.201 140.478 131.404C140.571 131.403 140.571 131.403 140.666 131.402C141.257 131.394 141.848 131.386 142.439 131.379C142.743 131.375 143.047 131.371 143.351 131.367C144.656 131.349 145.961 131.333 147.267 131.339C147.223 132.559 147.147 133.775 147.071 134.994C144.809 135.016 142.547 135.037 140.217 135.06C140.217 135.404 140.217 135.749 140.217 136.104C140.209 136.334 140.201 136.564 140.188 136.794C140.186 136.847 140.183 136.901 140.18 136.956C140.164 137.263 140.132 137.562 140.086 137.867C144.168 137.829 144.168 137.829 148.246 137.671C148.22 138.115 148.194 138.559 148.167 139.004C148.165 139.052 148.162 139.1 148.159 139.15C148.153 139.248 148.147 139.346 148.141 139.444C148.127 139.695 148.112 139.946 148.099 140.198C148.095 140.272 148.095 140.272 148.09 140.349C148.085 140.443 148.08 140.537 148.075 140.631C148.061 140.891 148.028 141.132 147.985 141.392C143.59 141.392 139.196 141.392 134.668 141.392C134.776 140.099 134.884 138.807 134.994 137.475C135.171 135.018 135.286 132.56 135.386 130.099C135.389 130.026 135.392 129.954 135.395 129.88C135.461 128.299 135.484 126.719 135.517 125.137Z" fill="black"/>
<path d="M95.2153 103.823C95.3192 103.823 95.4232 103.822 95.5271 103.822C95.806 103.821 96.0849 103.821 96.3638 103.822C96.6578 103.823 96.9518 103.822 97.2458 103.822C97.7392 103.821 98.2325 103.822 98.7259 103.823C99.2937 103.824 99.8614 103.824 100.429 103.822C100.92 103.821 101.41 103.821 101.9 103.822C102.192 103.822 102.483 103.822 102.775 103.821C103.049 103.821 103.324 103.821 103.598 103.823C103.698 103.823 103.798 103.823 103.897 103.822C105.117 103.816 106.194 104.081 107.102 104.944C107.837 105.699 108.22 106.606 108.259 107.663C108.23 108.727 107.839 109.643 107.106 110.412C106.407 111.062 105.593 111.436 104.637 111.439C104.569 111.439 104.569 111.439 104.499 111.44C104.347 111.44 104.195 111.441 104.043 111.441C103.934 111.441 103.824 111.442 103.715 111.442C103.356 111.443 102.998 111.444 102.639 111.445C102.515 111.445 102.392 111.445 102.268 111.446C101.686 111.447 101.105 111.448 100.523 111.448C99.8528 111.449 99.1829 111.451 98.5129 111.453C97.9942 111.455 97.4754 111.456 96.9567 111.456C96.6473 111.457 96.3379 111.457 96.0285 111.459C95.7371 111.46 95.4456 111.461 95.1541 111.46C95.0477 111.46 94.9414 111.46 94.835 111.461C93.6772 111.47 92.6648 111.176 91.8081 110.363C91.0951 109.577 90.7083 108.616 90.7264 107.546C90.7905 106.464 91.2269 105.515 92.0154 104.767C92.9622 104.001 94.0312 103.816 95.2153 103.823Z" fill="#7171FF"/>
<path d="M94.6613 134.447C94.7634 134.447 94.8655 134.446 94.9676 134.446C95.242 134.445 95.5165 134.445 95.791 134.446C96.08 134.446 96.369 134.446 96.6581 134.446C97.1433 134.445 97.6285 134.446 98.1137 134.447C98.6723 134.448 99.2309 134.447 99.7894 134.446C100.272 134.445 100.754 134.445 101.236 134.446C101.522 134.446 101.809 134.446 102.096 134.446C102.366 134.445 102.636 134.445 102.906 134.447C103.004 134.447 103.102 134.447 103.2 134.446C104.487 134.441 105.614 134.672 106.568 135.599C107.437 136.561 107.634 137.558 107.589 138.81C107.528 139.69 107.036 140.535 106.403 141.131C105.718 141.696 104.919 142.06 104.024 142.062C103.978 142.062 103.932 142.063 103.885 142.063C103.732 142.064 103.58 142.064 103.427 142.063C103.317 142.064 103.207 142.064 103.097 142.065C102.8 142.066 102.502 142.066 102.204 142.066C102.018 142.066 101.832 142.067 101.645 142.067C100.994 142.068 100.343 142.069 99.692 142.069C99.0868 142.069 98.4816 142.07 97.8764 142.072C97.3554 142.074 96.8344 142.074 96.3135 142.074C96.0029 142.074 95.6924 142.075 95.3818 142.076C95.0895 142.077 94.7971 142.077 94.5047 142.076C94.398 142.076 94.2913 142.077 94.1846 142.077C93.0506 142.085 92.0779 141.816 91.2379 141.016C90.4338 140.162 90.11 139.192 90.1308 138.034C90.1735 137.03 90.6148 136.165 91.3215 135.467C91.5793 135.23 91.8531 135.052 92.1641 134.892C92.2031 134.872 92.2422 134.852 92.2825 134.831C93.0343 134.478 93.8463 134.443 94.6613 134.447Z" fill="#6868FF"/>
<path d="M151.64 125.137C156.681 125.137 161.722 125.137 166.915 125.137C166.785 128.14 166.785 128.14 166.719 128.858C166.622 128.854 166.526 128.85 166.426 128.845C165.38 128.8 164.335 128.774 163.288 128.756C163.132 128.753 162.976 128.751 162.82 128.748C162.444 128.741 162.069 128.734 161.693 128.728C161.694 128.774 161.694 128.821 161.695 128.868C161.699 129.377 161.675 129.88 161.641 130.387C161.632 130.513 161.624 130.64 161.616 130.767C161.607 130.901 161.598 131.035 161.589 131.169C161.435 133.492 161.335 135.814 161.265 138.141C161.263 138.188 161.262 138.235 161.26 138.283C161.229 139.319 161.2 140.355 161.171 141.392C159.426 141.392 157.681 141.392 155.883 141.392C155.958 140.129 155.958 140.129 156.005 139.583C156.016 139.457 156.027 139.33 156.037 139.203C156.043 139.138 156.048 139.073 156.054 139.005C156.283 136.263 156.416 133.519 156.494 130.769C156.496 130.686 156.499 130.603 156.501 130.517C156.506 130.363 156.51 130.209 156.514 130.054C156.517 129.95 156.517 129.95 156.52 129.843C156.521 129.783 156.523 129.724 156.525 129.662C156.541 129.35 156.573 129.039 156.601 128.728C154.921 128.771 153.241 128.814 151.51 128.858C151.553 127.63 151.596 126.403 151.64 125.137Z" fill="black"/>
<path d="M195.507 125.137C197.273 125.137 199.04 125.137 200.86 125.137C200.785 126.854 200.785 126.854 200.74 127.527C200.73 127.687 200.719 127.848 200.709 128.008C200.704 128.09 200.698 128.173 200.693 128.258C200.585 129.921 200.488 131.585 200.399 133.249C200.391 133.405 200.382 133.56 200.374 133.716C200.358 134.012 200.342 134.308 200.326 134.603C200.323 134.674 200.323 134.674 200.319 134.746C200.293 135.254 200.269 135.762 200.253 136.27C200.251 136.314 200.25 136.359 200.248 136.405C200.242 136.614 200.235 136.823 200.23 137.033C200.228 137.105 200.226 137.178 200.223 137.253C200.221 137.349 200.221 137.349 200.218 137.446C200.207 137.606 200.207 137.606 200.142 137.801C202.576 137.78 205.01 137.758 207.518 137.736C207.518 138.252 207.515 138.753 207.477 139.265C207.471 139.354 207.471 139.354 207.465 139.445C207.456 139.569 207.447 139.693 207.438 139.816C207.424 140.007 207.411 140.197 207.398 140.387C207.389 140.508 207.38 140.629 207.371 140.75C207.367 140.807 207.364 140.864 207.359 140.923C207.33 141.319 207.33 141.319 207.257 141.392C207.093 141.398 206.932 141.4 206.768 141.399C206.717 141.4 206.665 141.4 206.611 141.4C206.437 141.4 206.262 141.399 206.087 141.399C205.962 141.399 205.837 141.399 205.713 141.399C205.373 141.399 205.033 141.399 204.693 141.398C204.338 141.398 203.984 141.398 203.629 141.398C202.957 141.398 202.284 141.397 201.612 141.396C200.847 141.396 200.082 141.395 199.316 141.395C197.742 141.394 196.167 141.393 194.593 141.392C194.603 141.226 194.613 141.06 194.624 140.894C194.628 140.824 194.628 140.824 194.632 140.752C194.656 140.367 194.689 139.982 194.727 139.598C194.74 139.458 194.754 139.318 194.767 139.178C194.774 139.106 194.781 139.033 194.788 138.959C195.222 134.362 195.424 129.752 195.507 125.137Z" fill="black"/>
<path d="M187.151 125.137C188.918 125.137 190.684 125.137 192.504 125.137C192.504 125.945 192.504 125.945 192.483 126.216C192.479 126.278 192.474 126.34 192.469 126.404C192.464 126.47 192.459 126.535 192.454 126.602C192.443 126.75 192.432 126.897 192.421 127.045C192.416 127.122 192.41 127.2 192.404 127.28C192.059 131.978 191.966 136.684 191.851 141.392C190.063 141.392 188.275 141.392 186.433 141.392C186.459 140.983 186.485 140.574 186.512 140.153C186.856 134.755 186.856 134.755 187.061 129.35C187.063 129.29 187.064 129.229 187.066 129.167C187.099 127.824 187.124 126.481 187.151 125.137Z" fill="black"/>
<path d="M183.936 221.231L187.053 241.184L197.981 233.218L192.714 216.957L183.936 221.231Z" fill="#EA8C8C"/>
<path d="M187.053 228.299L203.952 225.268L190.365 206.536C189.809 205.773 188.887 205.349 187.935 205.428L183.019 205.824L187.053 228.299Z" fill="#E5E5E5"/>
<path d="M220.162 207.204L242.459 198.853C244.104 198.236 244.797 196.314 243.915 194.816C243.084 193.397 241.204 192.978 239.835 193.9L220.162 207.204Z" fill="#59ABE8"/>
<path d="M220.971 207.413C220.69 207.52 230.678 204.936 240.305 216.849C241.055 217.777 242.201 218.314 243.399 218.263C246.86 218.122 248.304 213.779 245.565 211.693C240.098 207.515 231.434 203.444 220.971 207.413Z" fill="#59ABE8"/>
<path d="M225.331 200.707C225.331 200.707 229.663 198.502 230.781 191.485C231.021 189.982 232.712 189.179 234.053 189.931C235.153 190.547 235.503 191.943 234.826 192.995C233.061 195.715 229.486 200.34 225.331 200.707Z" fill="#59ABE8"/>
<path d="M236.786 204.852C236.924 204.852 241.256 205.332 243.628 205.598C244.436 205.688 245.141 205.061 245.141 204.258C245.141 203.365 244.27 202.714 243.399 202.963L236.786 204.852Z" fill="#59ABE8"/>
<path d="M147.13 245.159L190.394 246.465L186.623 205.609L143.801 209.923L147.13 245.159Z" fill="#E5E5E5"/>
<path d="M153.915 260.5L143.801 209.923L151.8 209.115L153.915 221.927C154.74 224.488 157.295 226.116 160 225.794L174.589 224.081C177.455 223.742 179.609 221.339 179.598 218.495L178.744 206.112L186.594 205.298L199.5 259.5L194.5 261.5L189 262.545L183 263.5H176L164 262.545L153.915 260.5Z" fill="#2C65A8"/>
<path d="M139.52 263.003C139.016 263.003 138.506 262.992 137.973 262.963C131.429 262.641 119.842 258.095 114.725 246.895C112.267 241.506 107.935 227.479 120.828 213.587C126.959 206.978 145.606 197.598 164.092 210.8C164.344 210.981 164.395 211.325 164.218 211.569C164.034 211.817 163.685 211.868 163.438 211.693C145.56 198.921 127.567 207.956 121.653 214.328C109.213 227.745 113.378 241.252 115.751 246.442C120.662 257.191 131.767 261.556 138.036 261.861C143.136 262.115 146.843 261.115 149.05 258.893C151.33 256.603 151.158 253.742 151.153 253.713C151.13 253.408 151.365 253.148 151.668 253.125C151.972 253.097 152.241 253.329 152.264 253.634C152.276 253.77 152.488 256.993 149.857 259.65C147.657 261.878 144.184 263.003 139.52 263.003Z" fill="#5F4E6D"/>
<path d="M129.75 240.065L148.723 231.68L144.385 209.867L138.076 210.703C137.371 210.8 136.701 211.105 136.208 211.608C135.836 211.987 135.549 212.439 135.36 212.942L129.75 240.065Z" fill="#E5E5E5"/>
<path d="M129.75 240.065L130.615 242.835C131.452 245.498 134.472 246.827 137.039 245.651L145.932 241.574L144.54 231.437L133.085 234.247C130.483 234.88 128.959 237.543 129.75 240.065Z" fill="#F7ADAD"/>
<path d="M193.866 229.311L190.21 239.024C189.076 242.032 190.938 245.329 194.13 245.962L198.009 246.731C201.069 247.341 203.997 245.221 204.324 242.157L205.848 227.892L193.866 229.311Z" fill="#F7ADAD"/>
<path d="M220.857 204.578L162.867 223.964L163.945 227.102L221.934 207.716L220.857 204.578Z" fill="#5F4E6D"/>
<path d="M188.892 221.621C188.657 221.621 188.434 221.474 188.359 221.237L185.981 213.875C185.89 213.587 186.05 213.276 186.342 213.18C186.635 213.09 186.95 213.248 187.047 213.536L189.425 220.898C189.517 221.186 189.356 221.497 189.064 221.593C189.007 221.61 188.95 221.621 188.892 221.621Z" fill="#68D8C4"/>
<path d="M191.757 220.688C191.522 220.688 191.299 220.541 191.224 220.304L188.846 212.942C188.755 212.654 188.915 212.343 189.207 212.247C189.505 212.157 189.815 212.315 189.912 212.603L192.29 219.965C192.382 220.253 192.222 220.564 191.929 220.66C191.872 220.683 191.815 220.688 191.757 220.688Z" fill="#68D8C4"/>
<path d="M194.64 219.727C194.405 219.727 194.181 219.58 194.107 219.343L191.729 211.981C191.637 211.693 191.798 211.382 192.09 211.286C192.382 211.195 192.697 211.354 192.795 211.642L195.173 219.004C195.264 219.292 195.104 219.603 194.812 219.699C194.754 219.722 194.697 219.727 194.64 219.727Z" fill="#68D8C4"/>
<path d="M150.413 247.494L149.571 251.848C149.422 252.617 149.966 253.346 150.757 253.436L152.929 253.68C153.639 253.759 154.287 253.289 154.425 252.6L155.301 248.144L150.413 247.494Z" fill="#E5E5E5"/>
<path d="M148.494 248.851L158.419 249.637C159.53 249.727 160.539 249.004 160.802 247.935L164.991 230.792L184.291 223.889C185.03 223.623 185.443 222.843 185.236 222.091L183.208 214.808C182.973 213.966 182.062 213.502 181.231 213.802L153.462 223.742C152.677 224.024 152.075 224.652 151.84 225.438L145.886 245.091C145.342 246.872 146.608 248.698 148.494 248.851Z" fill="#68D8C4"/>
<path d="M217.446 205.468L218.478 208.968C218.684 209.663 219.36 210.121 220.094 210.065L224.942 209.663C225.824 209.59 226.42 208.736 226.174 207.899L224.363 201.77C224.099 200.871 223.016 200.487 222.231 201.013L218.071 203.789C217.509 204.151 217.257 204.829 217.446 205.468Z" fill="#FACB61"/>
<path d="M172.962 214.904L170.911 216.538C168.366 218.562 165.524 218.506 161.885 217.873L158.258 216.437C156.705 215.826 155.622 214.418 155.439 212.773V196.795L172.613 196.523L174.624 210.941C174.79 212.456 174.165 213.949 172.962 214.904Z" fill="#F7ADAD"/>
<path d="M155.439 205.304C159.175 207.481 165.564 209.16 174.418 209.103L173.145 197.654L165.965 198.429L155.267 198.395L155.439 205.304Z" fill="#EA8C8C"/>
<path d="M177.85 194.471L176.016 194.669L174.641 182.281L176.475 182.083C178.767 181.834 180.83 183.468 181.082 185.73L181.546 189.931C181.798 192.192 180.142 194.228 177.85 194.471Z" fill="#EA8C8C"/>
<path d="M177.604 188.913C177.667 188.902 178.285 189.331 178.881 189.75C179.323 190.066 179.936 189.716 179.878 189.179L179.202 179.092L175.948 179.522L177.604 188.913Z" fill="#5F4E6D"/>
<path d="M172.372 204.84L161.083 205.762C158.356 206.056 155.897 204.117 155.599 201.42L152.591 174.314C152.236 171.12 154.574 168.248 157.811 167.897L171.065 166.461C174.303 166.11 177.214 168.417 177.569 171.612L179.008 196.682C179.46 200.741 176.486 204.394 172.372 204.84Z" fill="#F7ADAD"/>
<path d="M177.758 173.319C170.687 174.998 159.788 177.616 153.141 179.222L153.794 185.119C157.863 184.938 168.968 184.339 178.182 182.315L177.758 173.319Z" fill="#EA8C8C"/>
<path d="M156.831 196.642L154.78 196.862C152.74 197.083 150.906 195.63 150.683 193.623L150.115 188.517C149.892 186.504 151.365 184.695 153.399 184.475L155.45 184.254L156.831 196.642Z" fill="#F7ADAD"/>
<path d="M156.768 192.401C157.244 192.113 157.519 191.587 157.485 191.039L156.906 181.761L153.468 182.179L154.482 191.299C154.596 192.379 155.823 192.972 156.768 192.401Z" fill="#5F4E6D"/>
<path d="M151.983 174.292L153.003 183.446L179.053 178.843L178.234 171.448C177.861 168.089 174.801 165.669 171.398 166.037L157.467 167.547C154.064 167.914 151.611 170.933 151.983 174.292Z" fill="#2C65A8"/>
<path d="M153.003 183.446L186.663 179.335C187.368 179.228 187.689 178.402 187.236 177.859C186.004 176.384 184.062 175.671 182.153 175.988L152.585 179.657L153.003 183.446Z" fill="#68D8C4"/>
<path d="M147.972 230.425C147.972 230.425 148.345 239.81 148.482 239.765C148.62 239.72 152.333 240.726 152.333 240.726C152.333 240.726 156.86 241.41 160.132 241.506C160.493 241.518 161.289 241.518 161.983 241.512C162.739 241.512 163.415 241.043 163.673 240.342L163.891 239.765L164.275 239.737C165.094 239.68 165.816 239.188 166.16 238.453L167.581 234.733L169.369 234.92C170.063 234.993 170.704 234.552 170.876 233.89L171.168 232.771C171.346 232.087 170.979 231.38 170.309 231.131L164.441 228.915C164.441 228.915 159.249 226.484 153.347 229.141C152.098 229.712 149.6 230.425 147.972 230.425Z" fill="#FACB61"/>
<path d="M143.342 231.12C142.924 231.29 142.672 231.714 142.723 232.16C142.947 234.038 143.617 239.053 143.95 241.535C144.047 242.253 144.809 242.677 145.485 242.394L149.772 240.585C150.173 240.415 150.413 240.014 150.368 239.584L149.411 230.673C149.342 230.023 148.66 229.622 148.047 229.871L143.342 231.12Z" fill="#E5AD3E"/>
<path d="M193.866 227.897C193.866 227.897 201.058 230.515 205.797 229.463C205.797 229.463 205.562 223.091 209 220.949C210.553 219.982 213.676 218.478 212.897 215.82C212.048 212.909 207.607 204.88 207.607 204.88C207.321 204.292 206.616 204.037 206.014 204.309L204.513 204.812C203.969 205.061 203.688 205.666 203.86 206.231L204.232 207.481L197.769 210.913C196.777 211.303 196.325 212.434 196.771 213.383L199.023 218.008L193.866 227.897Z" fill="#FACB61"/>
<path d="M206.696 231.488C206.519 231.912 206.009 232.189 205.447 232.172C203.075 232.081 197.012 231.589 193.866 231.437C192.955 231.391 192.353 230.668 192.646 229.984L193.689 225.082C193.866 224.675 194.353 224.414 194.892 224.426L206.977 224.759C207.797 224.782 208.364 225.427 208.106 226.043L206.696 231.488Z" fill="#E5AD3E"/>
<path d="M120.793 230.232C122.101 230.232 123.16 229.187 123.16 227.897C123.16 226.608 122.101 225.562 120.793 225.562C119.486 225.562 118.427 226.608 118.427 227.897C118.427 229.187 119.486 230.232 120.793 230.232Z" fill="#59ABE8"/>
<path d="M123.79 237.696C124.62 237.696 125.292 237.032 125.292 236.214C125.292 235.396 124.62 234.733 123.79 234.733C122.961 234.733 122.289 235.396 122.289 236.214C122.289 237.032 122.961 237.696 123.79 237.696Z" fill="#59ABE8"/>
<path d="M137.125 196.523C137.125 198.711 135.331 200.481 133.114 200.481C130.896 200.481 129.102 198.711 129.102 196.523C129.102 194.335 130.896 192.565 133.114 192.565C135.331 192.565 137.125 194.341 137.125 196.523Z" fill="#59ABE8"/>
<path d="M148.723 200.656C148.723 201.747 147.823 202.635 146.717 202.635C145.611 202.635 144.712 201.747 144.712 200.656C144.712 199.565 145.611 198.677 146.717 198.677C147.829 198.677 148.723 199.559 148.723 200.656Z" fill="#59ABE8"/>
<path d="M186.05 200.905C186.05 202.138 185.042 203.133 183.792 203.133C182.543 203.133 181.535 202.138 181.535 200.905C181.535 199.672 182.543 198.677 183.792 198.677C185.042 198.677 186.05 199.672 186.05 200.905Z" fill="#59ABE8"/>
<path d="M130.483 246.838C126.885 245.272 126.707 241.552 126.707 241.552C125.59 243.746 123.699 245.097 121.263 245.249C123.584 246.329 124.787 248.144 125.034 250.609C125.028 250.609 126.226 247.161 130.483 246.838Z" fill="#68D8C4"/>
<path d="M131.784 219.009C129.481 218.936 128.564 216.951 128.564 216.951C128.443 218.382 127.716 219.524 126.426 220.134C127.928 220.219 128.982 220.943 129.658 222.232C129.658 222.232 129.544 220.1 131.784 219.009Z" fill="#68D8C4"/>
<path d="M123.28 206.333C121.412 205.23 121.573 203.178 121.573 203.178C120.811 204.303 119.676 204.919 118.329 204.84C119.527 205.587 120.06 206.666 120.026 208.035C120.026 208.035 120.92 206.225 123.28 206.333Z" fill="#68D8C4"/>
</svg>
