<svg width="318" height="282" viewBox="0 0 318 282" fill="none" xmlns="http://www.w3.org/2000/svg">
<g filter="url(#filter0_d_63_171)">
<path d="M307.5 98.3542C307.5 169.854 317.5 215.5 224.5 260.5C159 282.5 10.5 173.596 10.5 106.769C10.5 39.9428 21.636 22.7692 91.5 22.7692C216.278 22.7692 307.5 -24.1459 307.5 98.3542Z" fill="white"/>
</g>
<path d="M67.4915 103.849C67.5539 103.848 67.6162 103.848 67.6805 103.848C67.7837 103.848 67.7837 103.848 67.8889 103.848C67.9621 103.848 68.0352 103.848 68.1106 103.848C68.3583 103.848 68.6059 103.848 68.8536 103.848C69.032 103.848 69.2103 103.847 69.3887 103.847C69.8291 103.847 70.2695 103.847 70.7099 103.847C71.2372 103.846 71.7645 103.846 72.2919 103.846C73.5667 103.845 74.8415 103.844 76.1162 103.844C76.7192 103.844 77.3222 103.843 77.9252 103.843C79.989 103.842 82.0528 103.842 84.1166 103.841C84.2462 103.841 84.3758 103.841 84.5054 103.841C84.6354 103.841 84.7653 103.841 84.8952 103.841C85.1559 103.841 85.4165 103.841 85.6772 103.841C85.7741 103.841 85.7741 103.841 85.873 103.841C87.968 103.841 90.0631 103.84 92.1581 103.838C94.3727 103.837 96.5872 103.836 98.8017 103.836C99.0449 103.836 99.288 103.836 99.5311 103.836C99.591 103.836 99.6509 103.836 99.7125 103.836C100.676 103.836 101.639 103.835 102.603 103.834C103.571 103.833 104.54 103.833 105.508 103.833C106.084 103.834 106.659 103.833 107.234 103.832C107.619 103.832 108.003 103.832 108.388 103.833C108.607 103.833 108.826 103.833 109.045 103.832C109.281 103.831 109.518 103.832 109.754 103.833C109.855 103.832 109.855 103.832 109.958 103.831C110.963 103.838 111.852 104.124 112.587 104.824C113.376 105.674 113.559 106.549 113.57 107.68C113.572 107.799 113.572 107.799 113.574 107.921C113.567 108.956 113.214 109.818 112.509 110.574C111.77 111.265 110.89 111.47 109.903 111.462C109.818 111.462 109.733 111.462 109.646 111.463C109.463 111.464 109.281 111.464 109.098 111.463C108.809 111.462 108.52 111.463 108.231 111.464C107.671 111.466 107.11 111.466 106.55 111.466C105.835 111.466 105.119 111.467 104.404 111.469C104.117 111.47 103.83 111.47 103.543 111.469C103.408 111.469 103.273 111.469 103.137 111.47C102.972 111.47 102.808 111.47 102.643 111.469C102.121 111.468 102.121 111.468 101.657 111.69C101.496 111.932 101.481 112.128 101.526 112.408C101.646 112.623 101.646 112.623 101.787 112.8C101.809 112.865 101.831 112.929 101.853 112.996C101.972 113.069 101.972 113.069 102.114 113.126C102.157 113.149 102.2 113.171 102.244 113.194C102.288 113.216 102.331 113.238 102.375 113.261C102.418 113.283 102.461 113.306 102.506 113.329C102.803 113.463 103.088 113.462 103.41 113.461C103.489 113.461 103.489 113.461 103.569 113.461C103.745 113.462 103.922 113.462 104.098 113.461C104.225 113.461 104.353 113.462 104.48 113.462C104.757 113.462 105.035 113.462 105.312 113.462C105.763 113.462 106.214 113.462 106.666 113.463C107.321 113.463 107.976 113.464 108.631 113.464C109.623 113.464 110.615 113.465 111.607 113.466C111.827 113.467 112.047 113.467 112.267 113.467C112.311 113.467 112.355 113.467 112.4 113.467C112.489 113.467 112.578 113.467 112.667 113.468C112.756 113.468 112.845 113.468 112.935 113.468C113.988 113.469 115.041 113.47 116.094 113.471C116.163 113.471 116.163 113.471 116.233 113.471C117.727 113.473 119.22 113.474 120.714 113.474C122.249 113.475 123.785 113.476 125.321 113.478C126.31 113.48 127.299 113.481 128.288 113.48C128.937 113.48 129.585 113.481 130.233 113.482C130.607 113.483 130.981 113.484 131.355 113.483C131.697 113.482 132.04 113.483 132.383 113.484C132.506 113.484 132.63 113.484 132.754 113.484C133.806 113.479 134.716 113.63 135.504 114.395C136.072 115.04 136.328 115.783 136.333 116.633C136.333 116.682 136.333 116.73 136.334 116.78C136.334 116.882 136.335 116.985 136.335 117.087C136.336 117.241 136.338 117.395 136.34 117.549C136.347 118.597 136.17 119.435 135.438 120.216C134.798 120.831 134.113 121.098 133.231 121.099C133.184 121.099 133.136 121.099 133.087 121.099C132.927 121.099 132.767 121.099 132.607 121.099C132.491 121.099 132.376 121.099 132.26 121.099C132.008 121.1 131.756 121.1 131.505 121.1C131.095 121.1 130.685 121.1 130.276 121.1C129.681 121.101 129.086 121.101 128.491 121.101C127.552 121.102 126.612 121.103 125.672 121.104C125.35 121.104 125.029 121.105 124.707 121.105C124.627 121.105 124.547 121.105 124.464 121.106C123.549 121.107 122.635 121.108 121.72 121.109C121.594 121.109 121.594 121.109 121.466 121.109C120.111 121.11 118.755 121.111 117.4 121.112C116.009 121.112 114.618 121.114 113.226 121.116C112.368 121.118 111.51 121.118 110.651 121.118C110.063 121.118 109.475 121.118 108.887 121.12C108.547 121.121 108.208 121.121 107.869 121.12C107.558 121.12 107.247 121.12 106.936 121.122C106.824 121.122 106.712 121.122 106.599 121.121C105.729 121.102 105.729 121.102 104.997 121.533C104.973 121.57 104.949 121.607 104.925 121.645C104.888 121.701 104.888 121.701 104.85 121.757C104.704 122.043 104.709 122.338 104.705 122.653C104.703 122.699 104.701 122.745 104.699 122.792C104.696 123.031 104.717 123.167 104.845 123.371C105.075 123.59 105.273 123.579 105.578 123.579C105.662 123.579 105.745 123.58 105.831 123.58C105.924 123.58 106.017 123.58 106.11 123.579C106.209 123.58 106.307 123.58 106.406 123.58C106.62 123.58 106.835 123.58 107.049 123.58C107.398 123.58 107.747 123.58 108.097 123.581C108.604 123.581 109.11 123.582 109.617 123.582C110.419 123.582 111.22 123.583 112.022 123.585C112.296 123.585 112.57 123.585 112.844 123.586C112.913 123.586 112.981 123.586 113.052 123.586C113.832 123.587 114.612 123.588 115.393 123.589C115.5 123.589 115.5 123.589 115.609 123.59C116.764 123.591 117.92 123.592 119.075 123.592C120.262 123.593 121.448 123.594 122.634 123.597C123.366 123.598 124.097 123.599 124.829 123.598C125.331 123.598 125.832 123.599 126.334 123.6C126.624 123.601 126.913 123.602 127.202 123.601C127.467 123.6 127.733 123.601 127.998 123.602C128.093 123.603 128.189 123.602 128.285 123.602C129.254 123.596 129.88 123.824 130.583 124.484C131.332 125.258 131.513 126.193 131.513 127.226C131.513 127.368 131.516 127.51 131.518 127.652C131.526 128.693 131.252 129.574 130.533 130.338C129.941 130.923 129.277 131.216 128.442 131.217C128.398 131.217 128.355 131.217 128.311 131.217C128.166 131.217 128.021 131.217 127.876 131.217C127.771 131.217 127.666 131.217 127.561 131.217C127.333 131.218 127.105 131.218 126.877 131.218C126.506 131.218 126.135 131.218 125.763 131.218C125.224 131.219 124.685 131.219 124.146 131.219C123.295 131.22 122.443 131.221 121.591 131.222C121.299 131.222 121.008 131.223 120.717 131.223C120.607 131.223 120.607 131.223 120.496 131.224C119.667 131.225 118.838 131.226 118.008 131.227C117.933 131.227 117.857 131.227 117.779 131.227C116.55 131.229 115.322 131.229 114.094 131.23C112.833 131.23 111.572 131.232 110.311 131.234C109.533 131.236 108.755 131.236 107.977 131.236C107.444 131.236 106.911 131.236 106.378 131.238C106.07 131.239 105.763 131.239 105.455 131.238C105.173 131.238 104.892 131.238 104.61 131.24C104.508 131.24 104.406 131.24 104.304 131.239C103.529 131.229 103.529 131.229 102.832 131.535C102.677 131.697 102.557 131.866 102.44 132.057C102.41 132.107 102.379 132.157 102.347 132.208C102.253 132.364 102.163 132.522 102.073 132.681C102.043 132.734 102.012 132.787 101.981 132.842C101.922 132.945 101.863 133.049 101.805 133.153C101.752 133.245 101.698 133.338 101.642 133.429C101.514 133.642 101.461 133.744 101.461 133.999C101.535 134.239 101.575 134.284 101.787 134.407C101.957 134.436 101.957 134.436 102.144 134.432C102.216 134.433 102.288 134.433 102.363 134.434C102.442 134.434 102.521 134.433 102.603 134.433C102.686 134.434 102.77 134.434 102.856 134.434C103.038 134.435 103.219 134.436 103.401 134.436C103.689 134.436 103.977 134.437 104.265 134.438C104.824 134.441 105.384 134.442 105.944 134.443C106.655 134.445 107.366 134.447 108.077 134.45C108.362 134.452 108.648 134.452 108.933 134.452C109.069 134.453 109.204 134.453 109.339 134.453C109.504 134.454 109.668 134.454 109.832 134.454C110.92 134.461 111.815 134.719 112.612 135.492C113.372 136.32 113.55 137.164 113.558 138.258C113.56 138.34 113.562 138.422 113.564 138.506C113.571 139.553 113.241 140.411 112.526 141.172C111.836 141.821 111.016 142.086 110.082 142.077C110.007 142.078 109.932 142.078 109.855 142.078C109.606 142.079 109.356 142.079 109.107 142.078C108.926 142.078 108.745 142.078 108.563 142.079C108.17 142.08 107.777 142.08 107.384 142.079C106.799 142.078 106.214 142.079 105.63 142.079C104.585 142.081 103.541 142.081 102.497 142.08C101.583 142.079 100.67 142.079 99.7561 142.079C99.6955 142.079 99.6349 142.079 99.5724 142.079C99.3264 142.08 99.0803 142.08 98.8343 142.08C96.5268 142.081 94.2194 142.08 91.912 142.078C89.8614 142.077 87.8108 142.077 85.7602 142.078C83.4564 142.08 81.1525 142.08 78.8487 142.08C78.6032 142.08 78.3578 142.079 78.1123 142.079C78.0518 142.079 77.9914 142.079 77.9291 142.079C77.0158 142.079 76.1024 142.079 75.189 142.08C74.1509 142.081 73.1129 142.081 72.0748 142.079C71.4936 142.078 70.9124 142.078 70.3312 142.079C69.9433 142.08 69.5554 142.08 69.1675 142.078C68.9462 142.078 68.7251 142.078 68.5038 142.079C68.2658 142.079 68.0278 142.079 67.7898 142.077C67.7208 142.078 67.6517 142.079 67.5806 142.079C67.2018 142.075 66.9598 142.051 66.668 141.783C66.4217 141.496 66.4447 141.201 66.4474 140.841C66.4471 140.778 66.4468 140.716 66.4465 140.651C66.4457 140.44 66.4463 140.229 66.4469 140.018C66.4466 139.865 66.4463 139.713 66.4458 139.56C66.445 139.185 66.4451 138.809 66.4455 138.433C66.446 137.983 66.4454 137.533 66.4447 137.083C66.4434 136.202 66.4432 135.32 66.4436 134.439C66.4439 133.667 66.4438 132.895 66.4435 132.124C66.4434 132.02 66.4434 131.917 66.4433 131.814C66.4432 131.658 66.4432 131.502 66.4431 131.346C66.4424 129.897 66.4421 128.448 66.4426 126.998C66.4426 126.944 66.4426 126.889 66.4427 126.833C66.4428 126.389 66.443 125.945 66.4432 125.501C66.4438 123.77 66.4433 122.038 66.4418 120.307C66.4401 118.362 66.4392 116.418 66.4397 114.473C66.4397 114.266 66.4398 114.059 66.4398 113.852C66.4398 113.801 66.4398 113.75 66.4398 113.697C66.44 112.926 66.4395 112.155 66.4386 111.384C66.4376 110.507 66.4376 109.63 66.4387 108.754C66.4393 108.306 66.4395 107.858 66.4384 107.411C66.4375 107.001 66.4378 106.592 66.4391 106.183C66.4394 106.034 66.4392 105.886 66.4385 105.737C66.4376 105.536 66.4384 105.335 66.4395 105.134C66.4389 105.076 66.4383 105.018 66.4376 104.958C66.4418 104.602 66.4977 104.401 66.7333 104.118C66.9738 103.907 67.1752 103.849 67.4915 103.849ZM74.0444 111.429C74.0444 119.033 74.0444 126.638 74.0444 134.472C77.1303 134.48 77.1303 134.48 80.2785 134.489C80.9253 134.491 81.5722 134.493 82.2387 134.496C82.8243 134.497 82.8243 134.497 83.4098 134.497C83.6684 134.497 83.9269 134.498 84.1854 134.5C87.7227 134.519 90.8651 133.87 93.4972 131.339C93.5313 131.307 93.5655 131.275 93.6006 131.242C95.6779 129.282 96.9609 126.518 97.0957 123.657C97.1876 120.387 96.0914 117.385 93.8543 114.994C92.9331 114.028 91.8723 113.283 90.6903 112.669C90.6515 112.649 90.6127 112.629 90.5727 112.608C88.7537 111.662 86.7599 111.417 84.738 111.422C84.619 111.422 84.4999 111.422 84.3809 111.422C84.0645 111.422 83.748 111.422 83.4316 111.423C83.1338 111.423 82.8359 111.423 82.5381 111.423C81.6693 111.423 80.8005 111.424 79.9317 111.425C77.0175 111.427 77.0175 111.427 74.0444 111.429Z" fill="#3C3CFF"/>
<path d="M54.4611 92.3027C58.6527 92.3005 62.8443 92.2984 67.0358 92.2972C67.1289 92.2972 67.1289 92.2972 67.2238 92.2972C68.5718 92.2968 69.9197 92.2964 71.2677 92.2961C71.9287 92.2959 72.5898 92.2957 73.2508 92.2956C73.3166 92.2956 73.3824 92.2955 73.4501 92.2955C75.5827 92.295 77.7152 92.294 79.8478 92.2928C82.0391 92.2916 84.2303 92.2908 86.4216 92.2905C86.7311 92.2904 87.0405 92.2904 87.3499 92.2904C87.4413 92.2903 87.4413 92.2903 87.5345 92.2903C88.5152 92.2902 89.496 92.2896 90.4767 92.2888C91.4624 92.288 92.4482 92.2877 93.4339 92.2879C94.0197 92.288 94.6055 92.2878 95.1913 92.287C95.5826 92.2865 95.9739 92.2865 96.3652 92.2868C96.5882 92.287 96.8111 92.287 97.0341 92.2864C97.2745 92.2859 97.5148 92.2862 97.7552 92.2867C97.8241 92.2863 97.8931 92.286 97.9642 92.2856C98.9766 92.2902 99.8714 92.5691 100.613 93.2819C101.438 94.1755 101.644 95.2218 101.6 96.406C101.537 97.4627 101.146 98.3714 100.351 99.0916C99.6368 99.6357 98.9304 99.8856 98.0421 99.883C97.9799 99.8831 97.9176 99.8832 97.8535 99.8832C97.6439 99.8834 97.4343 99.8831 97.2247 99.8828C97.0737 99.8828 96.9227 99.8829 96.7718 99.883C96.399 99.8831 96.0263 99.8829 95.6535 99.8826C95.201 99.8823 94.7485 99.8823 94.296 99.8824C93.4648 99.8825 92.6336 99.8823 91.8025 99.8819C90.6787 99.8813 89.5548 99.8812 88.431 99.8811C85.7284 99.8808 83.0259 99.8799 80.3234 99.879C74.2877 99.8777 68.252 99.8764 62.0333 99.875C62.0333 113.791 62.0333 127.707 62.0333 142.044C55.1139 142.044 55.1139 142.044 54.7222 141.783C54.5012 141.478 54.453 141.221 54.453 140.85C54.4529 140.779 54.4527 140.709 54.4526 140.636C54.4527 140.558 54.4529 140.48 54.4531 140.4C54.453 140.317 54.4529 140.234 54.4529 140.149C54.4527 139.918 54.4529 139.687 54.4531 139.456C54.4534 139.205 54.4532 138.954 54.4531 138.703C54.453 138.262 54.4531 137.822 54.4533 137.382C54.4537 136.727 54.4538 136.072 54.4537 135.417C54.4536 134.316 54.4538 133.215 54.4542 132.113C54.4546 131.023 54.4549 129.932 54.4549 128.841C54.4549 128.773 54.4549 128.706 54.4549 128.636C54.455 128.292 54.455 127.947 54.455 127.603C54.4551 125.164 54.4556 122.726 54.4562 120.287C54.4568 117.917 54.4573 115.547 54.4575 113.178C54.4576 113.105 54.4576 113.032 54.4576 112.957C54.4577 112.223 54.4577 111.49 54.4578 110.757C54.458 109.263 54.4582 107.769 54.4584 106.276C54.4584 106.207 54.4584 106.138 54.4584 106.068C54.459 101.479 54.46 96.891 54.4611 92.3027Z" fill="#3030FF"/>
<path d="M183.646 94.0653C187.006 94.0653 190.367 94.0653 193.829 94.0653C194.069 94.7047 194.306 95.3426 194.53 95.9874C194.572 96.1105 194.615 96.2335 194.658 96.3566C194.703 96.4859 194.748 96.6152 194.793 96.7446C194.888 97.0167 194.983 97.2887 195.078 97.5607C195.094 97.6066 195.11 97.6526 195.126 97.7C195.159 97.7933 195.191 97.8865 195.224 97.9798C195.289 98.1671 195.354 98.3544 195.42 98.5416C195.483 98.7246 195.547 98.9076 195.611 99.0906C195.641 99.1768 195.671 99.2629 195.701 99.349C196.361 101.241 197.031 103.128 197.736 105.004C197.995 105.695 198.251 106.386 198.507 107.078C198.59 107.304 198.674 107.531 198.758 107.758C199.151 108.82 199.544 109.882 199.937 110.945C200.212 111.691 200.489 112.438 200.765 113.184C201.015 113.856 201.263 114.528 201.512 115.201C201.605 115.453 201.699 115.705 201.792 115.957C202.691 118.379 203.532 120.82 204.377 123.261C204.401 123.328 204.424 123.395 204.448 123.464C204.471 123.53 204.494 123.596 204.517 123.664C204.54 123.729 204.562 123.794 204.585 123.861C204.631 123.991 204.676 124.122 204.721 124.252C205.075 125.275 205.436 126.296 205.798 127.316C206.193 128.427 206.579 129.539 206.962 130.653C206.99 130.735 207.018 130.816 207.047 130.899C207.075 130.98 207.102 131.061 207.131 131.144C207.526 132.292 207.925 133.44 208.328 134.586C208.487 135.041 208.647 135.496 208.806 135.951C208.85 136.078 208.895 136.205 208.939 136.332C208.954 136.375 208.969 136.417 208.984 136.46C208.999 136.503 209.014 136.546 209.029 136.589C209.119 136.848 209.21 137.106 209.3 137.364C209.582 138.17 209.864 138.976 210.149 139.781C210.168 139.835 210.187 139.888 210.207 139.944C210.292 140.183 210.377 140.421 210.462 140.66C210.504 140.779 210.504 140.779 210.548 140.901C210.572 140.968 210.596 141.035 210.621 141.105C210.671 141.261 210.671 141.261 210.671 141.392C207.849 141.392 205.027 141.392 202.119 141.392C201.732 140.228 201.344 139.065 200.944 137.867C200.646 137.017 200.347 136.168 200.044 135.32C199.783 134.591 199.528 133.861 199.273 133.13C198.696 131.481 198.11 129.835 197.519 128.192C197.266 127.488 197.013 126.784 196.761 126.08C196.552 125.497 196.343 124.913 196.133 124.329C196.076 124.168 196.018 124.007 195.96 123.846C195.22 121.782 194.478 119.719 193.727 117.659C193.193 116.192 192.663 114.725 192.132 113.257C188.901 113.235 185.669 113.214 182.34 113.192C182.297 113.321 182.254 113.45 182.21 113.583C182.148 113.719 182.083 113.854 182.017 113.989C181.978 114.068 181.939 114.148 181.9 114.228C181.879 114.269 181.859 114.311 181.837 114.354C181.461 115.12 181.096 115.89 180.745 116.668C180.715 116.733 180.715 116.733 180.685 116.801C180.604 116.98 180.523 117.16 180.442 117.34C180.193 117.892 179.941 118.442 179.688 118.993C179.623 119.135 179.559 119.277 179.494 119.419C179.437 119.542 179.381 119.666 179.324 119.789C179.176 120.114 179.028 120.439 178.881 120.764C175.8 120.764 172.72 120.764 169.546 120.764C169.807 120.241 170.072 119.738 170.37 119.238C171.151 117.911 171.864 116.548 172.583 115.187C172.843 114.695 173.104 114.205 173.365 113.714C173.649 113.179 173.933 112.645 174.216 112.11C174.24 112.063 174.265 112.016 174.291 111.968C174.341 111.874 174.39 111.779 174.44 111.685C174.465 111.638 174.49 111.591 174.515 111.543C174.54 111.497 174.564 111.451 174.589 111.403C174.967 110.689 175.348 109.977 175.73 109.266C176.015 108.733 176.295 108.198 176.573 107.662C176.823 107.182 177.081 106.708 177.342 106.234C177.627 105.714 177.9 105.188 178.172 104.661C178.401 104.218 178.636 103.779 178.876 103.343C179.21 102.737 179.529 102.124 179.846 101.509C180.086 101.044 180.333 100.582 180.586 100.124C180.895 99.5633 181.185 98.9948 181.469 98.421C181.66 98.0359 181.856 97.6547 182.059 97.2762C182.515 96.4222 182.928 95.5449 183.348 94.6727C183.446 94.4695 183.545 94.2671 183.646 94.0653ZM188.215 100.136C188.092 100.399 187.969 100.661 187.846 100.924C187.801 101.019 187.756 101.115 187.711 101.21C187.483 101.695 187.256 102.18 187.033 102.667C186.519 103.787 185.98 104.893 185.436 105.999C185.406 106.061 185.375 106.123 185.344 106.187C185.286 106.304 185.229 106.421 185.171 106.537C185.132 106.617 185.132 106.617 185.092 106.698C185.069 106.743 185.047 106.789 185.024 106.836C184.929 107.038 184.843 107.243 184.756 107.447C186.716 107.447 188.676 107.447 190.696 107.447C190.582 107.031 190.471 106.626 190.336 106.218C190.321 106.172 190.306 106.126 190.29 106.079C190.241 105.93 190.192 105.78 190.142 105.631C190.107 105.525 190.072 105.419 190.037 105.312C189.945 105.033 189.853 104.754 189.76 104.475C189.596 103.979 189.433 103.483 189.269 102.987C189.252 102.934 189.234 102.881 189.216 102.827C188.921 101.932 188.63 101.035 188.346 100.136C188.303 100.136 188.26 100.136 188.215 100.136Z" fill="black"/>
<path d="M166.16 96.501C166.266 96.6029 166.372 96.7049 166.478 96.8069C166.545 96.8594 166.612 96.912 166.682 96.9661C166.978 97.2304 167.214 97.5378 167.457 97.8514C167.535 97.9512 167.535 97.9512 167.615 98.0531C169.04 99.9294 169.682 102.264 169.938 104.575C169.946 104.653 169.955 104.73 169.964 104.81C170.319 108.826 169.335 113.299 166.739 116.456C164.309 119.32 161.139 120.342 157.503 120.66C156.422 120.746 155.343 120.773 154.259 120.771C154.126 120.771 153.994 120.771 153.861 120.771C153.505 120.771 153.15 120.771 152.794 120.771C152.421 120.77 152.047 120.77 151.674 120.77C150.969 120.77 150.264 120.769 149.558 120.769C148.755 120.768 147.951 120.767 147.148 120.767C145.497 120.766 143.846 120.765 142.194 120.764C142.215 120.488 142.235 120.212 142.255 119.936C142.263 119.821 142.263 119.821 142.272 119.703C142.31 119.183 142.353 118.664 142.4 118.145C142.407 118.065 142.414 117.984 142.422 117.901C142.43 117.805 142.43 117.805 142.439 117.707C143.016 111.245 143.263 104.726 143.435 94.0653C143.501 94.0656 143.568 94.0659 143.637 94.0662C144.5 94.0698 145.362 94.0721 146.225 94.0734C146.33 94.0736 146.33 94.0736 146.437 94.0738C148.398 94.0765 150.357 94.0591 152.317 94C152.42 93.9969 152.522 93.9939 152.625 93.9908C152.676 93.9893 152.726 93.9878 152.778 93.9862C153.025 93.9789 153.273 93.9716 153.52 93.9643C153.567 93.9629 153.614 93.9615 153.662 93.9601C163.066 93.684 163.066 93.684 166.16 96.501ZM152.065 99.7735C152.014 99.776 151.962 99.7786 151.909 99.7812C151.704 99.7929 151.529 99.8096 151.333 99.875C151.277 101.12 151.221 102.366 151.165 103.611C151.139 104.19 151.113 104.769 151.086 105.348C151.056 106.02 151.026 106.693 150.995 107.365C150.993 107.421 150.991 107.476 150.988 107.533C150.879 109.963 150.778 112.393 150.681 114.824C153.101 115.242 156.38 115.136 158.449 113.714C160.323 112.299 161.102 110.166 161.423 107.909C161.472 107.443 161.467 106.973 161.468 106.505C161.468 106.455 161.468 106.406 161.468 106.355C161.467 105.614 161.439 104.904 161.256 104.183C161.245 104.14 161.234 104.096 161.223 104.052C160.975 103.089 160.562 102.178 159.885 101.442C159.839 101.391 159.794 101.34 159.747 101.288C158.684 100.161 157.112 99.7938 155.607 99.7384C155.436 99.7359 155.266 99.7354 155.095 99.7358C155.032 99.7357 154.97 99.7356 154.905 99.7356C154.773 99.7355 154.64 99.7357 154.508 99.7359C154.31 99.7363 154.112 99.7359 153.914 99.7355C153.297 99.7353 152.682 99.7425 152.065 99.7735Z" fill="black"/>
<path d="M240.111 94.0653C243.17 94.0653 246.229 94.0653 249.381 94.0653C249.673 94.651 249.673 94.651 249.78 94.9027C249.804 94.9594 249.829 95.016 249.854 95.0743C249.892 95.1646 249.892 95.1646 249.931 95.2566C250.423 96.3972 250.941 97.5264 251.502 98.6348C252.145 99.9073 252.73 101.207 253.288 102.518C253.322 102.597 253.355 102.675 253.39 102.756C253.419 102.825 253.449 102.894 253.479 102.966C253.557 103.148 253.557 103.148 253.689 103.335C254.137 102.571 254.583 101.807 255.015 101.034C255.379 100.385 255.762 99.7483 256.15 99.1135C256.197 99.0361 256.245 98.9587 256.292 98.8813C256.315 98.8435 256.338 98.8057 256.362 98.7667C256.573 98.4201 256.78 98.0709 256.985 97.7209C257.354 97.0932 257.731 96.4706 258.111 95.8494C258.176 95.7421 258.176 95.7421 258.243 95.6328C258.287 95.5647 258.331 95.4966 258.376 95.4264C258.483 95.252 258.553 95.0858 258.616 94.8914C258.739 94.557 258.879 94.279 259.172 94.0653C259.78 93.8699 260.466 93.9327 261.097 93.9528C261.353 93.9598 261.609 93.9604 261.866 93.9617C262.35 93.9652 262.834 93.9742 263.319 93.9854C263.87 93.9978 264.422 94.0039 264.974 94.0095C266.108 94.0211 267.242 94.0406 268.376 94.0653C268.279 94.3183 268.165 94.5264 268.012 94.7507C267.966 94.8197 267.919 94.8886 267.871 94.9596C267.822 95.0307 267.774 95.1018 267.724 95.175C267.631 95.3124 267.538 95.4497 267.445 95.5871C267.346 95.7327 267.247 95.8782 267.148 96.0237C267.094 96.1034 267.04 96.1831 266.986 96.2628C266.874 96.4277 266.762 96.5926 266.65 96.7575C266.413 97.1061 266.177 97.4548 265.94 97.8035C265.811 97.9936 265.682 98.1836 265.553 98.3737C265.501 98.4498 265.45 98.526 265.398 98.6021C264.468 99.973 263.538 101.344 262.607 102.715C262.582 102.752 262.556 102.79 262.53 102.829C262.478 102.905 262.427 102.981 262.375 103.057C262.245 103.248 262.116 103.44 261.986 103.631C261.736 103.999 261.486 104.368 261.235 104.736C260.949 105.157 260.664 105.577 260.379 105.998C260.272 106.156 260.165 106.314 260.058 106.473C258.359 108.561 258.359 108.561 257.305 110.921C257.301 110.972 257.296 111.024 257.291 111.077C257.273 111.316 257.26 111.556 257.25 111.795C257.247 111.848 257.245 111.901 257.243 111.956C257.235 112.131 257.228 112.306 257.22 112.481C257.215 112.606 257.209 112.731 257.204 112.857C257.192 113.121 257.181 113.385 257.17 113.65C257.159 113.913 257.147 114.176 257.136 114.439C257.044 116.547 256.966 118.655 256.887 120.764C254.044 120.764 251.2 120.764 248.271 120.764C248.401 119.197 248.401 119.197 248.443 118.698C248.704 115.614 248.704 115.614 248.897 112.525C248.911 112.252 248.926 111.98 248.946 111.707C249.042 110.427 248.868 109.574 248.139 108.493C247.923 108.163 247.738 107.817 247.549 107.472C247.473 107.335 247.396 107.199 247.32 107.063C247.283 106.997 247.245 106.93 247.207 106.862C247.029 106.545 246.85 106.229 246.672 105.913C246.262 105.189 245.855 104.463 245.449 103.737C245.258 103.396 245.067 103.055 244.876 102.715C244.647 102.305 244.418 101.896 244.189 101.486C243.821 100.829 243.452 100.172 243.081 99.516C242.788 98.9972 242.495 98.4777 242.204 97.9575C242.166 97.89 242.128 97.8224 242.089 97.7528C241.895 97.4057 241.701 97.0585 241.507 96.7111C241.43 96.5717 241.352 96.4323 241.274 96.2929C241.236 96.2257 241.199 96.1584 241.16 96.0891C240.98 95.7677 240.799 95.4477 240.612 95.1302C240.578 95.0728 240.545 95.0154 240.51 94.9562C240.447 94.8493 240.384 94.7427 240.32 94.6363C240.292 94.5894 240.265 94.5425 240.236 94.4942C240.212 94.4537 240.187 94.4131 240.162 94.3713C240.111 94.2612 240.111 94.2612 240.111 94.0653Z" fill="black"/>
<path d="M220.593 94.0653C223.458 94.0653 226.323 94.0653 229.275 94.0653C229.275 95.1889 229.275 95.1889 229.241 95.6464C229.238 95.6997 229.234 95.7529 229.23 95.8078C229.222 95.9231 229.214 96.0384 229.206 96.1536C229.193 96.344 229.18 96.5344 229.167 96.7248C229.148 97.0061 229.129 97.2874 229.109 97.5687C228.895 100.715 228.716 103.863 228.55 107.013C228.535 107.285 228.521 107.558 228.506 107.831C228.473 108.456 228.441 109.081 228.408 109.706C228.401 109.848 228.393 109.991 228.386 110.134C228.331 111.171 228.285 112.209 228.253 113.247C228.236 113.796 228.21 114.342 228.165 114.889C229.153 114.89 230.141 114.892 231.128 114.892C231.587 114.893 232.046 114.893 232.505 114.894C234.379 114.897 236.252 114.898 238.125 114.847C238.233 114.844 238.341 114.841 238.449 114.838C238.526 114.836 238.526 114.836 238.604 114.834C239.171 114.819 239.739 114.821 240.307 114.824C240.26 115.957 240.183 117.088 240.101 118.219C240.082 118.48 240.063 118.741 240.045 119.002C240.031 119.205 240.016 119.407 240.001 119.61C239.994 119.706 239.987 119.803 239.981 119.899C239.971 120.033 239.961 120.166 239.952 120.3C239.946 120.375 239.941 120.451 239.935 120.529C239.915 120.699 239.915 120.699 239.85 120.764C239.739 120.77 239.628 120.772 239.517 120.772C239.408 120.772 239.408 120.772 239.297 120.772C239.216 120.772 239.135 120.772 239.052 120.772C238.966 120.772 238.881 120.772 238.794 120.772C238.556 120.772 238.319 120.772 238.082 120.771C237.826 120.771 237.571 120.771 237.316 120.771C236.873 120.771 236.43 120.771 235.987 120.771C235.346 120.77 234.706 120.77 234.065 120.77C233.026 120.77 231.987 120.769 230.948 120.769C229.939 120.768 228.929 120.768 227.92 120.768C227.857 120.767 227.795 120.767 227.731 120.767C227.419 120.767 227.107 120.767 226.795 120.767C224.206 120.767 221.616 120.765 219.026 120.764C219.047 120.525 219.068 120.285 219.088 120.046C219.094 119.979 219.1 119.912 219.106 119.843C219.152 119.312 219.203 118.782 219.256 118.252C219.786 112.892 220.138 107.519 220.509 96.1791C220.51 96.1134 220.511 96.0476 220.512 95.9799C220.513 95.8623 220.514 95.7448 220.515 95.6272C220.522 95.1037 220.56 94.5905 220.593 94.0653Z" fill="black"/>
<path d="M206.754 94.0653C209.662 94.0653 212.57 94.0653 215.567 94.0653C215.567 94.9461 215.567 94.9461 215.535 95.3661C215.531 95.4123 215.528 95.4585 215.524 95.506C215.517 95.6054 215.51 95.7048 215.502 95.8041C215.49 95.9653 215.478 96.1264 215.466 96.2876C215.449 96.5209 215.431 96.7542 215.414 96.9876C215.001 102.565 214.768 108.153 214.565 117.666C214.564 117.715 214.563 117.764 214.563 117.814C214.547 118.797 214.535 119.781 214.522 120.764C211.593 120.764 208.663 120.764 205.644 120.764C205.719 119.267 205.719 119.267 205.754 118.767C205.758 118.709 205.762 118.65 205.766 118.59C205.774 118.465 205.783 118.34 205.791 118.216C205.815 117.869 205.838 117.522 205.861 117.175C205.869 117.066 205.869 117.066 205.876 116.954C206.115 113.395 206.329 109.835 206.493 106.272C206.496 106.214 206.498 106.156 206.501 106.096C206.61 103.716 206.687 101.335 206.715 98.952C206.716 98.8809 206.717 98.8099 206.718 98.7367C206.736 97.1796 206.744 95.6225 206.754 94.0653Z" fill="black"/>
<path d="M149.366 125.057C149.529 125.056 149.693 125.055 149.856 125.054C152.02 125.035 154.224 125.15 155.968 126.574C156.013 126.608 156.058 126.643 156.105 126.678C157.463 127.772 158.114 129.698 158.306 131.376C158.335 131.76 158.334 132.145 158.334 132.53C158.334 132.577 158.334 132.623 158.335 132.671C158.333 133.438 158.287 134.178 158.122 134.929C158.111 134.98 158.101 135.031 158.089 135.084C157.647 137.095 156.637 138.963 154.885 140.112C152.824 141.417 150.439 141.403 148.078 141.398C147.843 141.398 147.608 141.398 147.373 141.398C146.929 141.398 146.486 141.397 146.042 141.396C145.537 141.396 145.031 141.395 144.526 141.395C143.488 141.394 142.449 141.393 141.411 141.392C141.432 141.11 141.453 140.829 141.473 140.547C141.479 140.468 141.485 140.389 141.491 140.308C141.522 139.884 141.555 139.461 141.59 139.038C141.976 134.417 142.071 129.771 142.194 125.137C142.315 125.138 142.315 125.138 142.438 125.138C144.363 125.148 144.363 125.148 146.288 125.109C147.313 125.075 148.339 125.061 149.366 125.057ZM147.025 128.662C146.951 129.03 146.938 129.396 146.922 129.769C146.919 129.84 146.916 129.912 146.913 129.985C146.902 130.221 146.892 130.457 146.882 130.693C146.875 130.858 146.868 131.023 146.86 131.188C146.845 131.534 146.83 131.88 146.815 132.226C146.798 132.624 146.781 133.021 146.763 133.418C146.746 133.802 146.73 134.187 146.713 134.572C146.706 134.734 146.699 134.896 146.692 135.059C146.652 135.952 146.622 136.842 146.633 137.736C146.958 137.899 147.444 137.817 147.808 137.818C147.859 137.818 147.909 137.818 147.962 137.818C149.269 137.817 150.462 137.718 151.529 136.887C151.584 136.846 151.639 136.805 151.695 136.763C152.684 135.922 153.047 134.446 153.148 133.204C153.223 131.92 153.002 130.656 152.194 129.621C151.541 128.905 150.571 128.667 149.636 128.597C149.372 128.588 149.109 128.588 148.845 128.589C148.737 128.589 148.737 128.589 148.628 128.589C148.091 128.592 147.56 128.614 147.025 128.662Z" fill="black"/>
<path d="M258.902 125.057C259.065 125.056 259.229 125.055 259.392 125.054C261.466 125.036 263.877 125.092 265.504 126.574C265.556 126.615 265.607 126.657 265.661 126.7C267.022 127.837 267.673 129.683 267.854 131.404C267.878 131.781 267.88 132.157 267.879 132.534C267.879 132.586 267.878 132.637 267.878 132.69C267.869 135.009 267.248 137.27 265.7 139.042C265.661 139.086 265.623 139.131 265.583 139.176C263.974 140.893 261.739 141.274 259.499 141.392C258.87 141.411 258.242 141.408 257.613 141.405C257.377 141.404 257.142 141.404 256.907 141.404C256.463 141.403 256.02 141.402 255.577 141.401C255.071 141.4 254.566 141.399 254.06 141.398C253.022 141.397 251.985 141.395 250.947 141.392C250.951 141.347 250.955 141.302 250.959 141.256C251.14 139.102 251.315 136.949 251.409 134.789C251.419 134.563 251.43 134.337 251.44 134.111C251.578 131.121 251.672 128.13 251.731 125.137C251.851 125.138 251.851 125.138 251.974 125.139C253.899 125.148 253.899 125.148 255.824 125.109C256.849 125.075 257.875 125.061 258.902 125.057ZM256.561 128.662C256.513 129.152 256.48 129.64 256.458 130.131C256.455 130.202 256.452 130.273 256.449 130.346C256.438 130.58 256.428 130.813 256.418 131.046C256.411 131.21 256.404 131.374 256.396 131.537C256.381 131.879 256.366 132.222 256.351 132.564C256.336 132.914 256.321 133.264 256.305 133.613C256.286 134.038 256.268 134.462 256.249 134.887C256.242 135.048 256.235 135.209 256.228 135.369C256.174 136.552 256.174 136.552 256.169 137.736C256.494 137.898 256.978 137.817 257.34 137.818C257.416 137.818 257.416 137.818 257.493 137.818C258.956 137.816 260.271 137.685 261.391 136.635C262.421 135.531 262.738 133.907 262.714 132.442C262.64 131.295 262.323 130.17 261.463 129.356C260.576 128.667 259.46 128.584 258.381 128.589C258.273 128.589 258.273 128.589 258.164 128.589C257.627 128.592 257.096 128.614 256.561 128.662Z" fill="black"/>
<path d="M110.289 92.2774C110.455 92.2771 110.621 92.2768 110.786 92.2763C111.188 92.2755 111.59 92.2757 111.992 92.2762C112.319 92.2767 112.646 92.2767 112.973 92.2765C113.02 92.2765 113.066 92.2765 113.114 92.2764C113.209 92.2764 113.304 92.2763 113.399 92.2762C114.287 92.2757 115.175 92.2763 116.063 92.2774C116.823 92.2782 117.584 92.2781 118.344 92.2772C119.229 92.2761 120.114 92.2757 120.999 92.2763C121.094 92.2764 121.188 92.2765 121.283 92.2765C121.352 92.2766 121.352 92.2766 121.424 92.2766C121.75 92.2768 122.076 92.2765 122.402 92.276C122.842 92.2754 123.282 92.2759 123.721 92.277C123.882 92.2772 124.043 92.2772 124.204 92.2767C125.655 92.2732 126.906 92.3676 128.003 93.4344C128.842 94.3647 129.054 95.3806 129.017 96.5882C128.999 96.9004 128.931 97.1717 128.812 97.4597C128.786 97.5237 128.76 97.5877 128.733 97.6537C128.509 98.1453 128.216 98.5177 127.833 98.8958C127.798 98.9326 127.763 98.9693 127.726 99.0072C127.033 99.6703 126.117 99.8951 125.189 99.8924C125.115 99.8927 125.04 99.893 124.964 99.8933C124.715 99.8941 124.466 99.894 124.217 99.8939C124.038 99.8942 123.859 99.8947 123.68 99.8952C123.245 99.8963 122.81 99.8967 122.376 99.8968C122.022 99.8968 121.668 99.8971 121.314 99.8975C120.31 99.8986 119.306 99.8993 118.302 99.8992C118.248 99.8991 118.194 99.8991 118.138 99.8991C118.084 99.8991 118.03 99.8991 117.974 99.8991C117.097 99.8991 116.22 99.9003 115.343 99.9022C114.442 99.904 113.54 99.9049 112.638 99.9048C112.133 99.9048 111.627 99.9051 111.121 99.9065C110.691 99.9077 110.26 99.908 109.829 99.9071C109.61 99.9067 109.39 99.9068 109.171 99.9078C107.886 99.9133 106.843 99.8643 105.851 98.9447C105.093 98.127 104.863 97.2247 104.9 96.137C104.968 94.917 105.572 94.0155 106.439 93.2107C107.56 92.269 108.903 92.2736 110.289 92.2774Z" fill="#7171FF"/>
<path d="M235.999 125.137C240.393 125.137 244.788 125.137 249.315 125.137C249.271 126.335 249.205 127.532 249.119 128.728C246.47 128.728 243.82 128.728 241.09 128.728C241.09 129.115 241.09 129.503 241.09 129.903C241.083 130.129 241.075 130.354 241.062 130.58C241.059 130.632 241.057 130.683 241.054 130.737C241.041 130.967 241.021 131.182 240.96 131.404C241.053 131.403 241.053 131.403 241.147 131.402C241.739 131.394 242.33 131.386 242.921 131.379C243.225 131.375 243.529 131.371 243.833 131.367C245.138 131.349 246.443 131.333 247.749 131.339C247.768 132.11 247.707 132.875 247.651 133.644C247.633 133.885 247.616 134.126 247.598 134.367C247.59 134.486 247.581 134.606 247.572 134.726C247.567 134.803 247.567 134.803 247.561 134.882C247.558 134.919 247.556 134.956 247.553 134.994C247.451 134.995 247.451 134.995 247.348 134.996C246.704 135.003 246.061 135.01 245.418 135.017C245.087 135.02 244.757 135.024 244.426 135.027C244.106 135.03 243.786 135.033 243.466 135.037C243.345 135.038 243.224 135.04 243.103 135.041C242.931 135.042 242.759 135.044 242.588 135.046C242.539 135.047 242.491 135.047 242.441 135.047C241.88 135.055 241.326 135.094 240.764 135.125C240.721 136.008 240.678 136.891 240.633 137.801C244.682 137.819 244.682 137.819 248.728 137.671C248.696 138.512 248.655 139.352 248.606 140.192C248.6 140.29 248.594 140.388 248.589 140.486C248.581 140.625 248.573 140.763 248.565 140.902C248.56 140.982 248.555 141.062 248.55 141.145C248.532 141.326 248.532 141.326 248.467 141.392C248.296 141.398 248.127 141.4 247.956 141.399C247.902 141.4 247.847 141.4 247.792 141.4C247.609 141.4 247.426 141.399 247.243 141.399C247.112 141.399 246.982 141.399 246.851 141.399C246.496 141.399 246.14 141.399 245.784 141.398C245.413 141.398 245.042 141.398 244.671 141.398C243.967 141.398 243.264 141.397 242.56 141.396C241.759 141.396 240.959 141.395 240.158 141.395C238.51 141.394 236.863 141.393 235.215 141.392C235.21 140.637 235.21 140.637 235.242 140.297C235.248 140.232 235.254 140.167 235.26 140.1C235.267 140.031 235.273 139.963 235.28 139.892C235.294 139.739 235.308 139.587 235.321 139.434C235.329 139.354 235.336 139.274 235.344 139.192C235.582 136.58 235.725 133.966 235.837 131.345C235.843 131.202 235.85 131.058 235.856 130.915C235.94 128.989 235.964 127.066 235.999 125.137Z" fill="black"/>
<path d="M161.517 125.137C165.911 125.137 170.306 125.137 174.833 125.137C174.703 127.749 174.703 127.749 174.638 128.728C171.988 128.728 169.338 128.728 166.608 128.728C166.608 129.008 166.608 129.288 166.608 129.576C166.601 129.737 166.592 129.898 166.58 130.059C166.574 130.139 166.568 130.218 166.562 130.301C166.556 130.381 166.55 130.461 166.543 130.543C166.537 130.627 166.531 130.71 166.524 130.796C166.509 130.999 166.494 131.201 166.478 131.404C166.571 131.403 166.571 131.403 166.666 131.402C167.257 131.394 167.848 131.386 168.439 131.379C168.743 131.375 169.047 131.371 169.351 131.367C170.656 131.349 171.961 131.333 173.267 131.339C173.223 132.559 173.147 133.775 173.071 134.994C170.809 135.016 168.547 135.037 166.217 135.06C166.217 135.404 166.217 135.749 166.217 136.104C166.209 136.334 166.201 136.564 166.188 136.794C166.186 136.847 166.183 136.901 166.18 136.956C166.164 137.263 166.132 137.562 166.086 137.867C170.168 137.829 170.168 137.829 174.246 137.671C174.22 138.115 174.194 138.559 174.167 139.004C174.165 139.052 174.162 139.1 174.159 139.15C174.153 139.248 174.147 139.346 174.141 139.444C174.127 139.695 174.112 139.946 174.099 140.198C174.095 140.272 174.095 140.272 174.09 140.349C174.085 140.443 174.08 140.537 174.075 140.631C174.061 140.891 174.028 141.132 173.985 141.392C169.59 141.392 165.196 141.392 160.668 141.392C160.776 140.099 160.884 138.807 160.994 137.475C161.171 135.018 161.286 132.56 161.386 130.099C161.389 130.026 161.392 129.954 161.395 129.88C161.461 128.299 161.484 126.719 161.517 125.137Z" fill="black"/>
<path d="M121.215 103.823C121.319 103.823 121.423 103.822 121.527 103.822C121.806 103.821 122.085 103.821 122.364 103.822C122.658 103.823 122.952 103.822 123.246 103.822C123.739 103.821 124.233 103.822 124.726 103.823C125.294 103.824 125.861 103.824 126.429 103.822C126.92 103.821 127.41 103.821 127.9 103.822C128.192 103.822 128.483 103.822 128.775 103.821C129.049 103.821 129.324 103.821 129.598 103.823C129.698 103.823 129.798 103.823 129.897 103.822C131.117 103.816 132.194 104.081 133.102 104.944C133.837 105.699 134.22 106.606 134.259 107.663C134.23 108.727 133.839 109.643 133.106 110.412C132.407 111.062 131.593 111.436 130.637 111.439C130.569 111.439 130.569 111.439 130.499 111.44C130.347 111.44 130.195 111.441 130.043 111.441C129.934 111.441 129.824 111.442 129.715 111.442C129.356 111.443 128.998 111.444 128.639 111.445C128.515 111.445 128.392 111.445 128.268 111.446C127.686 111.447 127.105 111.448 126.523 111.448C125.853 111.449 125.183 111.451 124.513 111.453C123.994 111.455 123.475 111.456 122.957 111.456C122.647 111.457 122.338 111.457 122.029 111.459C121.737 111.46 121.446 111.461 121.154 111.46C121.048 111.46 120.941 111.46 120.835 111.461C119.677 111.47 118.665 111.176 117.808 110.363C117.095 109.577 116.708 108.616 116.726 107.546C116.79 106.464 117.227 105.515 118.015 104.767C118.962 104.001 120.031 103.816 121.215 103.823Z" fill="#7171FF"/>
<path d="M120.661 134.447C120.763 134.447 120.865 134.446 120.968 134.446C121.242 134.445 121.516 134.445 121.791 134.446C122.08 134.446 122.369 134.446 122.658 134.446C123.143 134.445 123.629 134.446 124.114 134.447C124.672 134.448 125.231 134.447 125.789 134.446C126.272 134.445 126.754 134.445 127.236 134.446C127.522 134.446 127.809 134.446 128.096 134.446C128.366 134.445 128.636 134.445 128.906 134.447C129.004 134.447 129.102 134.447 129.2 134.446C130.487 134.441 131.614 134.672 132.568 135.599C133.437 136.561 133.634 137.558 133.589 138.81C133.528 139.69 133.036 140.535 132.403 141.131C131.718 141.696 130.919 142.06 130.024 142.062C129.978 142.062 129.932 142.063 129.885 142.063C129.732 142.064 129.58 142.064 129.427 142.063C129.317 142.064 129.207 142.064 129.097 142.065C128.8 142.066 128.502 142.066 128.204 142.066C128.018 142.066 127.832 142.067 127.645 142.067C126.994 142.068 126.343 142.069 125.692 142.069C125.087 142.069 124.482 142.07 123.876 142.072C123.355 142.074 122.834 142.074 122.313 142.074C122.003 142.074 121.692 142.075 121.382 142.076C121.089 142.077 120.797 142.077 120.505 142.076C120.398 142.076 120.291 142.077 120.185 142.077C119.051 142.085 118.078 141.816 117.238 141.016C116.434 140.162 116.11 139.192 116.131 138.034C116.174 137.03 116.615 136.165 117.321 135.467C117.579 135.23 117.853 135.052 118.164 134.892C118.203 134.872 118.242 134.852 118.282 134.831C119.034 134.478 119.846 134.443 120.661 134.447Z" fill="#6868FF"/>
<path d="M177.64 125.137C182.681 125.137 187.722 125.137 192.915 125.137C192.785 128.14 192.785 128.14 192.719 128.858C192.622 128.854 192.526 128.85 192.426 128.845C191.38 128.8 190.335 128.774 189.288 128.756C189.132 128.753 188.976 128.751 188.82 128.748C188.444 128.741 188.069 128.734 187.693 128.728C187.694 128.774 187.694 128.821 187.695 128.868C187.699 129.377 187.675 129.88 187.641 130.387C187.632 130.513 187.624 130.64 187.616 130.767C187.607 130.901 187.598 131.035 187.589 131.169C187.435 133.492 187.335 135.814 187.265 138.141C187.263 138.188 187.262 138.235 187.26 138.283C187.229 139.319 187.2 140.355 187.171 141.392C185.426 141.392 183.681 141.392 181.883 141.392C181.958 140.129 181.958 140.129 182.005 139.583C182.016 139.457 182.027 139.33 182.037 139.203C182.043 139.138 182.048 139.073 182.054 139.005C182.283 136.263 182.416 133.519 182.494 130.769C182.496 130.686 182.499 130.603 182.501 130.517C182.506 130.363 182.51 130.209 182.514 130.054C182.517 129.95 182.517 129.95 182.52 129.843C182.521 129.783 182.523 129.724 182.525 129.662C182.541 129.35 182.573 129.039 182.601 128.728C180.921 128.771 179.241 128.814 177.51 128.858C177.553 127.63 177.596 126.403 177.64 125.137Z" fill="black"/>
<path d="M221.507 125.137C223.273 125.137 225.04 125.137 226.86 125.137C226.785 126.854 226.785 126.854 226.74 127.527C226.73 127.687 226.719 127.848 226.709 128.008C226.704 128.09 226.698 128.173 226.693 128.258C226.585 129.921 226.488 131.585 226.399 133.249C226.391 133.405 226.382 133.56 226.374 133.716C226.358 134.012 226.342 134.308 226.326 134.603C226.323 134.674 226.323 134.674 226.319 134.746C226.293 135.254 226.269 135.762 226.253 136.27C226.251 136.314 226.25 136.359 226.248 136.405C226.242 136.614 226.235 136.823 226.23 137.033C226.228 137.105 226.226 137.178 226.223 137.253C226.221 137.349 226.221 137.349 226.218 137.446C226.207 137.606 226.207 137.606 226.142 137.801C228.576 137.78 231.01 137.758 233.518 137.736C233.518 138.252 233.515 138.753 233.477 139.265C233.471 139.354 233.471 139.354 233.465 139.445C233.456 139.569 233.447 139.693 233.438 139.816C233.424 140.007 233.411 140.197 233.398 140.387C233.389 140.508 233.38 140.629 233.371 140.75C233.367 140.807 233.364 140.864 233.359 140.923C233.33 141.319 233.33 141.319 233.257 141.392C233.093 141.398 232.932 141.4 232.768 141.399C232.717 141.4 232.665 141.4 232.611 141.4C232.437 141.4 232.262 141.399 232.087 141.399C231.962 141.399 231.837 141.399 231.713 141.399C231.373 141.399 231.033 141.399 230.693 141.398C230.338 141.398 229.984 141.398 229.629 141.398C228.957 141.398 228.284 141.397 227.612 141.396C226.847 141.396 226.082 141.395 225.316 141.395C223.742 141.394 222.167 141.393 220.593 141.392C220.603 141.226 220.613 141.06 220.624 140.894C220.628 140.824 220.628 140.824 220.632 140.752C220.656 140.367 220.689 139.982 220.727 139.598C220.74 139.458 220.754 139.318 220.767 139.178C220.774 139.106 220.781 139.033 220.788 138.959C221.222 134.362 221.424 129.752 221.507 125.137Z" fill="black"/>
<path d="M213.151 125.137C214.918 125.137 216.684 125.137 218.504 125.137C218.504 125.945 218.504 125.945 218.483 126.216C218.479 126.278 218.474 126.34 218.469 126.404C218.464 126.47 218.459 126.535 218.454 126.602C218.443 126.75 218.432 126.897 218.421 127.045C218.416 127.122 218.41 127.2 218.404 127.28C218.059 131.978 217.966 136.684 217.851 141.392C216.063 141.392 214.275 141.392 212.433 141.392C212.459 140.983 212.485 140.574 212.512 140.153C212.856 134.755 212.856 134.755 213.061 129.35C213.063 129.29 213.064 129.229 213.066 129.167C213.099 127.824 213.124 126.481 213.151 125.137Z" fill="black"/>
<path d="M209.936 221.231L213.053 241.184L223.981 233.218L218.714 216.957L209.936 221.231Z" fill="#EA8C8C"/>
<path d="M213.053 228.299L229.952 225.268L216.365 206.536C215.809 205.773 214.887 205.349 213.935 205.428L209.019 205.824L213.053 228.299Z" fill="#E5E5E5"/>
<path d="M246.162 207.204L268.459 198.853C270.104 198.236 270.797 196.314 269.915 194.816C269.084 193.397 267.204 192.978 265.835 193.9L246.162 207.204Z" fill="#59ABE8"/>
<path d="M246.971 207.413C246.69 207.52 256.678 204.936 266.305 216.849C267.055 217.777 268.201 218.314 269.399 218.263C272.86 218.122 274.304 213.779 271.565 211.693C266.098 207.515 257.434 203.444 246.971 207.413Z" fill="#59ABE8"/>
<path d="M251.331 200.707C251.331 200.707 255.663 198.502 256.781 191.485C257.021 189.982 258.712 189.179 260.053 189.931C261.153 190.547 261.503 191.943 260.826 192.995C259.061 195.715 255.486 200.34 251.331 200.707Z" fill="#59ABE8"/>
<path d="M262.786 204.852C262.924 204.852 267.256 205.332 269.628 205.598C270.436 205.688 271.141 205.061 271.141 204.258C271.141 203.365 270.27 202.714 269.399 202.963L262.786 204.852Z" fill="#59ABE8"/>
<path d="M173.13 245.159L216.394 246.465L212.623 205.609L169.801 209.923L173.13 245.159Z" fill="#E5E5E5"/>
<path d="M179.915 260.5L169.801 209.923L177.8 209.115L179.915 221.927C180.74 224.488 183.295 226.116 186 225.794L200.589 224.081C203.455 223.742 205.609 221.339 205.598 218.495L204.744 206.112L212.594 205.298L225.5 259.5L220.5 261.5L215 262.545L209 263.5H202L190 262.545L179.915 260.5Z" fill="#2C65A8"/>
<path d="M165.52 263.003C165.016 263.003 164.506 262.992 163.973 262.963C157.429 262.641 145.842 258.095 140.725 246.895C138.267 241.506 133.935 227.479 146.828 213.587C152.959 206.978 171.606 197.598 190.092 210.8C190.344 210.981 190.395 211.325 190.218 211.569C190.034 211.817 189.685 211.868 189.438 211.693C171.56 198.921 153.567 207.956 147.653 214.328C135.213 227.745 139.378 241.252 141.751 246.442C146.662 257.191 157.767 261.556 164.036 261.861C169.136 262.115 172.843 261.115 175.05 258.893C177.33 256.603 177.158 253.742 177.153 253.713C177.13 253.408 177.365 253.148 177.668 253.125C177.972 253.097 178.241 253.329 178.264 253.634C178.276 253.77 178.488 256.993 175.857 259.65C173.657 261.878 170.184 263.003 165.52 263.003Z" fill="#5F4E6D"/>
<path d="M155.75 240.065L174.723 231.68L170.385 209.867L164.076 210.703C163.371 210.8 162.701 211.105 162.208 211.608C161.836 211.987 161.549 212.439 161.36 212.942L155.75 240.065Z" fill="#E5E5E5"/>
<path d="M155.75 240.065L156.615 242.835C157.452 245.498 160.472 246.827 163.039 245.651L171.932 241.574L170.54 231.437L159.085 234.247C156.483 234.88 154.959 237.543 155.75 240.065Z" fill="#F7ADAD"/>
<path d="M219.866 229.311L216.21 239.024C215.076 242.032 216.938 245.329 220.13 245.962L224.009 246.731C227.069 247.341 229.997 245.221 230.324 242.157L231.848 227.892L219.866 229.311Z" fill="#F7ADAD"/>
<path d="M246.857 204.578L188.867 223.964L189.945 227.102L247.934 207.716L246.857 204.578Z" fill="#5F4E6D"/>
<path d="M214.892 221.621C214.657 221.621 214.434 221.474 214.359 221.237L211.981 213.875C211.89 213.587 212.05 213.276 212.342 213.18C212.635 213.09 212.95 213.248 213.047 213.536L215.425 220.898C215.517 221.186 215.356 221.497 215.064 221.593C215.007 221.61 214.95 221.621 214.892 221.621Z" fill="#68D8C4"/>
<path d="M217.757 220.688C217.522 220.688 217.299 220.541 217.224 220.304L214.846 212.942C214.755 212.654 214.915 212.343 215.207 212.247C215.505 212.157 215.815 212.315 215.912 212.603L218.29 219.965C218.382 220.253 218.222 220.564 217.929 220.66C217.872 220.683 217.815 220.688 217.757 220.688Z" fill="#68D8C4"/>
<path d="M220.64 219.727C220.405 219.727 220.181 219.58 220.107 219.343L217.729 211.981C217.637 211.693 217.798 211.382 218.09 211.286C218.382 211.195 218.697 211.354 218.795 211.642L221.173 219.004C221.264 219.292 221.104 219.603 220.812 219.699C220.754 219.722 220.697 219.727 220.64 219.727Z" fill="#68D8C4"/>
<path d="M176.413 247.494L175.571 251.848C175.422 252.617 175.966 253.346 176.757 253.436L178.929 253.68C179.639 253.759 180.287 253.289 180.425 252.6L181.301 248.144L176.413 247.494Z" fill="#E5E5E5"/>
<path d="M174.494 248.851L184.419 249.637C185.53 249.727 186.539 249.004 186.802 247.935L190.991 230.792L210.291 223.889C211.03 223.623 211.443 222.843 211.236 222.091L209.208 214.808C208.973 213.966 208.062 213.502 207.231 213.802L179.462 223.742C178.677 224.024 178.075 224.652 177.84 225.438L171.886 245.091C171.342 246.872 172.608 248.698 174.494 248.851Z" fill="#68D8C4"/>
<path d="M243.446 205.468L244.478 208.968C244.684 209.663 245.36 210.121 246.094 210.065L250.942 209.663C251.824 209.59 252.42 208.736 252.174 207.899L250.363 201.77C250.099 200.871 249.016 200.487 248.231 201.013L244.071 203.789C243.509 204.151 243.257 204.829 243.446 205.468Z" fill="#FACB61"/>
<path d="M198.962 214.904L196.911 216.538C194.366 218.562 191.524 218.506 187.885 217.873L184.258 216.437C182.705 215.826 181.622 214.418 181.439 212.773V196.795L198.613 196.523L200.624 210.941C200.79 212.456 200.165 213.949 198.962 214.904Z" fill="#F7ADAD"/>
<path d="M181.439 205.304C185.175 207.481 191.564 209.16 200.418 209.103L199.145 197.654L191.965 198.429L181.267 198.395L181.439 205.304Z" fill="#EA8C8C"/>
<path d="M203.85 194.471L202.016 194.669L200.641 182.281L202.475 182.083C204.767 181.834 206.83 183.468 207.082 185.73L207.546 189.931C207.798 192.192 206.142 194.228 203.85 194.471Z" fill="#EA8C8C"/>
<path d="M203.604 188.913C203.667 188.902 204.285 189.331 204.881 189.75C205.323 190.066 205.936 189.716 205.878 189.179L205.202 179.092L201.948 179.522L203.604 188.913Z" fill="#5F4E6D"/>
<path d="M198.372 204.84L187.083 205.762C184.356 206.056 181.897 204.117 181.599 201.42L178.591 174.314C178.236 171.12 180.574 168.248 183.811 167.897L197.065 166.461C200.303 166.11 203.214 168.417 203.569 171.612L205.008 196.682C205.46 200.741 202.486 204.394 198.372 204.84Z" fill="#F7ADAD"/>
<path d="M203.758 173.319C196.687 174.998 185.788 177.616 179.141 179.222L179.794 185.119C183.863 184.938 194.968 184.339 204.182 182.315L203.758 173.319Z" fill="#EA8C8C"/>
<path d="M182.831 196.642L180.78 196.862C178.74 197.083 176.906 195.63 176.683 193.623L176.115 188.517C175.892 186.504 177.365 184.695 179.399 184.475L181.45 184.254L182.831 196.642Z" fill="#F7ADAD"/>
<path d="M182.768 192.401C183.244 192.113 183.519 191.587 183.485 191.039L182.906 181.761L179.468 182.179L180.482 191.299C180.596 192.379 181.823 192.972 182.768 192.401Z" fill="#5F4E6D"/>
<path d="M177.983 174.292L179.003 183.446L205.053 178.843L204.234 171.448C203.861 168.089 200.801 165.669 197.398 166.037L183.467 167.547C180.064 167.914 177.611 170.933 177.983 174.292Z" fill="#2C65A8"/>
<path d="M179.003 183.446L212.663 179.335C213.368 179.228 213.689 178.402 213.236 177.859C212.004 176.384 210.062 175.671 208.153 175.988L178.585 179.657L179.003 183.446Z" fill="#68D8C4"/>
<path d="M173.972 230.425C173.972 230.425 174.345 239.81 174.482 239.765C174.62 239.72 178.333 240.726 178.333 240.726C178.333 240.726 182.86 241.41 186.132 241.506C186.493 241.518 187.289 241.518 187.983 241.512C188.739 241.512 189.415 241.043 189.673 240.342L189.891 239.765L190.275 239.737C191.094 239.68 191.816 239.188 192.16 238.453L193.581 234.733L195.369 234.92C196.063 234.993 196.704 234.552 196.876 233.89L197.168 232.771C197.346 232.087 196.979 231.38 196.309 231.131L190.441 228.915C190.441 228.915 185.249 226.484 179.347 229.141C178.098 229.712 175.6 230.425 173.972 230.425Z" fill="#FACB61"/>
<path d="M169.342 231.12C168.924 231.29 168.672 231.714 168.723 232.16C168.947 234.038 169.617 239.053 169.95 241.535C170.047 242.253 170.809 242.677 171.485 242.394L175.772 240.585C176.173 240.415 176.413 240.014 176.368 239.584L175.411 230.673C175.342 230.023 174.66 229.622 174.047 229.871L169.342 231.12Z" fill="#E5AD3E"/>
<path d="M219.866 227.897C219.866 227.897 227.058 230.515 231.797 229.463C231.797 229.463 231.562 223.091 235 220.949C236.553 219.982 239.676 218.478 238.897 215.82C238.048 212.909 233.607 204.88 233.607 204.88C233.321 204.292 232.616 204.037 232.014 204.309L230.513 204.812C229.969 205.061 229.688 205.666 229.86 206.231L230.232 207.481L223.769 210.913C222.777 211.303 222.325 212.434 222.771 213.383L225.023 218.008L219.866 227.897Z" fill="#FACB61"/>
<path d="M232.696 231.488C232.519 231.912 232.009 232.189 231.447 232.172C229.075 232.081 223.012 231.589 219.866 231.437C218.955 231.391 218.353 230.668 218.646 229.984L219.689 225.082C219.866 224.675 220.353 224.414 220.892 224.426L232.977 224.759C233.797 224.782 234.364 225.427 234.106 226.043L232.696 231.488Z" fill="#E5AD3E"/>
<path d="M146.793 230.232C148.101 230.232 149.16 229.187 149.16 227.897C149.16 226.608 148.101 225.562 146.793 225.562C145.486 225.562 144.427 226.608 144.427 227.897C144.427 229.187 145.486 230.232 146.793 230.232Z" fill="#59ABE8"/>
<path d="M149.79 237.696C150.62 237.696 151.292 237.032 151.292 236.214C151.292 235.396 150.62 234.733 149.79 234.733C148.961 234.733 148.289 235.396 148.289 236.214C148.289 237.032 148.961 237.696 149.79 237.696Z" fill="#59ABE8"/>
<path d="M163.125 196.523C163.125 198.711 161.331 200.481 159.114 200.481C156.896 200.481 155.102 198.711 155.102 196.523C155.102 194.335 156.896 192.565 159.114 192.565C161.331 192.565 163.125 194.341 163.125 196.523Z" fill="#59ABE8"/>
<path d="M174.723 200.656C174.723 201.747 173.823 202.635 172.717 202.635C171.611 202.635 170.712 201.747 170.712 200.656C170.712 199.565 171.611 198.677 172.717 198.677C173.829 198.677 174.723 199.559 174.723 200.656Z" fill="#59ABE8"/>
<path d="M212.05 200.905C212.05 202.138 211.042 203.133 209.792 203.133C208.543 203.133 207.535 202.138 207.535 200.905C207.535 199.672 208.543 198.677 209.792 198.677C211.042 198.677 212.05 199.672 212.05 200.905Z" fill="#59ABE8"/>
<path d="M156.483 246.838C152.885 245.272 152.707 241.552 152.707 241.552C151.59 243.746 149.699 245.097 147.263 245.249C149.584 246.329 150.787 248.144 151.034 250.609C151.028 250.609 152.226 247.161 156.483 246.838Z" fill="#68D8C4"/>
<path d="M157.784 219.009C155.481 218.936 154.564 216.951 154.564 216.951C154.443 218.382 153.716 219.524 152.426 220.134C153.928 220.219 154.982 220.943 155.658 222.232C155.658 222.232 155.544 220.1 157.784 219.009Z" fill="#68D8C4"/>
<path d="M149.28 206.333C147.412 205.23 147.573 203.178 147.573 203.178C146.811 204.303 145.676 204.919 144.329 204.84C145.527 205.587 146.06 206.666 146.026 208.035C146.026 208.035 146.92 206.225 149.28 206.333Z" fill="#68D8C4"/>
<defs>
<filter id="filter0_d_63_171" x="0.5" y="10.9432" width="317.313" height="269.442" filterUnits="userSpaceOnUse" color-interpolation-filters="sRGB">
<feFlood flood-opacity="0" result="BackgroundImageFix"/>
<feColorMatrix in="SourceAlpha" type="matrix" values="0 0 0 0 0 0 0 0 0 0 0 0 0 0 0 0 0 0 127 0" result="hardAlpha"/>
<feOffset dy="7"/>
<feGaussianBlur stdDeviation="5"/>
<feComposite in2="hardAlpha" operator="out"/>
<feColorMatrix type="matrix" values="0 0 0 0 0 0 0 0 0 0 0 0 0 0 0 0 0 0 0.4 0"/>
<feBlend mode="normal" in2="BackgroundImageFix" result="effect1_dropShadow_63_171"/>
<feBlend mode="normal" in="SourceGraphic" in2="effect1_dropShadow_63_171" result="shape"/>
</filter>
</defs>
</svg>
