<?xml version="1.0" encoding="utf-8"?>
<!-- Generator: Adobe Illustrator 25.2.0, SVG Export Plug-In . SVG Version: 6.00 Build 0)  -->
<svg version="1.1" id="Layer_1" xmlns="http://www.w3.org/2000/svg" xmlns:xlink="http://www.w3.org/1999/xlink" x="0px" y="0px"
	 viewBox="0 0 1080 1080" style="enable-background:new 0 0 1080 1080;" xml:space="preserve">
<style type="text/css">
	.st0{fill:#FFFFFF;}
	.st1{fill:none;}
	.st2{fill:url(#SVGID_1_);}
	.st3{fill:url(#SVGID_2_);}
	.st4{fill:url(#SVGID_3_);}
	.st5{fill:url(#SVGID_4_);}
	.st6{fill:url(#SVGID_5_);}
</style>
<g>
	<path class="st0" d="M-721.19,826.61c0.9-9.28,1.51-16.7,1.84-22.28c0.49-8.3,0.98-19.04,1.47-32.23
		c0.37-10.09,0.55-17.31,0.55-21.67v-7.14c4.76,0.12,8.87,0.18,12.33,0.18c3.34,0,7.71-0.09,13.12-0.27s10.5-0.27,15.26-0.27
		c5.45,0,10.23,0.33,14.34,0.98c4.11,0.65,7.94,1.99,11.5,4.03c3.56,2.04,6.54,4.7,8.94,8c2.4,3.3,4.23,7.15,5.49,11.57
		c1.26,4.42,1.89,8.96,1.89,13.64c0,4.6-0.49,9.02-1.46,13.28c-0.98,4.25-2.34,8.09-4.09,11.51c-1.75,3.42-3.79,6.36-6.13,8.82
		c-2.34,2.46-5.02,4.57-8.03,6.32c-2.24,1.3-4.5,2.32-6.78,3.05c-2.28,0.73-5.39,1.32-9.34,1.77c-4.39,0.49-9.38,0.73-14.95,0.73
		l-24.66-0.18C-712.21,826.43-715.98,826.49-721.19,826.61z M-694.8,808.24c2.24,0.2,4.57,0.31,7.02,0.31c4.15,0,7.85-0.37,11.1-1.1
		c3.25-0.73,6.11-2.3,8.57-4.7c2.46-2.4,4.28-5.48,5.46-9.25c1.18-3.76,1.77-7.62,1.77-11.57c0-4.84-0.88-8.92-2.62-12.24
		c-1.75-3.32-4.08-5.62-6.99-6.93c-2.91-1.3-6.87-1.95-11.87-1.95c-2.93,0-6.39,0.12-10.38,0.37L-694.8,808.24z"/>
	<path class="st0" d="M-635.55,826.61l5.07-8.79l31.57-59.45l3.36-6.65c0.98-1.95,2.34-4.76,4.09-8.42
		c7.16,0.08,12.39,0.12,15.68,0.12c5.74,0,11.05-0.04,15.93-0.12l8.91,25.45l18.12,48.95l3.54,8.91
		c-7.05-0.08-11.32-0.12-12.83-0.12c-3.42,0-8.45,0.04-15.09,0.12c-1.79-6.71-4.37-14.61-7.74-23.68h-30.73
		c-3.54,7.16-7.2,15.06-10.98,23.68c-7.58-0.08-12.22-0.12-13.93-0.12C-623.68,826.49-628.67,826.53-635.55,826.61z M-588.29,785.17
		h18.96c-4.71-14.34-7.29-22.24-7.74-23.7c-2.68,5.97-4.96,10.87-6.83,14.68L-588.29,785.17z"/>
	<path class="st0" d="M-522.63,826.61c2.35-32.67,3.52-57.82,3.52-75.44l-0.06-7.87c7.13,0.08,11.89,0.12,14.29,0.12
		c1.1,0,5.48-0.04,13.13-0.12c-0.74,9.16-1.33,17.82-1.78,26c-0.57,11.39-0.98,22.04-1.23,31.95c-0.24,9.91-0.37,18.36-0.37,25.36
		l-12.51-0.12C-510.07,826.49-515.07,826.53-522.63,826.61z"/>
	<path class="st0" d="M-480.76,826.61c1.02-9.6,1.76-17.44,2.21-23.5c0.86-11.07,1.5-22.06,1.93-32.99
		c0.43-10.93,0.64-19.87,0.64-26.83c5.53,0.08,10.43,0.12,14.7,0.12c2.89,0,7.03-0.04,12.44-0.12l-1.47,22.1l-1.84,34.55l-0.25,8.48
		c7,0.12,11.56,0.18,13.68,0.18c10.71,0,18.81-0.14,24.3-0.43l-1.34,18.43c-10.7-0.08-20.9-0.12-30.58-0.12
		C-459.44,826.49-470.91,826.53-480.76,826.61z"/>
	<path class="st0" d="M-390.13,828.61c0.41-3.3,0.89-8.89,1.46-16.79c0.57-7.89,0.85-13.47,0.85-16.72l-27.95-49.81
		c6.14,0.08,11.2,0.12,15.19,0.12c3.82,0,8.4-0.04,13.72-0.12c1.63,4.07,3.83,8.92,6.62,14.55c2.79,5.63,5.92,8.67,7.67,13.1
		c4.68-8.26,7.57-12.69,10.42-17.31c2.85-4.62,4.88-8.06,6.1-10.34c5.17,0.08,10.14,0.12,14.91,0.12c2.53,0,7.11-0.04,13.75-0.12
		l-26.8,39.49c-5.33,7.89-8,12.02-8,12.39l-0.06,0.61v0.61l-0.06,0.61l-0.43,9.28c-0.28,6.14-0.51,12.92-0.67,20.33
		c-5.74-0.08-10.17-0.12-13.31-0.12C-379.92,828.49-384.4,828.53-390.13,828.61z"/>
	<path class="st0" d="M-722.05,927.28c0.9-9.28,1.51-16.7,1.84-22.28c0.49-8.3,0.98-19.04,1.47-32.23
		c0.37-10.09,0.55-17.31,0.55-21.67v-7.14c4.76,0.12,8.87,0.18,12.33,0.18c3.34,0,7.71-0.09,13.12-0.27s10.5-0.27,15.26-0.27
		c5.45,0,10.23,0.33,14.34,0.98c4.11,0.65,7.94,1.99,11.5,4.03c3.56,2.04,6.54,4.7,8.94,8c2.4,3.3,4.23,7.15,5.49,11.57
		c1.26,4.42,1.89,8.96,1.89,13.64c0,4.6-0.49,9.02-1.46,13.28c-0.98,4.25-2.34,8.09-4.09,11.51c-1.75,3.42-3.79,6.36-6.13,8.82
		c-2.34,2.46-5.02,4.57-8.03,6.32c-2.24,1.3-4.5,2.32-6.78,3.05c-2.28,0.73-5.39,1.32-9.34,1.77c-4.39,0.49-9.38,0.73-14.95,0.73
		l-24.66-0.18C-713.08,927.1-716.85,927.16-722.05,927.28z M-695.67,908.91c2.24,0.2,4.57,0.31,7.02,0.31c4.15,0,7.85-0.37,11.1-1.1
		c3.25-0.73,6.11-2.3,8.57-4.7c2.46-2.4,4.28-5.48,5.46-9.25c1.18-3.76,1.77-7.62,1.77-11.57c0-4.84-0.88-8.92-2.62-12.24
		c-1.75-3.32-4.08-5.62-6.99-6.93c-2.91-1.3-6.87-1.95-11.87-1.95c-2.93,0-6.39,0.12-10.38,0.37L-695.67,908.91z"/>
	<path class="st0" d="M-625.55,927.28c1.02-10.5,1.76-19.29,2.23-26.37c0.47-7.08,0.94-16.49,1.41-28.23
		c0.47-11.74,0.7-19.52,0.7-23.35l-0.06-5.37c9.6,0.08,21.22,0.12,34.85,0.12c12.57,0,23.66-0.04,33.26-0.12l-0.12,2.01
		c-0.04,0.49-0.14,2.25-0.31,5.29l-0.37,6.63c-0.08,1.42-0.12,2.86-0.12,4.32c-7.85-0.33-14.45-0.49-19.78-0.49
		c-5.86,0-9.82,0.01-11.87,0.03c-2.06,0.02-5.26,0.11-9.61,0.27l-0.74,14.04c4.8,0.12,10.4,0.18,16.79,0.18
		c2.28,0,8.34-0.14,18.19-0.43c-0.41,5.21-0.79,11.41-1.16,18.62c-7.04-0.08-12.45-0.12-16.23-0.12c-5.61,0-11.9,0.14-18.85,0.43
		l-0.73,14.83h7.01c2.07,0,6.36-0.06,12.87-0.18l12.63-0.31c1.87-0.04,5-0.2,9.39-0.49c-0.49,6.02-0.9,12.25-1.22,18.68
		c-9.93-0.08-20.81-0.12-32.65-0.12l-26.86,0.06L-625.55,927.28z"/>
	<path class="st0" d="M-524.54,927.28c2.02-19.78,3.23-41.55,3.64-65.31l-25.98,0.67l0.31-6.78c0.16-3.62,0.28-7.59,0.37-11.9
		c11.55,0.08,25.02,0.12,40.39,0.12l15.07-0.06h14.64l7.93-0.06l-0.37,5.98c-0.16,3.21-0.27,5.86-0.34,7.95
		c-0.06,2.1-0.09,3.68-0.09,4.75c-8.7-0.45-15.88-0.67-21.53-0.67h-4.27c-0.61,7.19-1.09,13.83-1.41,19.92
		c-0.45,8.73-0.8,17.21-1.04,25.43c-0.25,8.22-0.37,14.88-0.37,19.95c-6.67-0.08-10.98-0.12-12.93-0.12
		C-512.26,927.16-516.93,927.2-524.54,927.28z"/>
	<path class="st0" d="M-474.67,927.28l5.07-8.79l31.57-59.45l3.36-6.65c0.98-1.95,2.34-4.76,4.09-8.42
		c7.16,0.08,12.39,0.12,15.68,0.12c5.74,0,11.05-0.04,15.93-0.12l8.91,25.45l18.12,48.95l3.54,8.91
		c-7.05-0.08-11.32-0.12-12.83-0.12c-3.42,0-8.45,0.04-15.09,0.12c-1.79-6.71-4.37-14.61-7.74-23.68h-30.73
		c-3.54,7.16-7.2,15.06-10.98,23.68c-7.58-0.08-12.22-0.12-13.93-0.12C-462.8,927.16-467.79,927.2-474.67,927.28z M-427.41,885.84
		h18.96c-4.71-14.34-7.29-22.24-7.74-23.7c-2.68,5.97-4.96,10.87-6.83,14.68L-427.41,885.84z"/>
	<path class="st0" d="M-361.75,927.28c2.35-32.68,3.52-57.82,3.52-75.44l-0.06-7.87c7.13,0.08,11.89,0.12,14.29,0.12
		c1.1,0,5.48-0.04,13.13-0.12c-0.74,9.16-1.33,17.82-1.78,26c-0.57,11.39-0.98,22.04-1.23,31.95s-0.37,18.36-0.37,25.36l-12.51-0.12
		C-349.19,927.16-354.19,927.2-361.75,927.28z"/>
	<path class="st0" d="M-319.88,927.28c1.02-9.6,1.76-17.44,2.21-23.5c0.86-11.07,1.5-22.06,1.93-32.99
		c0.43-10.93,0.64-19.87,0.64-26.83c5.53,0.08,10.43,0.12,14.7,0.12c2.89,0,7.03-0.04,12.44-0.12l-1.47,22.1l-1.84,34.55l-0.25,8.48
		c7,0.12,11.56,0.18,13.68,0.18c10.71,0,18.81-0.14,24.3-0.43l-1.34,18.43c-10.7-0.08-20.9-0.12-30.58-0.12
		C-298.56,927.16-310.03,927.2-319.88,927.28z"/>
	<path class="st0" d="M-246.09,927.28c1.02-10.5,1.76-19.29,2.23-26.37c0.47-7.08,0.94-16.49,1.41-28.23
		c0.47-11.74,0.7-19.52,0.7-23.35l-0.06-5.37c9.6,0.08,21.22,0.12,34.85,0.12c12.57,0,23.66-0.04,33.26-0.12l-0.12,2.01
		c-0.04,0.49-0.14,2.25-0.31,5.29l-0.37,6.63c-0.08,1.42-0.12,2.86-0.12,4.32c-7.85-0.33-14.45-0.49-19.78-0.49
		c-5.86,0-9.82,0.01-11.87,0.03c-2.05,0.02-5.26,0.11-9.61,0.27l-0.74,14.04c4.8,0.12,10.4,0.18,16.79,0.18
		c2.28,0,8.34-0.14,18.19-0.43c-0.41,5.21-0.79,11.41-1.16,18.62c-7.04-0.08-12.45-0.12-16.23-0.12c-5.61,0-11.9,0.14-18.85,0.43
		l-0.73,14.83h7.01c2.07,0,6.36-0.06,12.87-0.18l12.63-0.31c1.87-0.04,5-0.2,9.39-0.49c-0.49,6.02-0.9,12.25-1.22,18.68
		c-9.93-0.08-20.81-0.12-32.65-0.12l-26.86,0.06L-246.09,927.28z"/>
	<path class="st0" d="M-163.5,927.28c0.9-9.28,1.51-16.7,1.84-22.28c0.49-8.3,0.98-19.04,1.47-32.23
		c0.37-10.09,0.55-17.31,0.55-21.67v-7.14c4.76,0.12,8.87,0.18,12.33,0.18c3.34,0,7.71-0.09,13.12-0.27
		c5.41-0.18,10.5-0.27,15.26-0.27c5.45,0,10.23,0.33,14.34,0.98c4.11,0.65,7.94,1.99,11.5,4.03c3.56,2.04,6.54,4.7,8.94,8
		c2.4,3.3,4.23,7.15,5.49,11.57c1.26,4.42,1.89,8.96,1.89,13.64c0,4.6-0.49,9.02-1.46,13.28s-2.34,8.09-4.09,11.51
		c-1.75,3.42-3.79,6.36-6.13,8.82c-2.34,2.46-5.01,4.57-8.03,6.32c-2.24,1.3-4.5,2.32-6.78,3.05c-2.28,0.73-5.39,1.32-9.34,1.77
		c-4.39,0.49-9.38,0.73-14.95,0.73l-24.66-0.18C-154.53,927.1-158.3,927.16-163.5,927.28z M-137.12,908.91
		c2.24,0.2,4.57,0.31,7.02,0.31c4.15,0,7.85-0.37,11.1-1.1c3.25-0.73,6.11-2.3,8.57-4.7c2.46-2.4,4.28-5.48,5.46-9.25
		c1.18-3.76,1.77-7.62,1.77-11.57c0-4.84-0.88-8.92-2.62-12.24c-1.75-3.32-4.08-5.62-6.99-6.93c-2.91-1.3-6.87-1.95-11.87-1.95
		c-2.93,0-6.39,0.12-10.38,0.37L-137.12,908.91z"/>
</g>
<polyline class="st1" points="-290.05,454.97 -261.27,454.97 -217.23,454.97 -153.5,454.97 -122.84,454.97 "/>
<polyline class="st1" points="-214.87,204.76 -245.53,204.76 -309.26,204.76 -353.3,204.76 -382.08,204.76 "/>
<line class="st1" x1="-45.2" y1="454.97" x2="-83.03" y2="454.97"/>
<g>
	<g>
		<g>
			<linearGradient id="SVGID_1_" gradientUnits="userSpaceOnUse" x1="115.054" y1="412.3221" x2="468.2072" y2="412.3221">
				<stop  offset="0.3467" style="stop-color:#1F1FFF"/>
				<stop  offset="1" style="stop-color:#A3A3FF"/>
			</linearGradient>
			<path class="st2" d="M399.93,397.93h-37.83c-7.95,0-14.39,6.44-14.39,14.39v0c0,7.95,6.44,14.39,14.39,14.39h37.83
				c7.95,0,14.39-6.44,14.39-14.39v0C414.33,404.37,407.88,397.93,399.93,397.93z"/>
			<linearGradient id="SVGID_2_" gradientUnits="userSpaceOnUse" x1="199.9542" y1="470.9626" x2="553.1074" y2="470.9626">
				<stop  offset="8.578276e-07" style="stop-color:#1F1FFF"/>
				<stop  offset="1" style="stop-color:#A3A3FF"/>
			</linearGradient>
			<path class="st3" d="M410.87,434.83H295.5c-2.45,0-4.7-1.28-6.03-3.34c-0.07-0.11-0.15-0.23-0.22-0.34
				c-1.25-1.91,0.1-4.44,2.38-4.44h30.66c7.1,0,12.85-5.75,12.85-12.85v-3.09c0-7.1-5.75-12.85-12.85-12.85H227.9h-1.8h-67.52
				c-1.93,0-3.5,1.57-3.5,3.5v139.12c0,1.91,1.55,3.45,3.45,3.45h67.57h2.22h93.96c7.1,0,12.85-5.75,12.85-12.85v-3.09
				c0-7.1-5.75-12.85-12.85-12.85h-31.17c-1.96,0-3.16-2.18-2.07-3.82c1.29-1.94,2.49-3.95,3.59-6.02c1-1.87,2.94-3.05,5.06-3.05
				h95.04c6.21,0,11.25-5.82,11.25-13.01v-2.77c0-7.18-5.03-13.01-11.25-13.01H303.5c-1.29,0-2.35-1.06-2.35-2.35l0,0
				c0-0.77-0.01-1.54-0.04-2.31c-0.09-2.87,2.18-5.25,5.05-5.25h104.7c6.33,0,11.46-5.13,11.46-11.46v-5.86
				C422.33,439.96,417.2,434.83,410.87,434.83z M272.36,471.17c0,0.79-0.02,1.57-0.06,2.35c-0.59,11.22-5.4,21.33-12.87,28.79
				c-7.97,7.97-18.98,12.89-31.1,12.89h-2.22h-42.24v-88.49h42.23h1.8c9.51,0,18.34,3,25.58,8.11c9.45,6.67,16.2,16.93,18.24,28.78
				C272.14,466.07,272.36,468.59,272.36,471.17z"/>
			<linearGradient id="SVGID_3_" gradientUnits="userSpaceOnUse" x1="118.054" y1="529.6011" x2="471.2072" y2="529.6011">
				<stop  offset="0.405" style="stop-color:#1F1FFF"/>
				<stop  offset="1" style="stop-color:#A3A3FF"/>
			</linearGradient>
			<path class="st4" d="M397.59,515.21h-37.83c-7.95,0-14.39,6.44-14.39,14.39v0c0,7.95,6.44,14.39,14.39,14.39h37.82
				c7.95,0,14.4-6.45,14.4-14.4l0,0C411.98,521.65,405.53,515.21,397.59,515.21z"/>
		</g>
		<g>
			<linearGradient id="SVGID_4_" gradientUnits="userSpaceOnUse" x1="-19.558" y1="368.0749" x2="468.9887" y2="368.0749">
				<stop  offset="0.3467" style="stop-color:#1F1FFF"/>
				<stop  offset="1" style="stop-color:#A3A3FF"/>
			</linearGradient>
			<path class="st5" d="M380.06,353.68h-61.84c-8.79,0-15.92,7.13-15.92,15.92v0c0,7.1,5.76,12.86,12.86,12.86h64.89
				c7.95,0,14.39-6.44,14.39-14.39v0C394.45,360.13,388.01,353.68,380.06,353.68z"/>
			<linearGradient id="SVGID_5_" gradientUnits="userSpaceOnUse" x1="139.4407" y1="448.8405" x2="377.3843" y2="448.8405">
				<stop  offset="8.578276e-07" style="stop-color:#1F1FFF"/>
				<stop  offset="1" style="stop-color:#A3A3FF"/>
			</linearGradient>
			<path class="st6" d="M276.42,353.69H109.21v186.48c0,2.12,1.72,3.83,3.83,3.83h24.95V382.47h137.83
				c7.43,0,13.45-6.02,13.45-13.45v-2.49C289.27,359.44,283.52,353.69,276.42,353.69z"/>
		</g>
	</g>
	<g>
		<path class="st0" d="M445.14,462.37c1.1-11.36,1.85-20.44,2.26-27.27c0.6-10.16,1.2-23.31,1.8-39.45
			c0.45-12.35,0.68-21.19,0.68-26.52v-8.74c5.82,0.15,10.85,0.22,15.09,0.22c4.08,0,9.44-0.11,16.06-0.34
			c6.62-0.22,12.85-0.34,18.67-0.34c6.67,0,12.52,0.4,17.55,1.2c5.03,0.8,9.72,2.44,14.08,4.93c4.36,2.49,8,5.75,10.94,9.79
			c2.94,4.03,5.18,8.75,6.72,14.16c1.54,5.4,2.32,10.97,2.32,16.7c0,5.63-0.6,11.04-1.79,16.25c-1.2,5.21-2.86,9.9-5,14.08
			c-2.14,4.18-4.65,7.78-7.51,10.8c-2.86,3.01-6.14,5.59-9.82,7.73c-2.74,1.59-5.5,2.84-8.29,3.74c-2.79,0.9-6.6,1.62-11.43,2.17
			c-5.38,0.6-11.48,0.9-18.3,0.9l-30.18-0.22C456.13,462.15,451.52,462.22,445.14,462.37z M477.44,439.88
			c2.74,0.25,5.6,0.37,8.59,0.37c5.08,0,9.61-0.45,13.59-1.34c3.98-0.9,7.48-2.81,10.49-5.75c3.01-2.94,5.24-6.71,6.68-11.32
			c1.44-4.61,2.17-9.33,2.17-14.16c0-5.93-1.07-10.92-3.21-14.98c-2.14-4.06-4.99-6.88-8.55-8.48c-3.56-1.59-8.4-2.39-14.53-2.39
			c-3.59,0-7.82,0.15-12.7,0.45L477.44,439.88z"/>
		<path class="st0" d="M549.96,462.37l6.2-10.76l38.64-72.76l4.11-8.14c1.2-2.39,2.86-5.83,5.01-10.31
			c8.76,0.1,15.16,0.15,19.2,0.15c7.02,0,13.52-0.05,19.5-0.15l10.9,31.15l22.17,59.92l31.38,89.91c-8.63-0.1-13.67,0-15.51,0
			c-4.19,0-8.72-0.1-16.85,0c-2.19-8.22-34.2-96.88-38.33-107.99h-37.61c-4.33,8.77-8.81,18.43-13.44,28.99
			c-9.27-0.1-14.96-0.15-17.05-0.15C564.49,462.22,558.38,462.27,549.96,462.37z M607.8,411.65H631
			c-5.77-17.55-8.92-27.22-9.47-29.01c-3.28,7.31-6.07,13.3-8.36,17.97L607.8,411.65z"/>
		<path class="st0" d="M688.17,462.37c2.87-39.99,4.31-70.77,4.31-92.34l-0.08-9.64c8.72,0.1,14.55,0.15,17.5,0.15
			c1.34,0,6.7-0.05,16.08-0.15c-0.9,11.21-1.63,21.81-2.17,31.83c-0.7,13.95-1.2,26.98-1.5,39.11c-0.3,12.13-0.45,22.48-0.45,31.04
			l-15.31-0.15C703.55,462.22,697.43,462.27,688.17,462.37z"/>
		<path class="st0" d="M739.42,462.37c1.25-11.75,2.15-21.34,2.7-28.76c1.05-13.55,1.84-27.01,2.36-40.38
			c0.53-13.37,0.79-24.32,0.79-32.83c6.77,0.1,12.76,0.15,17.99,0.15c3.53,0,8.61-0.05,15.23-0.15l-1.8,27.04l-2.25,42.28
			l-0.3,10.38c8.57,0.15,14.15,0.22,16.74,0.22c13.1,0,23.02-0.17,29.74-0.52l-1.64,22.56c-13.1-0.1-25.58-0.15-37.43-0.15
			C765.51,462.22,751.47,462.27,739.42,462.37z"/>
		<path class="st0" d="M851.4,462.37c0.5-4.03,1.1-10.88,1.79-20.54c0.7-9.66,1.05-16.48,1.05-20.47l-34.22-60.96
			c7.51,0.1,13.71,0.15,18.59,0.15c4.68,0,10.28-0.05,16.8-0.15c1.99,4.98,4.69,10.92,8.1,17.81c3.41,6.9,6.19,13.06,8.33,18.48
			c5.72-10.11,10.33-17.99,13.81-23.64c3.48-5.65,5.97-9.87,7.47-12.66c6.33,0.1,12.42,0.15,18.25,0.15c3.09,0,8.7-0.05,16.83-0.15
			l-32.8,48.34c-6.53,9.66-9.79,14.72-9.79,15.17l-0.08,0.75v0.75l-0.08,0.75l-0.52,11.36c-0.35,7.52-0.62,15.81-0.82,24.88
			c-7.02-0.1-12.45-0.15-16.29-0.15C863.9,462.22,858.42,462.27,851.4,462.37z"/>
		<path class="st0" d="M442.16,541.37c0.67-6.9,1.13-12.43,1.37-16.57c0.37-6.18,0.73-14.17,1.1-23.98
			c0.27-7.51,0.41-12.88,0.41-16.12v-5.31c3.54,0.09,6.6,0.14,9.17,0.14c2.48,0,5.73-0.07,9.76-0.2c4.02-0.14,7.81-0.2,11.35-0.2
			c4.06,0,7.61,0.24,10.67,0.73c3.06,0.48,5.91,1.48,8.56,3c2.65,1.51,4.86,3.5,6.65,5.95c1.79,2.45,3.15,5.32,4.09,8.61
			s1.41,6.67,1.41,10.15c0,3.42-0.36,6.71-1.09,9.88c-0.73,3.16-1.74,6.02-3.04,8.56c-1.3,2.54-2.82,4.73-4.56,6.56
			c-1.74,1.83-3.73,3.4-5.97,4.7c-1.67,0.97-3.35,1.73-5.04,2.27c-1.7,0.54-4.01,0.98-6.95,1.32c-3.27,0.36-6.98,0.54-11.13,0.54
			l-18.35-0.14C448.83,541.23,446.03,541.28,442.16,541.37z M461.79,527.7c1.66,0.15,3.4,0.23,5.22,0.23c3.09,0,5.84-0.27,8.26-0.82
			c2.42-0.54,4.54-1.71,6.38-3.5c1.83-1.79,3.18-4.08,4.06-6.88s1.32-5.67,1.32-8.61c0-3.6-0.65-6.64-1.95-9.1
			c-1.3-2.47-3.04-4.19-5.2-5.15c-2.16-0.97-5.11-1.45-8.83-1.45c-2.18,0-4.75,0.09-7.72,0.27L461.79,527.7z"/>
		<path class="st0" d="M515.95,541.37c0.76-7.81,1.31-14.35,1.66-19.62s0.7-12.27,1.05-21s0.52-14.52,0.52-17.37l-0.05-4
			c17.14,0.15,25.78,0.09,25.93,0.09c9.35,0,17.6-0.03,24.74-0.09l-0.09,1.49c-0.03,0.36-0.11,1.67-0.23,3.94l-0.27,4.93
			c-0.06,1.06-0.09,2.13-0.09,3.21c-5.84-0.24-10.75-0.36-14.71-0.36c-4.36,0-7.3,0.01-8.83,0.02c-1.53,0.02-3.91,0.08-7.15,0.2
			l-0.55,10.44c3.57,0.09,7.74,0.14,12.49,0.14c1.7,0,6.21-0.11,13.54-0.32c-0.3,3.88-0.59,8.49-0.86,13.85
			c-5.23-0.06-9.26-0.09-12.07-0.09c-4.18,0-8.85,0.11-14.02,0.32l-0.54,11.03h5.22c1.54,0,4.74-0.05,9.58-0.14l9.39-0.23
			c1.39-0.03,3.72-0.15,6.99-0.36c-0.36,4.48-0.67,9.11-0.91,13.9c-7.39-0.06-15.49-0.09-24.29-0.09l-19.98,0.05L515.95,541.37z"/>
		<path class="st0" d="M597.1,541.37c1.5-14.71,2.41-30.91,2.71-48.59l-19.33,0.5l0.23-5.04c0.12-2.69,0.21-5.65,0.27-8.85
			c8.59,0.06,18.61,0.09,30.05,0.09l11.21-0.05h10.9l5.9-0.05l-0.27,4.45c-0.12,2.39-0.2,4.36-0.25,5.92
			c-0.05,1.56-0.07,2.74-0.07,3.53c-6.47-0.33-11.81-0.5-16.02-0.5h-3.18c-0.46,5.35-0.81,10.29-1.05,14.82
			c-0.34,6.5-0.59,12.8-0.78,18.92c-0.18,6.12-0.27,11.07-0.27,14.84c-4.96-0.06-8.17-0.09-9.62-0.09
			C606.24,541.28,602.76,541.31,597.1,541.37z"/>
		<path class="st0" d="M714.21,541.37c1.75-24.31,2.62-43.02,2.62-56.13l-0.04-5.86c5.3,0.06,8.85,0.09,10.63,0.09
			c0.82,0,4.07-0.03,9.77-0.09c-0.55,6.81-0.99,13.26-1.32,19.34c-0.43,8.48-0.73,16.4-0.91,23.77c-0.18,7.37-0.27,13.66-0.27,18.87
			l-9.3-0.09C723.56,541.28,719.84,541.31,714.21,541.37z"/>
		<path class="st0" d="M745.36,541.37c0.76-7.14,1.31-12.97,1.64-17.48c0.64-8.23,1.12-16.42,1.44-24.54
			c0.32-8.13,0.48-14.78,0.48-19.96c4.11,0.06,7.76,0.09,10.94,0.09c2.15,0,5.23-0.03,9.26-0.09l-1.09,16.44l-1.37,25.7l-0.18,6.31
			c5.21,0.09,8.6,0.14,10.17,0.14c7.97,0,13.99-0.11,18.08-0.32l-1,13.71c-7.96-0.06-15.55-0.09-22.75-0.09
			C761.23,541.28,752.69,541.31,745.36,541.37z"/>
		<path class="st0" d="M801.26,541.37c0.76-7.81,1.31-14.35,1.66-19.62c0.35-5.27,0.7-12.27,1.05-21
			c0.35-8.73,0.52-14.52,0.52-17.37l-0.05-4c7.14,0.06,15.78,0.09,25.92,0.09c9.35,0,17.6-0.03,24.74-0.09l-0.09,1.49
			c-0.03,0.36-0.11,1.67-0.23,3.94l-0.27,4.93c-0.06,1.06-0.09,2.13-0.09,3.21c-5.84-0.24-10.75-0.36-14.71-0.36
			c-4.36,0-7.3,0.01-8.83,0.02c-1.53,0.02-3.91,0.08-7.15,0.2l-0.55,10.44c3.57,0.09,7.74,0.14,12.49,0.14
			c1.7,0,6.21-0.11,13.54-0.32c-0.3,3.88-0.59,8.49-0.86,13.85c-5.24-0.06-9.26-0.09-12.07-0.09c-4.18,0-8.85,0.11-14.02,0.32
			l-0.54,11.03h5.22c1.54,0,4.74-0.05,9.58-0.14l9.39-0.23c1.39-0.03,3.72-0.15,6.99-0.36c-0.36,4.48-0.67,9.11-0.91,13.9
			c-7.39-0.06-15.48-0.09-24.29-0.09l-19.98,0.05L801.26,541.37z"/>
		<path class="st0" d="M861.7,541.37c0.67-6.9,1.13-12.43,1.37-16.57c0.37-6.18,0.73-14.17,1.1-23.98
			c0.27-7.51,0.41-12.88,0.41-16.12v-5.31c3.54,0.09,6.6,0.14,9.17,0.14c2.48,0,5.74-0.07,9.76-0.2c4.03-0.14,7.81-0.2,11.35-0.2
			c4.06,0,7.61,0.24,10.67,0.73c3.06,0.48,5.91,1.48,8.56,3c2.65,1.51,4.87,3.5,6.65,5.95s3.15,5.32,4.09,8.61s1.41,6.67,1.41,10.15
			c0,3.42-0.36,6.71-1.09,9.88c-0.73,3.16-1.74,6.02-3.04,8.56s-2.82,4.73-4.56,6.56c-1.74,1.83-3.73,3.4-5.97,4.7
			c-1.67,0.97-3.35,1.73-5.04,2.27s-4.01,0.98-6.95,1.32c-3.27,0.36-6.98,0.54-11.12,0.54l-18.35-0.14
			C868.38,541.23,865.58,541.28,861.7,541.37z M881.34,527.7c1.66,0.15,3.4,0.23,5.22,0.23c3.09,0,5.84-0.27,8.26-0.82
			c2.42-0.54,4.54-1.71,6.38-3.5c1.83-1.79,3.18-4.08,4.06-6.88c0.88-2.8,1.32-5.67,1.32-8.61c0-3.6-0.65-6.64-1.95-9.1
			c-1.3-2.47-3.04-4.19-5.2-5.15c-2.16-0.97-5.11-1.45-8.83-1.45c-2.18,0-4.75,0.09-7.72,0.27L881.34,527.7z"/>
	</g>
</g>
</svg>
